G75*
%MOIN*%
%OFA0B0*%
%FSLAX25Y25*%
%IPPOS*%
%LPD*%
%AMOC8*
5,1,8,0,0,1.08239X$1,22.5*
%
%ADD10OC8,0.05600*%
%ADD11C,0.05200*%
%ADD12OC8,0.05200*%
%ADD13OC8,0.06600*%
%ADD14C,0.05543*%
%ADD15C,0.06000*%
%ADD16R,0.05000X0.30500*%
%ADD17R,0.30500X0.09000*%
%ADD18C,0.05600*%
%ADD19C,0.03962*%
%ADD20C,0.01600*%
%ADD21C,0.05000*%
%ADD22C,0.01200*%
%ADD23C,0.02400*%
%ADD24C,0.01000*%
D10*
X0135150Y0119000D03*
X0165150Y0119000D03*
X0089000Y0307000D03*
X0089000Y0337000D03*
X0467000Y0194000D03*
X0467000Y0164000D03*
X0583900Y0199725D03*
X0613900Y0199725D03*
D11*
X0611400Y0219000D02*
X0616600Y0219000D01*
X0616600Y0229000D02*
X0611400Y0229000D01*
X0611400Y0239000D02*
X0616600Y0239000D01*
X0616600Y0249000D02*
X0611400Y0249000D01*
X0611400Y0259000D02*
X0616600Y0259000D01*
X0616600Y0269000D02*
X0611400Y0269000D01*
X0611400Y0279000D02*
X0616600Y0279000D01*
X0616600Y0289000D02*
X0611400Y0289000D01*
X0611400Y0299000D02*
X0616600Y0299000D01*
X0616600Y0309000D02*
X0611400Y0309000D01*
X0611400Y0319000D02*
X0616600Y0319000D01*
X0616600Y0329000D02*
X0611400Y0329000D01*
X0611400Y0339000D02*
X0616600Y0339000D01*
X0616600Y0349000D02*
X0611400Y0349000D01*
X0584500Y0369050D02*
X0584500Y0374250D01*
X0574500Y0374250D02*
X0574500Y0369050D01*
X0564500Y0369050D02*
X0564500Y0374250D01*
X0554500Y0374250D02*
X0554500Y0369050D01*
X0544500Y0369050D02*
X0544500Y0374250D01*
X0534500Y0374250D02*
X0534500Y0369050D01*
X0524500Y0369050D02*
X0524500Y0374250D01*
X0524500Y0399050D02*
X0524500Y0404250D01*
X0534500Y0404250D02*
X0534500Y0399050D01*
X0544500Y0399050D02*
X0544500Y0404250D01*
X0554500Y0404250D02*
X0554500Y0399050D01*
X0564500Y0399050D02*
X0564500Y0404250D01*
X0574500Y0404250D02*
X0574500Y0399050D01*
X0584500Y0399050D02*
X0584500Y0404250D01*
X0556600Y0349000D02*
X0551400Y0349000D01*
X0551400Y0339000D02*
X0556600Y0339000D01*
X0556600Y0329000D02*
X0551400Y0329000D01*
X0551400Y0319000D02*
X0556600Y0319000D01*
X0556600Y0309000D02*
X0551400Y0309000D01*
X0551400Y0299000D02*
X0556600Y0299000D01*
X0556600Y0289000D02*
X0551400Y0289000D01*
X0551400Y0279000D02*
X0556600Y0279000D01*
X0556600Y0269000D02*
X0551400Y0269000D01*
X0551400Y0259000D02*
X0556600Y0259000D01*
X0556600Y0249000D02*
X0551400Y0249000D01*
X0551400Y0239000D02*
X0556600Y0239000D01*
X0556600Y0229000D02*
X0551400Y0229000D01*
X0551400Y0219000D02*
X0556600Y0219000D01*
X0536600Y0219000D02*
X0531400Y0219000D01*
X0531400Y0229000D02*
X0536600Y0229000D01*
X0536600Y0239000D02*
X0531400Y0239000D01*
X0531400Y0249000D02*
X0536600Y0249000D01*
X0536600Y0259000D02*
X0531400Y0259000D01*
X0531400Y0269000D02*
X0536600Y0269000D01*
X0536600Y0279000D02*
X0531400Y0279000D01*
X0531400Y0289000D02*
X0536600Y0289000D01*
X0536600Y0299000D02*
X0531400Y0299000D01*
X0531400Y0309000D02*
X0536600Y0309000D01*
X0536600Y0319000D02*
X0531400Y0319000D01*
X0531400Y0329000D02*
X0536600Y0329000D01*
X0536600Y0339000D02*
X0531400Y0339000D01*
X0531400Y0349000D02*
X0536600Y0349000D01*
X0476600Y0349000D02*
X0471400Y0349000D01*
X0471400Y0339000D02*
X0476600Y0339000D01*
X0476600Y0329000D02*
X0471400Y0329000D01*
X0471400Y0319000D02*
X0476600Y0319000D01*
X0476600Y0309000D02*
X0471400Y0309000D01*
X0471400Y0299000D02*
X0476600Y0299000D01*
X0476600Y0289000D02*
X0471400Y0289000D01*
X0471400Y0279000D02*
X0476600Y0279000D01*
X0476600Y0269000D02*
X0471400Y0269000D01*
X0471400Y0259000D02*
X0476600Y0259000D01*
X0476600Y0249000D02*
X0471400Y0249000D01*
X0471400Y0239000D02*
X0476600Y0239000D01*
X0476600Y0229000D02*
X0471400Y0229000D01*
X0471400Y0219000D02*
X0476600Y0219000D01*
X0456600Y0219000D02*
X0451400Y0219000D01*
X0451400Y0229000D02*
X0456600Y0229000D01*
X0456600Y0239000D02*
X0451400Y0239000D01*
X0451400Y0249000D02*
X0456600Y0249000D01*
X0456600Y0259000D02*
X0451400Y0259000D01*
X0451400Y0269000D02*
X0456600Y0269000D01*
X0456600Y0279000D02*
X0451400Y0279000D01*
X0451400Y0289000D02*
X0456600Y0289000D01*
X0456600Y0299000D02*
X0451400Y0299000D01*
X0451400Y0309000D02*
X0456600Y0309000D01*
X0456600Y0319000D02*
X0451400Y0319000D01*
X0451400Y0329000D02*
X0456600Y0329000D01*
X0456600Y0339000D02*
X0451400Y0339000D01*
X0451400Y0349000D02*
X0456600Y0349000D01*
X0461500Y0383600D02*
X0461500Y0388800D01*
X0451500Y0388800D02*
X0451500Y0383600D01*
X0441500Y0383600D02*
X0441500Y0388800D01*
X0431500Y0388800D02*
X0431500Y0383600D01*
X0421500Y0383600D02*
X0421500Y0388800D01*
X0411500Y0388800D02*
X0411500Y0383600D01*
X0401500Y0383600D02*
X0401500Y0388800D01*
X0391500Y0388800D02*
X0391500Y0383600D01*
X0381500Y0383600D02*
X0381500Y0388800D01*
X0371500Y0388800D02*
X0371500Y0383600D01*
X0361500Y0383600D02*
X0361500Y0388800D01*
X0351500Y0388800D02*
X0351500Y0383600D01*
X0341500Y0383600D02*
X0341500Y0388800D01*
X0331500Y0388800D02*
X0331500Y0383600D01*
X0321500Y0383600D02*
X0321500Y0388800D01*
X0311500Y0388800D02*
X0311500Y0383600D01*
X0301500Y0383600D02*
X0301500Y0388800D01*
X0291500Y0388800D02*
X0291500Y0383600D01*
X0281500Y0383600D02*
X0281500Y0388800D01*
X0271500Y0388800D02*
X0271500Y0383600D01*
X0261500Y0383600D02*
X0261500Y0388800D01*
X0251500Y0388800D02*
X0251500Y0383600D01*
X0251500Y0403600D02*
X0251500Y0408800D01*
X0261500Y0408800D02*
X0261500Y0403600D01*
X0271500Y0403600D02*
X0271500Y0408800D01*
X0281500Y0408800D02*
X0281500Y0403600D01*
X0291500Y0403600D02*
X0291500Y0408800D01*
X0301500Y0408800D02*
X0301500Y0403600D01*
X0311500Y0403600D02*
X0311500Y0408800D01*
X0321500Y0408800D02*
X0321500Y0403600D01*
X0331500Y0403600D02*
X0331500Y0408800D01*
X0341500Y0408800D02*
X0341500Y0403600D01*
X0351500Y0403600D02*
X0351500Y0408800D01*
X0361500Y0408800D02*
X0361500Y0403600D01*
X0371500Y0403600D02*
X0371500Y0408800D01*
X0381500Y0408800D02*
X0381500Y0403600D01*
X0391500Y0403600D02*
X0391500Y0408800D01*
X0401500Y0408800D02*
X0401500Y0403600D01*
X0411500Y0403600D02*
X0411500Y0408800D01*
X0421500Y0408800D02*
X0421500Y0403600D01*
X0431500Y0403600D02*
X0431500Y0408800D01*
X0441500Y0408800D02*
X0441500Y0403600D01*
X0451500Y0403600D02*
X0451500Y0408800D01*
X0461500Y0408800D02*
X0461500Y0403600D01*
X0396600Y0349000D02*
X0391400Y0349000D01*
X0391400Y0339000D02*
X0396600Y0339000D01*
X0396600Y0329000D02*
X0391400Y0329000D01*
X0391400Y0319000D02*
X0396600Y0319000D01*
X0396600Y0309000D02*
X0391400Y0309000D01*
X0391400Y0299000D02*
X0396600Y0299000D01*
X0396600Y0289000D02*
X0391400Y0289000D01*
X0391400Y0279000D02*
X0396600Y0279000D01*
X0396600Y0269000D02*
X0391400Y0269000D01*
X0391400Y0259000D02*
X0396600Y0259000D01*
X0396600Y0249000D02*
X0391400Y0249000D01*
X0391400Y0239000D02*
X0396600Y0239000D01*
X0396600Y0229000D02*
X0391400Y0229000D01*
X0391400Y0219000D02*
X0396600Y0219000D01*
X0376600Y0219000D02*
X0371400Y0219000D01*
X0371400Y0229000D02*
X0376600Y0229000D01*
X0376600Y0239000D02*
X0371400Y0239000D01*
X0371400Y0249000D02*
X0376600Y0249000D01*
X0376600Y0259000D02*
X0371400Y0259000D01*
X0371400Y0269000D02*
X0376600Y0269000D01*
X0376600Y0279000D02*
X0371400Y0279000D01*
X0371400Y0289000D02*
X0376600Y0289000D01*
X0376600Y0299000D02*
X0371400Y0299000D01*
X0371400Y0309000D02*
X0376600Y0309000D01*
X0376600Y0319000D02*
X0371400Y0319000D01*
X0371400Y0329000D02*
X0376600Y0329000D01*
X0376600Y0339000D02*
X0371400Y0339000D01*
X0371400Y0349000D02*
X0376600Y0349000D01*
X0316600Y0349000D02*
X0311400Y0349000D01*
X0311400Y0339000D02*
X0316600Y0339000D01*
X0316600Y0329000D02*
X0311400Y0329000D01*
X0311400Y0319000D02*
X0316600Y0319000D01*
X0316600Y0309000D02*
X0311400Y0309000D01*
X0311400Y0299000D02*
X0316600Y0299000D01*
X0316600Y0289000D02*
X0311400Y0289000D01*
X0311400Y0279000D02*
X0316600Y0279000D01*
X0316600Y0269000D02*
X0311400Y0269000D01*
X0311400Y0259000D02*
X0316600Y0259000D01*
X0316600Y0249000D02*
X0311400Y0249000D01*
X0311400Y0239000D02*
X0316600Y0239000D01*
X0316600Y0229000D02*
X0311400Y0229000D01*
X0311400Y0219000D02*
X0316600Y0219000D01*
X0297000Y0219600D02*
X0297000Y0214400D01*
X0287000Y0214400D02*
X0287000Y0219600D01*
X0277000Y0219600D02*
X0277000Y0214400D01*
X0267000Y0214400D02*
X0267000Y0219600D01*
X0257000Y0219600D02*
X0257000Y0214400D01*
X0247000Y0214400D02*
X0247000Y0219600D01*
X0237000Y0219600D02*
X0237000Y0214400D01*
X0227000Y0214400D02*
X0227000Y0219600D01*
X0217000Y0219600D02*
X0217000Y0214400D01*
X0207000Y0214400D02*
X0207000Y0219600D01*
X0197000Y0219600D02*
X0197000Y0214400D01*
X0187000Y0214400D02*
X0187000Y0219600D01*
X0177000Y0219600D02*
X0177000Y0214400D01*
X0167000Y0214400D02*
X0167000Y0219600D01*
X0157000Y0219600D02*
X0157000Y0214400D01*
X0147000Y0214400D02*
X0147000Y0219600D01*
X0137000Y0219600D02*
X0137000Y0214400D01*
X0127000Y0214400D02*
X0127000Y0219600D01*
X0117000Y0219600D02*
X0117000Y0214400D01*
X0107000Y0214400D02*
X0107000Y0219600D01*
X0107000Y0244400D02*
X0107000Y0249600D01*
X0117000Y0249600D02*
X0117000Y0244400D01*
X0127000Y0244400D02*
X0127000Y0249600D01*
X0137000Y0249600D02*
X0137000Y0244400D01*
X0147000Y0244400D02*
X0147000Y0249600D01*
X0157000Y0249600D02*
X0157000Y0244400D01*
X0167000Y0244400D02*
X0167000Y0249600D01*
X0177000Y0249600D02*
X0177000Y0244400D01*
X0187000Y0244400D02*
X0187000Y0249600D01*
X0197000Y0249600D02*
X0197000Y0244400D01*
X0207000Y0244400D02*
X0207000Y0249600D01*
X0217000Y0249600D02*
X0217000Y0244400D01*
X0227000Y0244400D02*
X0227000Y0249600D01*
X0237000Y0249600D02*
X0237000Y0244400D01*
X0247000Y0244400D02*
X0247000Y0249600D01*
X0257000Y0249600D02*
X0257000Y0244400D01*
X0267000Y0244400D02*
X0267000Y0249600D01*
X0277000Y0249600D02*
X0277000Y0244400D01*
X0287000Y0244400D02*
X0287000Y0249600D01*
X0297000Y0249600D02*
X0297000Y0244400D01*
X0297000Y0274400D02*
X0297000Y0279600D01*
X0287000Y0279600D02*
X0287000Y0274400D01*
X0277000Y0274400D02*
X0277000Y0279600D01*
X0267000Y0279600D02*
X0267000Y0274400D01*
X0257000Y0274400D02*
X0257000Y0279600D01*
X0247000Y0279600D02*
X0247000Y0274400D01*
X0237000Y0274400D02*
X0237000Y0279600D01*
X0227000Y0279600D02*
X0227000Y0274400D01*
X0217000Y0274400D02*
X0217000Y0279600D01*
X0207000Y0279600D02*
X0207000Y0274400D01*
X0197000Y0274400D02*
X0197000Y0279600D01*
X0187000Y0279600D02*
X0187000Y0274400D01*
X0187000Y0264600D02*
X0187000Y0259400D01*
X0197000Y0259400D02*
X0197000Y0264600D01*
X0177000Y0264600D02*
X0177000Y0259400D01*
X0167000Y0259400D02*
X0167000Y0264600D01*
X0167000Y0274400D02*
X0167000Y0279600D01*
X0177000Y0279600D02*
X0177000Y0274400D01*
X0157000Y0274400D02*
X0157000Y0279600D01*
X0147000Y0279600D02*
X0147000Y0274400D01*
X0147000Y0264600D02*
X0147000Y0259400D01*
X0157000Y0259400D02*
X0157000Y0264600D01*
X0137000Y0264600D02*
X0137000Y0259400D01*
X0127000Y0259400D02*
X0127000Y0264600D01*
X0127000Y0274400D02*
X0127000Y0279600D01*
X0137000Y0279600D02*
X0137000Y0274400D01*
X0117000Y0274400D02*
X0117000Y0279600D01*
X0107000Y0279600D02*
X0107000Y0274400D01*
X0107000Y0264600D02*
X0107000Y0259400D01*
X0117000Y0259400D02*
X0117000Y0264600D01*
X0117000Y0334400D02*
X0117000Y0339600D01*
X0107000Y0339600D02*
X0107000Y0334400D01*
X0127000Y0334400D02*
X0127000Y0339600D01*
X0137000Y0339600D02*
X0137000Y0334400D01*
X0147000Y0334400D02*
X0147000Y0339600D01*
X0157000Y0339600D02*
X0157000Y0334400D01*
X0167000Y0334400D02*
X0167000Y0339600D01*
X0177000Y0339600D02*
X0177000Y0334400D01*
X0187000Y0334400D02*
X0187000Y0339600D01*
X0197000Y0339600D02*
X0197000Y0334400D01*
X0207000Y0334400D02*
X0207000Y0339600D01*
X0217000Y0339600D02*
X0217000Y0334400D01*
X0227000Y0334400D02*
X0227000Y0339600D01*
X0227000Y0349400D02*
X0227000Y0354600D01*
X0217000Y0354600D02*
X0217000Y0349400D01*
X0207000Y0349400D02*
X0207000Y0354600D01*
X0207000Y0367350D02*
X0207000Y0372550D01*
X0197000Y0372550D02*
X0197000Y0367350D01*
X0187000Y0367350D02*
X0187000Y0372550D01*
X0177000Y0372550D02*
X0177000Y0367350D01*
X0167000Y0367350D02*
X0167000Y0372550D01*
X0157000Y0372550D02*
X0157000Y0367350D01*
X0147000Y0367350D02*
X0147000Y0372550D01*
X0137000Y0372550D02*
X0137000Y0367350D01*
X0137000Y0397350D02*
X0137000Y0402550D01*
X0147000Y0402550D02*
X0147000Y0397350D01*
X0157000Y0397350D02*
X0157000Y0402550D01*
X0167000Y0402550D02*
X0167000Y0397350D01*
X0177000Y0397350D02*
X0177000Y0402550D01*
X0187000Y0402550D02*
X0187000Y0397350D01*
X0197000Y0397350D02*
X0197000Y0402550D01*
X0207000Y0402550D02*
X0207000Y0397350D01*
X0237000Y0354600D02*
X0237000Y0349400D01*
X0247000Y0349400D02*
X0247000Y0354600D01*
X0257000Y0354600D02*
X0257000Y0349400D01*
X0267000Y0349400D02*
X0267000Y0354600D01*
X0277000Y0354600D02*
X0277000Y0349400D01*
X0287000Y0349400D02*
X0287000Y0354600D01*
X0297000Y0354600D02*
X0297000Y0349400D01*
X0297000Y0339600D02*
X0297000Y0334400D01*
X0287000Y0334400D02*
X0287000Y0339600D01*
X0277000Y0339600D02*
X0277000Y0334400D01*
X0267000Y0334400D02*
X0267000Y0339600D01*
X0257000Y0339600D02*
X0257000Y0334400D01*
X0247000Y0334400D02*
X0247000Y0339600D01*
X0237000Y0339600D02*
X0237000Y0334400D01*
X0256750Y0200850D02*
X0256750Y0195650D01*
X0266750Y0195650D02*
X0266750Y0200850D01*
X0276750Y0200850D02*
X0276750Y0195650D01*
X0278900Y0179000D02*
X0284100Y0179000D01*
X0284100Y0169000D02*
X0278900Y0169000D01*
X0278900Y0159000D02*
X0284100Y0159000D01*
X0284100Y0149000D02*
X0278900Y0149000D01*
X0278900Y0139000D02*
X0284100Y0139000D01*
X0284100Y0129000D02*
X0278900Y0129000D01*
X0278900Y0119000D02*
X0284100Y0119000D01*
X0306400Y0119000D02*
X0311600Y0119000D01*
X0311600Y0129000D02*
X0306400Y0129000D01*
X0306400Y0139000D02*
X0311600Y0139000D01*
X0311600Y0149000D02*
X0306400Y0149000D01*
X0306400Y0159000D02*
X0311600Y0159000D01*
X0311600Y0169000D02*
X0306400Y0169000D01*
X0306400Y0179000D02*
X0311600Y0179000D01*
X0336400Y0179000D02*
X0341600Y0179000D01*
X0341600Y0169000D02*
X0336400Y0169000D01*
X0336400Y0159000D02*
X0341600Y0159000D01*
X0341600Y0149000D02*
X0336400Y0149000D01*
X0336400Y0139000D02*
X0341600Y0139000D01*
X0341600Y0129000D02*
X0336400Y0129000D01*
X0336400Y0119000D02*
X0341600Y0119000D01*
X0363900Y0119000D02*
X0369100Y0119000D01*
X0369100Y0129000D02*
X0363900Y0129000D01*
X0363900Y0139000D02*
X0369100Y0139000D01*
X0369100Y0149000D02*
X0363900Y0149000D01*
X0363900Y0159000D02*
X0369100Y0159000D01*
X0369100Y0169000D02*
X0363900Y0169000D01*
X0363900Y0179000D02*
X0369100Y0179000D01*
X0393900Y0179000D02*
X0399100Y0179000D01*
X0399100Y0169000D02*
X0393900Y0169000D01*
X0393900Y0159000D02*
X0399100Y0159000D01*
X0399100Y0149000D02*
X0393900Y0149000D01*
X0393900Y0139000D02*
X0399100Y0139000D01*
X0399100Y0129000D02*
X0393900Y0129000D01*
X0393900Y0119000D02*
X0399100Y0119000D01*
X0421400Y0119000D02*
X0426600Y0119000D01*
X0426600Y0129000D02*
X0421400Y0129000D01*
X0421400Y0139000D02*
X0426600Y0139000D01*
X0426600Y0149000D02*
X0421400Y0149000D01*
X0421400Y0159000D02*
X0426600Y0159000D01*
X0426600Y0169000D02*
X0421400Y0169000D01*
X0421400Y0179000D02*
X0426600Y0179000D01*
X0451400Y0179000D02*
X0456600Y0179000D01*
X0456600Y0169000D02*
X0451400Y0169000D01*
X0451400Y0159000D02*
X0456600Y0159000D01*
X0456600Y0149000D02*
X0451400Y0149000D01*
X0451400Y0139000D02*
X0456600Y0139000D01*
X0456600Y0129000D02*
X0451400Y0129000D01*
X0451400Y0119000D02*
X0456600Y0119000D01*
X0478900Y0119000D02*
X0484100Y0119000D01*
X0484100Y0109000D02*
X0478900Y0109000D01*
X0478900Y0129000D02*
X0484100Y0129000D01*
X0484100Y0139000D02*
X0478900Y0139000D01*
X0478900Y0149000D02*
X0484100Y0149000D01*
X0484100Y0159000D02*
X0478900Y0159000D01*
X0478900Y0169000D02*
X0484100Y0169000D01*
X0484100Y0179000D02*
X0478900Y0179000D01*
X0508900Y0179000D02*
X0514100Y0179000D01*
X0514100Y0169000D02*
X0508900Y0169000D01*
X0508900Y0159000D02*
X0514100Y0159000D01*
X0514100Y0149000D02*
X0508900Y0149000D01*
X0508900Y0139000D02*
X0514100Y0139000D01*
X0514100Y0129000D02*
X0508900Y0129000D01*
X0508900Y0119000D02*
X0514100Y0119000D01*
X0514100Y0109000D02*
X0508900Y0109000D01*
X0536400Y0119000D02*
X0541600Y0119000D01*
X0541600Y0129000D02*
X0536400Y0129000D01*
X0536400Y0139000D02*
X0541600Y0139000D01*
X0541600Y0149000D02*
X0536400Y0149000D01*
X0536400Y0159000D02*
X0541600Y0159000D01*
X0541600Y0169000D02*
X0536400Y0169000D01*
X0536400Y0179000D02*
X0541600Y0179000D01*
X0566400Y0179000D02*
X0571600Y0179000D01*
X0571600Y0169000D02*
X0566400Y0169000D01*
X0566400Y0159000D02*
X0571600Y0159000D01*
X0571600Y0149000D02*
X0566400Y0149000D01*
X0566400Y0139000D02*
X0571600Y0139000D01*
X0571600Y0129000D02*
X0566400Y0129000D01*
X0566400Y0119000D02*
X0571600Y0119000D01*
X0254100Y0119000D02*
X0248900Y0119000D01*
X0248900Y0129000D02*
X0254100Y0129000D01*
X0254100Y0139000D02*
X0248900Y0139000D01*
X0248900Y0149000D02*
X0254100Y0149000D01*
X0254100Y0159000D02*
X0248900Y0159000D01*
X0248900Y0169000D02*
X0254100Y0169000D01*
X0254100Y0179000D02*
X0248900Y0179000D01*
X0226600Y0179000D02*
X0221400Y0179000D01*
X0221400Y0169000D02*
X0226600Y0169000D01*
X0226600Y0159000D02*
X0221400Y0159000D01*
X0221400Y0149000D02*
X0226600Y0149000D01*
X0226600Y0139000D02*
X0221400Y0139000D01*
X0221400Y0129000D02*
X0226600Y0129000D01*
X0226600Y0119000D02*
X0221400Y0119000D01*
X0196600Y0119000D02*
X0191400Y0119000D01*
X0191400Y0129000D02*
X0196600Y0129000D01*
X0196600Y0139000D02*
X0191400Y0139000D01*
X0191400Y0149000D02*
X0196600Y0149000D01*
X0196600Y0159000D02*
X0191400Y0159000D01*
X0191400Y0169000D02*
X0196600Y0169000D01*
X0196600Y0179000D02*
X0191400Y0179000D01*
D12*
X0239000Y0421800D03*
X0234000Y0429300D03*
X0244000Y0429300D03*
D13*
X0290550Y0367200D03*
X0330550Y0367200D03*
X0309000Y0096400D03*
X0278500Y0084000D03*
X0269000Y0096400D03*
X0247800Y0096000D03*
X0238500Y0084000D03*
X0207800Y0096000D03*
X0466000Y0094600D03*
X0506000Y0094600D03*
X0515200Y0094600D03*
X0555200Y0094600D03*
D14*
X0223160Y0379950D03*
X0213160Y0379950D03*
X0203160Y0379950D03*
X0193160Y0379950D03*
X0183160Y0379950D03*
X0173160Y0379950D03*
X0163160Y0379950D03*
X0153160Y0379950D03*
X0155840Y0389950D03*
X0145840Y0389950D03*
X0135840Y0389950D03*
X0165840Y0389950D03*
X0175840Y0389950D03*
X0185840Y0389950D03*
X0195840Y0389950D03*
X0205840Y0389950D03*
D15*
X0119500Y0117097D02*
X0119500Y0086000D01*
X0147815Y0086000D01*
X0142813Y0090868D01*
X0142781Y0090881D01*
X0142129Y0091532D01*
X0141468Y0092176D01*
X0141455Y0092207D01*
X0141431Y0092231D01*
X0141078Y0093083D01*
X0140714Y0093930D01*
X0140713Y0093964D01*
X0140700Y0093995D01*
X0140700Y0094917D01*
X0140687Y0095839D01*
X0140700Y0095871D01*
X0140700Y0097341D01*
X0140429Y0097612D01*
X0139519Y0099810D01*
X0139519Y0102190D01*
X0140429Y0104388D01*
X0142112Y0106071D01*
X0144310Y0106981D01*
X0146690Y0106981D01*
X0147200Y0106770D01*
X0147200Y0167446D01*
X0129800Y0185281D01*
X0129800Y0160359D01*
X0130071Y0160088D01*
X0130981Y0157890D01*
X0130981Y0156239D01*
X0131388Y0156071D01*
X0133071Y0154388D01*
X0133981Y0152190D01*
X0133981Y0149810D01*
X0133071Y0147612D01*
X0131388Y0145929D01*
X0129190Y0145019D01*
X0126810Y0145019D01*
X0124612Y0145929D01*
X0124341Y0146200D01*
X0122095Y0146200D01*
X0120331Y0146931D01*
X0116731Y0150531D01*
X0115381Y0151881D01*
X0114650Y0153645D01*
X0114650Y0187320D01*
X0098601Y0203460D01*
X0097931Y0204131D01*
X0097928Y0204138D01*
X0097923Y0204143D01*
X0097563Y0205019D01*
X0097200Y0205895D01*
X0097200Y0205902D01*
X0097197Y0205909D01*
X0097200Y0206857D01*
X0097200Y0325841D01*
X0096929Y0326112D01*
X0096019Y0328310D01*
X0096019Y0330690D01*
X0096929Y0332888D01*
X0098612Y0334571D01*
X0100400Y0335311D01*
X0100400Y0340913D01*
X0101405Y0343339D01*
X0101856Y0343790D01*
X0101019Y0345810D01*
X0101019Y0348190D01*
X0101929Y0350388D01*
X0103612Y0352071D01*
X0105810Y0352981D01*
X0108190Y0352981D01*
X0110388Y0352071D01*
X0111281Y0351178D01*
X0111019Y0351810D01*
X0111019Y0354190D01*
X0111929Y0356388D01*
X0113612Y0358071D01*
X0115810Y0358981D01*
X0118190Y0358981D01*
X0120388Y0358071D01*
X0121281Y0357178D01*
X0121019Y0357810D01*
X0121019Y0360190D01*
X0121929Y0362388D01*
X0123612Y0364071D01*
X0125810Y0364981D01*
X0128190Y0364981D01*
X0130388Y0364071D01*
X0132071Y0362388D01*
X0132200Y0362075D01*
X0132200Y0362816D01*
X0131405Y0363611D01*
X0130400Y0366037D01*
X0130400Y0373863D01*
X0131405Y0376289D01*
X0133261Y0378145D01*
X0135687Y0379150D01*
X0138313Y0379150D01*
X0140739Y0378145D01*
X0142000Y0376884D01*
X0143261Y0378145D01*
X0145687Y0379150D01*
X0146389Y0379150D01*
X0146389Y0381297D01*
X0147168Y0383178D01*
X0144493Y0383178D01*
X0142004Y0384209D01*
X0140840Y0385373D01*
X0139676Y0384209D01*
X0137187Y0383178D01*
X0134493Y0383178D01*
X0132004Y0384209D01*
X0130099Y0386114D01*
X0129068Y0388603D01*
X0129068Y0391297D01*
X0129602Y0392586D01*
X0130400Y0399464D01*
X0130400Y0403863D01*
X0131405Y0406289D01*
X0133261Y0408145D01*
X0135687Y0409150D01*
X0138313Y0409150D01*
X0140739Y0408145D01*
X0142000Y0406884D01*
X0143261Y0408145D01*
X0145687Y0409150D01*
X0148313Y0409150D01*
X0150739Y0408145D01*
X0152000Y0406884D01*
X0153261Y0408145D01*
X0155687Y0409150D01*
X0158313Y0409150D01*
X0160739Y0408145D01*
X0162000Y0406884D01*
X0163261Y0408145D01*
X0165687Y0409150D01*
X0168313Y0409150D01*
X0170739Y0408145D01*
X0172000Y0406884D01*
X0173261Y0408145D01*
X0175687Y0409150D01*
X0178313Y0409150D01*
X0180739Y0408145D01*
X0182000Y0406884D01*
X0183261Y0408145D01*
X0185687Y0409150D01*
X0188313Y0409150D01*
X0190739Y0408145D01*
X0192000Y0406884D01*
X0193261Y0408145D01*
X0195687Y0409150D01*
X0198313Y0409150D01*
X0200739Y0408145D01*
X0202000Y0406884D01*
X0203261Y0408145D01*
X0205687Y0409150D01*
X0208313Y0409150D01*
X0210739Y0408145D01*
X0212595Y0406289D01*
X0213600Y0403863D01*
X0213600Y0400505D01*
X0213606Y0400485D01*
X0213600Y0400436D01*
X0213600Y0396037D01*
X0212891Y0394326D01*
X0212555Y0391432D01*
X0212611Y0391297D01*
X0212611Y0388603D01*
X0211832Y0386722D01*
X0214507Y0386722D01*
X0216996Y0385691D01*
X0218160Y0384527D01*
X0219324Y0385691D01*
X0221813Y0386722D01*
X0222970Y0386722D01*
X0221711Y0390095D01*
X0221350Y0390966D01*
X0221350Y0391061D01*
X0221317Y0391151D01*
X0221350Y0392092D01*
X0221350Y0410397D01*
X0220392Y0410000D01*
X0119500Y0410000D01*
X0119500Y0378903D01*
X0119043Y0377801D01*
X0118199Y0376957D01*
X0117097Y0376500D01*
X0086000Y0376500D01*
X0086000Y0350608D01*
X0084934Y0348035D01*
X0082965Y0346066D01*
X0080392Y0345000D01*
X0061000Y0345000D01*
X0061000Y0342600D01*
X0075885Y0342600D01*
X0076520Y0342684D01*
X0076832Y0342600D01*
X0077155Y0342600D01*
X0077746Y0342355D01*
X0078364Y0342189D01*
X0078621Y0341993D01*
X0078919Y0341869D01*
X0079372Y0341417D01*
X0082200Y0339247D01*
X0082200Y0339817D01*
X0086183Y0343800D01*
X0089000Y0343800D01*
X0089000Y0337000D01*
X0089000Y0337000D01*
X0095800Y0337000D01*
X0095800Y0339817D01*
X0091817Y0343800D01*
X0089000Y0343800D01*
X0089000Y0337000D01*
X0089000Y0337000D01*
X0095800Y0337000D01*
X0095800Y0334183D01*
X0091817Y0330200D01*
X0089000Y0330200D01*
X0089000Y0337000D01*
X0089000Y0337000D01*
X0089000Y0330200D01*
X0086800Y0330200D01*
X0086800Y0313800D01*
X0091817Y0313800D01*
X0095800Y0309817D01*
X0095800Y0304183D01*
X0091817Y0300200D01*
X0091600Y0300200D01*
X0091600Y0230359D01*
X0092071Y0229888D01*
X0092981Y0227690D01*
X0092981Y0225310D01*
X0092071Y0223112D01*
X0091193Y0222235D01*
X0093038Y0221471D01*
X0094721Y0219788D01*
X0095631Y0217590D01*
X0095631Y0215210D01*
X0094787Y0213173D01*
X0095381Y0211740D01*
X0095381Y0209360D01*
X0094471Y0207162D01*
X0093740Y0206431D01*
X0093881Y0206090D01*
X0093881Y0203710D01*
X0092971Y0201512D01*
X0091310Y0199852D01*
X0102407Y0190131D01*
X0103140Y0190131D01*
X0105338Y0189221D01*
X0107021Y0187538D01*
X0107931Y0185340D01*
X0107931Y0182960D01*
X0107021Y0180762D01*
X0105338Y0179079D01*
X0103170Y0178182D01*
X0103581Y0177190D01*
X0103581Y0174810D01*
X0102671Y0172612D01*
X0100988Y0170929D01*
X0098790Y0170019D01*
X0096410Y0170019D01*
X0094575Y0170779D01*
X0092740Y0170019D01*
X0092691Y0170019D01*
X0093531Y0167990D01*
X0093531Y0165610D01*
X0092621Y0163412D01*
X0090938Y0161729D01*
X0088740Y0160819D01*
X0086360Y0160819D01*
X0084162Y0161729D01*
X0082479Y0163412D01*
X0081569Y0165610D01*
X0081569Y0167618D01*
X0077085Y0175526D01*
X0076112Y0175929D01*
X0074429Y0177612D01*
X0073519Y0179810D01*
X0073519Y0182190D01*
X0074372Y0184250D01*
X0073519Y0186310D01*
X0073519Y0188690D01*
X0074429Y0190888D01*
X0075409Y0191868D01*
X0075019Y0192810D01*
X0075019Y0195190D01*
X0075929Y0197388D01*
X0077336Y0198795D01*
X0077019Y0199560D01*
X0077019Y0201940D01*
X0077929Y0204138D01*
X0079612Y0205821D01*
X0080022Y0205990D01*
X0072781Y0213231D01*
X0072050Y0214995D01*
X0072050Y0230555D01*
X0072781Y0232319D01*
X0073000Y0232538D01*
X0073000Y0279462D01*
X0066262Y0286200D01*
X0061000Y0286200D01*
X0061000Y0279154D01*
X0060750Y0278550D01*
X0060750Y0275400D01*
X0041500Y0275400D01*
X0070450Y0275400D01*
X0070450Y0259800D01*
X0041500Y0259800D01*
X0060750Y0259800D01*
X0060750Y0262925D01*
X0061000Y0263529D01*
X0061000Y0271696D01*
X0060750Y0272300D01*
X0060750Y0275400D01*
X0041500Y0275400D01*
X0041500Y0275400D01*
X0041500Y0259800D02*
X0041500Y0259800D01*
X0060750Y0259800D01*
X0060750Y0256675D01*
X0061000Y0256071D01*
X0061000Y0247904D01*
X0060750Y0247300D01*
X0060750Y0244200D01*
X0041500Y0244200D01*
X0070450Y0243850D01*
X0070450Y0228550D01*
X0041500Y0228600D01*
X0060750Y0228600D01*
X0060750Y0231675D01*
X0061000Y0232279D01*
X0061000Y0240446D01*
X0060750Y0241050D01*
X0060750Y0244200D01*
X0041500Y0244200D01*
X0041500Y0244200D01*
X0041500Y0228600D02*
X0041500Y0228600D01*
X0060750Y0228600D01*
X0060750Y0225425D01*
X0061000Y0224821D01*
X0061000Y0216654D01*
X0060750Y0216050D01*
X0060750Y0215500D01*
X0065392Y0215500D01*
X0067965Y0214434D01*
X0069934Y0212465D01*
X0071000Y0209892D01*
X0071000Y0200508D01*
X0069934Y0197935D01*
X0067965Y0195966D01*
X0065392Y0194900D01*
X0060750Y0194900D01*
X0060750Y0194175D01*
X0061000Y0193571D01*
X0061000Y0185404D01*
X0060750Y0184800D01*
X0060750Y0181800D01*
X0041500Y0181800D01*
X0041500Y0181800D01*
X0060750Y0181800D01*
X0060750Y0178550D01*
X0061000Y0177946D01*
X0061000Y0169779D01*
X0060750Y0169175D01*
X0060750Y0166200D01*
X0041500Y0166200D01*
X0070450Y0166200D01*
X0070450Y0182050D01*
X0041750Y0182000D01*
X0041650Y0196850D02*
X0070450Y0196900D01*
X0070450Y0182050D01*
X0073519Y0179961D02*
X0060750Y0179961D01*
X0061000Y0173963D02*
X0077972Y0173963D01*
X0081372Y0167964D02*
X0060750Y0167964D01*
X0060750Y0166200D02*
X0041500Y0166200D01*
X0041500Y0166200D01*
X0060750Y0166200D02*
X0060750Y0162925D01*
X0061000Y0162321D01*
X0061000Y0159000D01*
X0080392Y0159000D01*
X0082965Y0157934D01*
X0084934Y0155965D01*
X0086000Y0153392D01*
X0086000Y0119500D01*
X0117097Y0119500D01*
X0118199Y0119043D01*
X0119043Y0118199D01*
X0119500Y0117097D01*
X0119500Y0113978D02*
X0130556Y0113978D01*
X0132333Y0112200D02*
X0128350Y0116183D01*
X0128350Y0119000D01*
X0135150Y0119000D01*
X0141950Y0119000D01*
X0141950Y0121817D01*
X0137967Y0125800D01*
X0135150Y0125800D01*
X0135150Y0119000D01*
X0135150Y0119000D01*
X0135150Y0119000D01*
X0141950Y0119000D01*
X0141950Y0116183D01*
X0137967Y0112200D01*
X0135150Y0112200D01*
X0135150Y0119000D01*
X0135150Y0119000D01*
X0135150Y0119000D01*
X0135150Y0125800D01*
X0132333Y0125800D01*
X0128350Y0121817D01*
X0128350Y0119000D01*
X0135150Y0119000D01*
X0135150Y0112200D01*
X0132333Y0112200D01*
X0135150Y0113978D02*
X0135150Y0113978D01*
X0139744Y0113978D02*
X0147200Y0113978D01*
X0147200Y0119976D02*
X0141950Y0119976D01*
X0135150Y0119976D02*
X0135150Y0119976D01*
X0128350Y0119976D02*
X0086000Y0119976D01*
X0086000Y0125975D02*
X0147200Y0125975D01*
X0147200Y0131973D02*
X0086000Y0131973D01*
X0086000Y0137972D02*
X0147200Y0137972D01*
X0147200Y0143970D02*
X0086000Y0143970D01*
X0086000Y0149969D02*
X0117293Y0149969D01*
X0114650Y0155967D02*
X0084932Y0155967D01*
X0083926Y0161966D02*
X0061000Y0161966D01*
X0061000Y0185960D02*
X0073664Y0185960D01*
X0075372Y0191958D02*
X0061000Y0191958D01*
X0070450Y0196900D02*
X0070450Y0212850D01*
X0041500Y0213000D01*
X0060750Y0215952D02*
X0072050Y0215952D01*
X0070450Y0212850D02*
X0070450Y0228550D01*
X0072050Y0227949D02*
X0060750Y0227949D01*
X0061000Y0221951D02*
X0072050Y0221951D01*
X0073000Y0233948D02*
X0061000Y0233948D01*
X0061000Y0239946D02*
X0073000Y0239946D01*
X0070450Y0243850D02*
X0070450Y0259800D01*
X0073000Y0257942D02*
X0060750Y0257942D01*
X0061000Y0263940D02*
X0073000Y0263940D01*
X0073000Y0269939D02*
X0061000Y0269939D01*
X0060750Y0275937D02*
X0073000Y0275937D01*
X0070526Y0281936D02*
X0061000Y0281936D01*
X0091600Y0281936D02*
X0097200Y0281936D01*
X0097200Y0287934D02*
X0091600Y0287934D01*
X0091600Y0293933D02*
X0097200Y0293933D01*
X0097200Y0299932D02*
X0091600Y0299932D01*
X0095800Y0305930D02*
X0097200Y0305930D01*
X0097200Y0311929D02*
X0093688Y0311929D01*
X0097200Y0317927D02*
X0086800Y0317927D01*
X0086800Y0323926D02*
X0097200Y0323926D01*
X0096019Y0329924D02*
X0086800Y0329924D01*
X0089000Y0335923D02*
X0089000Y0335923D01*
X0089000Y0341921D02*
X0089000Y0341921D01*
X0093696Y0341921D02*
X0100818Y0341921D01*
X0101019Y0347920D02*
X0084819Y0347920D01*
X0084304Y0341921D02*
X0078794Y0341921D01*
X0086000Y0353918D02*
X0111019Y0353918D01*
X0121019Y0359917D02*
X0086000Y0359917D01*
X0086000Y0365915D02*
X0130451Y0365915D01*
X0130400Y0371914D02*
X0086000Y0371914D01*
X0119089Y0377912D02*
X0133028Y0377912D01*
X0132725Y0383911D02*
X0119500Y0383911D01*
X0119500Y0389909D02*
X0129068Y0389909D01*
X0129987Y0395908D02*
X0119500Y0395908D01*
X0119500Y0401906D02*
X0130400Y0401906D01*
X0133021Y0407905D02*
X0119500Y0407905D01*
X0140979Y0407905D02*
X0143021Y0407905D01*
X0150979Y0407905D02*
X0153021Y0407905D01*
X0160979Y0407905D02*
X0163021Y0407905D01*
X0170979Y0407905D02*
X0173021Y0407905D01*
X0180979Y0407905D02*
X0183021Y0407905D01*
X0190979Y0407905D02*
X0193021Y0407905D01*
X0200979Y0407905D02*
X0203021Y0407905D01*
X0210979Y0407905D02*
X0221350Y0407905D01*
X0221350Y0401906D02*
X0213600Y0401906D01*
X0213546Y0395908D02*
X0221350Y0395908D01*
X0221780Y0389909D02*
X0212611Y0389909D01*
X0231750Y0392939D02*
X0234039Y0386805D01*
X0234400Y0385934D01*
X0234400Y0385839D01*
X0234433Y0385749D01*
X0234400Y0384808D01*
X0234400Y0375462D01*
X0234478Y0375200D01*
X0234400Y0374435D01*
X0234400Y0373666D01*
X0234296Y0373414D01*
X0234268Y0373142D01*
X0233903Y0372465D01*
X0233608Y0371754D01*
X0233415Y0371562D01*
X0233286Y0371321D01*
X0232689Y0370836D01*
X0232146Y0370292D01*
X0231893Y0370187D01*
X0220001Y0360501D01*
X0220739Y0360195D01*
X0222000Y0358934D01*
X0223261Y0360195D01*
X0225687Y0361200D01*
X0228313Y0361200D01*
X0230739Y0360195D01*
X0232000Y0358934D01*
X0233261Y0360195D01*
X0235687Y0361200D01*
X0238313Y0361200D01*
X0240739Y0360195D01*
X0242000Y0358934D01*
X0243261Y0360195D01*
X0245687Y0361200D01*
X0247200Y0361200D01*
X0247200Y0376588D01*
X0247195Y0377530D01*
X0247200Y0377542D01*
X0247200Y0377555D01*
X0247522Y0378333D01*
X0247139Y0378627D01*
X0246527Y0379239D01*
X0246001Y0379925D01*
X0245568Y0380675D01*
X0245237Y0381474D01*
X0245013Y0382310D01*
X0244900Y0383167D01*
X0244900Y0386200D01*
X0251500Y0386200D01*
X0251500Y0420850D01*
X0244000Y0429300D01*
X0244000Y0429300D01*
X0244000Y0435900D01*
X0246734Y0435900D01*
X0250600Y0432034D01*
X0250600Y0429300D01*
X0244000Y0429300D01*
X0244000Y0429300D01*
X0244000Y0435900D01*
X0241266Y0435900D01*
X0239000Y0433634D01*
X0237998Y0434635D01*
X0284572Y0477300D01*
X0392012Y0477300D01*
X0380693Y0465981D01*
X0380310Y0465981D01*
X0378112Y0465071D01*
X0376429Y0463388D01*
X0375519Y0461190D01*
X0375519Y0460500D01*
X0278274Y0460500D01*
X0277518Y0460580D01*
X0277248Y0460500D01*
X0276966Y0460500D01*
X0276263Y0460209D01*
X0275534Y0459994D01*
X0275315Y0459816D01*
X0275054Y0459708D01*
X0274517Y0459171D01*
X0263815Y0450516D01*
X0263554Y0450408D01*
X0263017Y0449871D01*
X0262426Y0449393D01*
X0262291Y0449145D01*
X0262092Y0448946D01*
X0261801Y0448243D01*
X0261438Y0447576D01*
X0261408Y0447295D01*
X0261300Y0447034D01*
X0261300Y0446274D01*
X0261220Y0445518D01*
X0261300Y0445248D01*
X0261300Y0415400D01*
X0260187Y0415400D01*
X0257761Y0414395D01*
X0256496Y0413130D01*
X0256473Y0413161D01*
X0255861Y0413773D01*
X0255175Y0414299D01*
X0254425Y0414732D01*
X0253626Y0415063D01*
X0252790Y0415287D01*
X0251933Y0415400D01*
X0251500Y0415400D01*
X0251500Y0406200D01*
X0251500Y0406200D01*
X0251500Y0397000D01*
X0251933Y0397000D01*
X0252790Y0397113D01*
X0253626Y0397337D01*
X0254425Y0397668D01*
X0255175Y0398101D01*
X0255861Y0398627D01*
X0256473Y0399239D01*
X0256496Y0399270D01*
X0256700Y0399066D01*
X0256700Y0397009D01*
X0256678Y0396113D01*
X0256700Y0396056D01*
X0256700Y0395995D01*
X0257043Y0395167D01*
X0257366Y0394331D01*
X0257408Y0394287D01*
X0257431Y0394231D01*
X0257514Y0394148D01*
X0256496Y0393130D01*
X0256473Y0393161D01*
X0255861Y0393773D01*
X0255175Y0394299D01*
X0254425Y0394732D01*
X0253626Y0395063D01*
X0252790Y0395287D01*
X0251933Y0395400D01*
X0251500Y0395400D01*
X0251500Y0386200D01*
X0251500Y0386200D01*
X0251500Y0386200D01*
X0251500Y0395400D01*
X0251067Y0395400D01*
X0250210Y0395287D01*
X0249374Y0395063D01*
X0248575Y0394732D01*
X0247825Y0394299D01*
X0247139Y0393773D01*
X0246527Y0393161D01*
X0246001Y0392475D01*
X0245568Y0391725D01*
X0245237Y0390926D01*
X0245013Y0390090D01*
X0244900Y0389233D01*
X0244900Y0386200D01*
X0251500Y0386200D01*
X0251500Y0389909D02*
X0251500Y0389909D01*
X0244989Y0389909D02*
X0232881Y0389909D01*
X0231750Y0392939D02*
X0231750Y0422700D01*
X0232400Y0422700D01*
X0232400Y0419066D01*
X0236266Y0415200D01*
X0241734Y0415200D01*
X0245600Y0419066D01*
X0245600Y0422700D01*
X0246734Y0422700D01*
X0250600Y0426566D01*
X0250600Y0429300D01*
X0244000Y0429300D01*
X0244000Y0431899D02*
X0244000Y0431899D01*
X0241559Y0437897D02*
X0261300Y0437897D01*
X0261300Y0431899D02*
X0250600Y0431899D01*
X0249934Y0425900D02*
X0261300Y0425900D01*
X0261300Y0419902D02*
X0245600Y0419902D01*
X0248575Y0414732D02*
X0247825Y0414299D01*
X0247139Y0413773D01*
X0246527Y0413161D01*
X0246001Y0412475D01*
X0245568Y0411725D01*
X0245237Y0410926D01*
X0245013Y0410090D01*
X0244900Y0409233D01*
X0244900Y0406200D01*
X0251500Y0406200D01*
X0251500Y0406200D01*
X0251500Y0406200D01*
X0251500Y0415400D01*
X0251067Y0415400D01*
X0250210Y0415287D01*
X0249374Y0415063D01*
X0248575Y0414732D01*
X0247309Y0413903D02*
X0231750Y0413903D01*
X0231750Y0407905D02*
X0244900Y0407905D01*
X0244900Y0406200D02*
X0244900Y0403167D01*
X0245013Y0402310D01*
X0245237Y0401474D01*
X0245568Y0400675D01*
X0246001Y0399925D01*
X0246527Y0399239D01*
X0247139Y0398627D01*
X0247825Y0398101D01*
X0248575Y0397668D01*
X0249374Y0397337D01*
X0250210Y0397113D01*
X0251067Y0397000D01*
X0251500Y0397000D01*
X0251500Y0406200D01*
X0244900Y0406200D01*
X0245121Y0401906D02*
X0231750Y0401906D01*
X0231750Y0395908D02*
X0256736Y0395908D01*
X0251500Y0401906D02*
X0251500Y0401906D01*
X0251500Y0407905D02*
X0251500Y0407905D01*
X0251500Y0413903D02*
X0251500Y0413903D01*
X0255691Y0413903D02*
X0257269Y0413903D01*
X0232400Y0419902D02*
X0231750Y0419902D01*
X0226000Y0437748D02*
X0226000Y0505000D01*
X0242892Y0505000D01*
X0245465Y0506066D01*
X0247434Y0508035D01*
X0248500Y0510608D01*
X0248500Y0530000D01*
X0249646Y0530000D01*
X0250250Y0530250D01*
X0251500Y0530250D01*
X0252750Y0530250D01*
X0253354Y0530000D01*
X0255000Y0530000D01*
X0255000Y0524957D01*
X0255990Y0522568D01*
X0257818Y0520740D01*
X0260207Y0519750D01*
X0262793Y0519750D01*
X0265182Y0520740D01*
X0266475Y0522033D01*
X0267818Y0520690D01*
X0270207Y0519700D01*
X0272793Y0519700D01*
X0275182Y0520690D01*
X0276500Y0522008D01*
X0277818Y0520690D01*
X0280207Y0519700D01*
X0282793Y0519700D01*
X0285182Y0520690D01*
X0286475Y0521983D01*
X0287818Y0520640D01*
X0290207Y0519650D01*
X0292793Y0519650D01*
X0295182Y0520640D01*
X0296525Y0521983D01*
X0297818Y0520690D01*
X0300207Y0519700D01*
X0302793Y0519700D01*
X0305182Y0520690D01*
X0306500Y0522008D01*
X0307818Y0520690D01*
X0310207Y0519700D01*
X0312793Y0519700D01*
X0315182Y0520690D01*
X0316500Y0522008D01*
X0317818Y0520690D01*
X0320207Y0519700D01*
X0322793Y0519700D01*
X0325182Y0520690D01*
X0326500Y0522008D01*
X0327818Y0520690D01*
X0330207Y0519700D01*
X0332793Y0519700D01*
X0335182Y0520690D01*
X0336525Y0522033D01*
X0337818Y0520740D01*
X0340207Y0519750D01*
X0342793Y0519750D01*
X0345182Y0520740D01*
X0346475Y0522033D01*
X0347818Y0520690D01*
X0350207Y0519700D01*
X0352793Y0519700D01*
X0355182Y0520690D01*
X0356525Y0522033D01*
X0357818Y0520740D01*
X0360207Y0519750D01*
X0362793Y0519750D01*
X0365182Y0520740D01*
X0366475Y0522033D01*
X0367818Y0520690D01*
X0370207Y0519700D01*
X0372793Y0519700D01*
X0375182Y0520690D01*
X0376500Y0522008D01*
X0377818Y0520690D01*
X0380207Y0519700D01*
X0382793Y0519700D01*
X0385182Y0520690D01*
X0386500Y0522008D01*
X0387818Y0520690D01*
X0390207Y0519700D01*
X0392793Y0519700D01*
X0395182Y0520690D01*
X0396525Y0522033D01*
X0397818Y0520740D01*
X0400207Y0519750D01*
X0402793Y0519750D01*
X0405182Y0520740D01*
X0406500Y0522058D01*
X0407818Y0520740D01*
X0410207Y0519750D01*
X0412793Y0519750D01*
X0415182Y0520740D01*
X0416525Y0522083D01*
X0417818Y0520790D01*
X0420207Y0519800D01*
X0422793Y0519800D01*
X0425182Y0520790D01*
X0426475Y0522083D01*
X0427818Y0520740D01*
X0430207Y0519750D01*
X0432793Y0519750D01*
X0435000Y0520664D01*
X0435000Y0499707D01*
X0435990Y0497318D01*
X0437818Y0495490D01*
X0440207Y0494500D01*
X0442793Y0494500D01*
X0445182Y0495490D01*
X0446500Y0496808D01*
X0447818Y0495490D01*
X0450207Y0494500D01*
X0452793Y0494500D01*
X0455182Y0495490D01*
X0457010Y0497318D01*
X0458000Y0499707D01*
X0458000Y0530000D01*
X0459646Y0530000D01*
X0460250Y0530250D01*
X0461500Y0530250D01*
X0462750Y0530250D01*
X0463354Y0530000D01*
X0464500Y0530000D01*
X0464500Y0510608D01*
X0465566Y0508035D01*
X0467535Y0506066D01*
X0470108Y0505000D01*
X0487000Y0505000D01*
X0487000Y0482807D01*
X0484671Y0484812D01*
X0484408Y0485446D01*
X0482946Y0486908D01*
X0481034Y0487700D01*
X0282664Y0487700D01*
X0281744Y0487740D01*
X0281633Y0487700D01*
X0281516Y0487700D01*
X0280665Y0487348D01*
X0279800Y0487033D01*
X0279713Y0486953D01*
X0279604Y0486908D01*
X0278953Y0486257D01*
X0226000Y0437748D01*
X0226000Y0437897D02*
X0226163Y0437897D01*
X0226000Y0443896D02*
X0232711Y0443896D01*
X0239259Y0449894D02*
X0226000Y0449894D01*
X0226000Y0455893D02*
X0245807Y0455893D01*
X0252355Y0461891D02*
X0226000Y0461891D01*
X0226000Y0467890D02*
X0258903Y0467890D01*
X0265451Y0473888D02*
X0226000Y0473888D01*
X0226000Y0479887D02*
X0271999Y0479887D01*
X0278547Y0485885D02*
X0226000Y0485885D01*
X0226000Y0491884D02*
X0487000Y0491884D01*
X0487000Y0497882D02*
X0457244Y0497882D01*
X0461500Y0494000D02*
X0461500Y0519700D01*
X0464500Y0521876D02*
X0458000Y0521876D01*
X0458000Y0515878D02*
X0464500Y0515878D01*
X0464802Y0509879D02*
X0458000Y0509879D01*
X0458000Y0503881D02*
X0487000Y0503881D01*
X0487000Y0485885D02*
X0483969Y0485885D01*
X0461500Y0494000D02*
X0434000Y0494000D01*
X0394000Y0519000D01*
X0251500Y0519000D01*
X0248500Y0521876D02*
X0256681Y0521876D01*
X0255000Y0527875D02*
X0248500Y0527875D01*
X0251500Y0530250D02*
X0251500Y0531154D01*
X0251500Y0531154D01*
X0251500Y0531154D01*
X0251500Y0530250D01*
X0248500Y0515878D02*
X0435000Y0515878D01*
X0435000Y0509879D02*
X0248198Y0509879D01*
X0266319Y0521876D02*
X0266631Y0521876D01*
X0276369Y0521876D02*
X0276631Y0521876D01*
X0286369Y0521876D02*
X0286581Y0521876D01*
X0296419Y0521876D02*
X0296631Y0521876D01*
X0306369Y0521876D02*
X0306631Y0521876D01*
X0316369Y0521876D02*
X0316631Y0521876D01*
X0326369Y0521876D02*
X0326631Y0521876D01*
X0336369Y0521876D02*
X0336681Y0521876D01*
X0346319Y0521876D02*
X0346631Y0521876D01*
X0356369Y0521876D02*
X0356681Y0521876D01*
X0366319Y0521876D02*
X0366631Y0521876D01*
X0376369Y0521876D02*
X0376631Y0521876D01*
X0386369Y0521876D02*
X0386631Y0521876D01*
X0396369Y0521876D02*
X0396681Y0521876D01*
X0406319Y0521876D02*
X0406681Y0521876D01*
X0416319Y0521876D02*
X0416731Y0521876D01*
X0426269Y0521876D02*
X0426681Y0521876D01*
X0435000Y0503881D02*
X0226000Y0503881D01*
X0226000Y0497882D02*
X0435756Y0497882D01*
X0458000Y0527875D02*
X0464500Y0527875D01*
X0461500Y0530250D02*
X0461500Y0531154D01*
X0461500Y0531154D01*
X0461500Y0531154D01*
X0461500Y0530250D01*
X0451500Y0463000D02*
X0451500Y0457000D01*
X0441500Y0457000D02*
X0441500Y0463000D01*
X0441500Y0442000D02*
X0441500Y0436000D01*
X0451500Y0436000D02*
X0451500Y0442000D01*
X0461500Y0442000D02*
X0461500Y0436000D01*
X0461500Y0406200D02*
X0461500Y0397000D01*
X0461700Y0397000D01*
X0461700Y0395400D01*
X0461500Y0395400D01*
X0461500Y0386200D01*
X0461500Y0386200D01*
X0461500Y0395400D01*
X0461300Y0395400D01*
X0461300Y0397000D01*
X0461500Y0397000D01*
X0461500Y0406200D01*
X0461500Y0406200D01*
X0461500Y0401906D02*
X0461500Y0401906D01*
X0461300Y0395908D02*
X0461700Y0395908D01*
X0461500Y0389909D02*
X0461500Y0389909D01*
X0460379Y0377091D02*
X0460681Y0377051D01*
X0457557Y0365975D01*
X0457300Y0365355D01*
X0457300Y0365064D01*
X0457221Y0364784D01*
X0457300Y0364117D01*
X0457300Y0355565D01*
X0457033Y0355600D01*
X0454000Y0355600D01*
X0454000Y0349000D01*
X0454000Y0349000D01*
X0454000Y0355600D01*
X0450967Y0355600D01*
X0450110Y0355487D01*
X0449274Y0355263D01*
X0448500Y0354943D01*
X0448500Y0360793D01*
X0460163Y0376875D01*
X0460379Y0377091D01*
X0459232Y0371914D02*
X0456565Y0371914D01*
X0457532Y0365915D02*
X0452215Y0365915D01*
X0448500Y0359917D02*
X0457300Y0359917D01*
X0454000Y0353918D02*
X0454000Y0353918D01*
X0444800Y0338019D02*
X0444800Y0337687D01*
X0445805Y0335261D01*
X0447066Y0334000D01*
X0445805Y0332739D01*
X0444800Y0330313D01*
X0444800Y0327687D01*
X0445805Y0325261D01*
X0447066Y0324000D01*
X0445805Y0322739D01*
X0444800Y0320313D01*
X0444800Y0317687D01*
X0445805Y0315261D01*
X0447066Y0314000D01*
X0445805Y0312739D01*
X0444800Y0310313D01*
X0444800Y0307687D01*
X0445805Y0305261D01*
X0447066Y0304000D01*
X0445805Y0302739D01*
X0444800Y0300313D01*
X0444800Y0297687D01*
X0445805Y0295261D01*
X0447066Y0294000D01*
X0445805Y0292739D01*
X0444800Y0290313D01*
X0444800Y0287687D01*
X0445805Y0285261D01*
X0447066Y0284000D01*
X0445805Y0282739D01*
X0444800Y0280313D01*
X0444800Y0277687D01*
X0445805Y0275261D01*
X0447066Y0274000D01*
X0445805Y0272739D01*
X0444800Y0270313D01*
X0444800Y0267687D01*
X0445805Y0265261D01*
X0447066Y0264000D01*
X0445805Y0262739D01*
X0444800Y0260313D01*
X0444800Y0257687D01*
X0445805Y0255261D01*
X0447066Y0254000D01*
X0445805Y0252739D01*
X0444800Y0250313D01*
X0444800Y0247687D01*
X0445805Y0245261D01*
X0447066Y0244000D01*
X0445805Y0242739D01*
X0444800Y0240313D01*
X0444800Y0237687D01*
X0445805Y0235261D01*
X0447070Y0233996D01*
X0447039Y0233973D01*
X0446427Y0233361D01*
X0445901Y0232675D01*
X0445468Y0231925D01*
X0445137Y0231126D01*
X0444913Y0230290D01*
X0444800Y0229433D01*
X0444800Y0229000D01*
X0454000Y0229000D01*
X0454000Y0229000D01*
X0444800Y0229000D01*
X0444800Y0228567D01*
X0444913Y0227710D01*
X0445137Y0226874D01*
X0445468Y0226075D01*
X0445901Y0225325D01*
X0446427Y0224639D01*
X0447039Y0224027D01*
X0447070Y0224004D01*
X0445805Y0222739D01*
X0444800Y0220313D01*
X0444800Y0217687D01*
X0445805Y0215261D01*
X0447661Y0213405D01*
X0450087Y0212400D01*
X0456012Y0212400D01*
X0441581Y0197969D01*
X0440850Y0196205D01*
X0440850Y0153214D01*
X0440835Y0153176D01*
X0440850Y0152261D01*
X0440850Y0151345D01*
X0440866Y0151308D01*
X0440866Y0151267D01*
X0441230Y0150427D01*
X0441581Y0149581D01*
X0441610Y0149552D01*
X0441626Y0149515D01*
X0442284Y0148878D01*
X0442931Y0148231D01*
X0442969Y0148215D01*
X0442998Y0148187D01*
X0443850Y0147850D01*
X0444695Y0147500D01*
X0444736Y0147500D01*
X0444905Y0147433D01*
X0445805Y0145261D01*
X0447066Y0144000D01*
X0445805Y0142739D01*
X0444800Y0140313D01*
X0444800Y0137687D01*
X0445805Y0135261D01*
X0447066Y0134000D01*
X0445805Y0132739D01*
X0444800Y0130313D01*
X0444800Y0127687D01*
X0445122Y0126910D01*
X0426206Y0107994D01*
X0427303Y0112400D01*
X0427913Y0112400D01*
X0430339Y0113405D01*
X0432195Y0115261D01*
X0433200Y0117687D01*
X0433200Y0120313D01*
X0432195Y0122739D01*
X0431290Y0123643D01*
X0433160Y0122869D01*
X0435540Y0122869D01*
X0437738Y0123779D01*
X0439421Y0125462D01*
X0440331Y0127660D01*
X0440331Y0130040D01*
X0439421Y0132238D01*
X0438927Y0132732D01*
X0437264Y0160556D01*
X0437321Y0160612D01*
X0438231Y0162810D01*
X0438231Y0165190D01*
X0437321Y0167388D01*
X0435923Y0168785D01*
X0436219Y0169081D01*
X0437569Y0170431D01*
X0438300Y0172195D01*
X0438300Y0185255D01*
X0437569Y0187019D01*
X0434650Y0189938D01*
X0434650Y0193719D01*
X0436990Y0193719D01*
X0439188Y0194629D01*
X0440871Y0196312D01*
X0441781Y0198510D01*
X0441781Y0200890D01*
X0440871Y0203088D01*
X0440600Y0203359D01*
X0440600Y0270641D01*
X0440871Y0270912D01*
X0441781Y0273110D01*
X0441781Y0275490D01*
X0440871Y0277688D01*
X0439188Y0279371D01*
X0436990Y0280281D01*
X0435550Y0280281D01*
X0435550Y0319738D01*
X0442628Y0329090D01*
X0443069Y0329531D01*
X0443199Y0329844D01*
X0443404Y0330114D01*
X0443561Y0330719D01*
X0443800Y0331295D01*
X0443800Y0331634D01*
X0443886Y0331962D01*
X0443800Y0332581D01*
X0443800Y0338019D01*
X0444800Y0338019D01*
X0445531Y0335923D02*
X0443800Y0335923D01*
X0443259Y0329924D02*
X0444800Y0329924D01*
X0446992Y0323926D02*
X0438719Y0323926D01*
X0435550Y0317927D02*
X0444800Y0317927D01*
X0445469Y0311929D02*
X0435550Y0311929D01*
X0435550Y0305930D02*
X0445528Y0305930D01*
X0444800Y0299932D02*
X0435550Y0299932D01*
X0435550Y0293933D02*
X0446999Y0293933D01*
X0444800Y0287934D02*
X0435550Y0287934D01*
X0435550Y0281936D02*
X0445472Y0281936D01*
X0445525Y0275937D02*
X0441596Y0275937D01*
X0440600Y0269939D02*
X0444800Y0269939D01*
X0447007Y0263940D02*
X0440600Y0263940D01*
X0440600Y0257942D02*
X0444800Y0257942D01*
X0445475Y0251943D02*
X0440600Y0251943D01*
X0440600Y0245945D02*
X0445522Y0245945D01*
X0444800Y0239946D02*
X0440600Y0239946D01*
X0440600Y0233948D02*
X0447014Y0233948D01*
X0444881Y0227949D02*
X0440600Y0227949D01*
X0440600Y0221951D02*
X0445479Y0221951D01*
X0445519Y0215952D02*
X0440600Y0215952D01*
X0440600Y0209954D02*
X0453566Y0209954D01*
X0447567Y0203955D02*
X0440600Y0203955D01*
X0441552Y0197957D02*
X0441576Y0197957D01*
X0440850Y0191958D02*
X0434650Y0191958D01*
X0438008Y0185960D02*
X0440850Y0185960D01*
X0440850Y0179961D02*
X0438300Y0179961D01*
X0438300Y0173963D02*
X0440850Y0173963D01*
X0440850Y0167964D02*
X0436744Y0167964D01*
X0437881Y0161966D02*
X0440850Y0161966D01*
X0440850Y0155967D02*
X0437538Y0155967D01*
X0437897Y0149969D02*
X0441420Y0149969D01*
X0438255Y0143970D02*
X0447036Y0143970D01*
X0444800Y0137972D02*
X0438614Y0137972D01*
X0439530Y0131973D02*
X0445488Y0131973D01*
X0444186Y0125975D02*
X0439633Y0125975D01*
X0438188Y0119976D02*
X0433200Y0119976D01*
X0432189Y0113978D02*
X0430911Y0113978D01*
X0472200Y0114000D02*
X0472200Y0147650D01*
X0467000Y0152150D01*
X0467000Y0164000D01*
X0467000Y0182900D01*
X0475600Y0192350D01*
X0488350Y0219650D01*
X0488350Y0321800D01*
X0494500Y0328350D01*
X0494500Y0355250D01*
X0489498Y0370075D01*
X0514650Y0378150D01*
X0524500Y0401650D01*
X0484000Y0385700D02*
X0489498Y0370075D01*
X0520850Y0349265D02*
X0525269Y0351445D01*
X0525137Y0351126D01*
X0524913Y0350290D01*
X0524800Y0349433D01*
X0524800Y0349000D01*
X0534000Y0349000D01*
X0522000Y0345000D01*
X0522000Y0200000D01*
X0511500Y0187250D01*
X0511500Y0179000D01*
X0511500Y0179000D01*
X0511500Y0185600D01*
X0514526Y0185600D01*
X0521213Y0197558D01*
X0521601Y0198323D01*
X0521677Y0198388D01*
X0521727Y0198476D01*
X0522400Y0199008D01*
X0538129Y0212489D01*
X0537913Y0212400D01*
X0530087Y0212400D01*
X0527661Y0213405D01*
X0525805Y0215261D01*
X0524800Y0217687D01*
X0524800Y0220313D01*
X0525805Y0222739D01*
X0527070Y0224004D01*
X0527039Y0224027D01*
X0526427Y0224639D01*
X0525901Y0225325D01*
X0525468Y0226075D01*
X0525137Y0226874D01*
X0524913Y0227710D01*
X0524800Y0228567D01*
X0524800Y0229000D01*
X0534000Y0229000D01*
X0534000Y0229000D01*
X0524800Y0229000D01*
X0524800Y0229433D01*
X0524913Y0230290D01*
X0525137Y0231126D01*
X0525468Y0231925D01*
X0525901Y0232675D01*
X0526427Y0233361D01*
X0527039Y0233973D01*
X0527070Y0233996D01*
X0525805Y0235261D01*
X0524800Y0237687D01*
X0524800Y0240313D01*
X0525805Y0242739D01*
X0527066Y0244000D01*
X0525805Y0245261D01*
X0524800Y0247687D01*
X0524800Y0250313D01*
X0525805Y0252739D01*
X0527066Y0254000D01*
X0525805Y0255261D01*
X0524800Y0257687D01*
X0524800Y0260313D01*
X0525805Y0262739D01*
X0527066Y0264000D01*
X0525805Y0265261D01*
X0524800Y0267687D01*
X0524800Y0270313D01*
X0525805Y0272739D01*
X0527066Y0274000D01*
X0525805Y0275261D01*
X0524800Y0277687D01*
X0524800Y0280313D01*
X0525805Y0282739D01*
X0527066Y0284000D01*
X0525805Y0285261D01*
X0524800Y0287687D01*
X0524800Y0290313D01*
X0525805Y0292739D01*
X0527066Y0294000D01*
X0525805Y0295261D01*
X0524800Y0297687D01*
X0524800Y0300313D01*
X0525805Y0302739D01*
X0527066Y0304000D01*
X0525805Y0305261D01*
X0524800Y0307687D01*
X0524800Y0310313D01*
X0525805Y0312739D01*
X0527066Y0314000D01*
X0525805Y0315261D01*
X0524800Y0317687D01*
X0524800Y0320313D01*
X0525805Y0322739D01*
X0527066Y0324000D01*
X0525805Y0325261D01*
X0524800Y0327687D01*
X0524800Y0330313D01*
X0525805Y0332739D01*
X0527066Y0334000D01*
X0525805Y0335261D01*
X0524800Y0337687D01*
X0524800Y0340313D01*
X0525805Y0342739D01*
X0527070Y0344004D01*
X0527039Y0344027D01*
X0526427Y0344639D01*
X0525901Y0345325D01*
X0525468Y0346075D01*
X0525137Y0346874D01*
X0524913Y0347710D01*
X0524800Y0348567D01*
X0524800Y0349000D01*
X0534000Y0349000D01*
X0534000Y0349000D01*
X0534000Y0355600D01*
X0535176Y0355600D01*
X0534950Y0356145D01*
X0534950Y0356220D01*
X0533693Y0355600D01*
X0534000Y0355600D01*
X0534000Y0349000D01*
X0534000Y0349000D01*
X0534000Y0353918D02*
X0534000Y0353918D01*
X0524885Y0347920D02*
X0520850Y0347920D01*
X0520850Y0349265D02*
X0520850Y0203093D01*
X0520911Y0202334D01*
X0520850Y0202144D01*
X0520850Y0201945D01*
X0520559Y0201242D01*
X0520324Y0200517D01*
X0520195Y0200365D01*
X0520119Y0200181D01*
X0519581Y0199642D01*
X0512331Y0191122D01*
X0512331Y0190310D01*
X0511421Y0188112D01*
X0509738Y0186429D01*
X0507540Y0185519D01*
X0505160Y0185519D01*
X0504141Y0185941D01*
X0502650Y0182814D01*
X0502650Y0181158D01*
X0502968Y0181925D01*
X0503401Y0182675D01*
X0503927Y0183361D01*
X0504539Y0183973D01*
X0505225Y0184499D01*
X0505975Y0184932D01*
X0506774Y0185263D01*
X0507610Y0185487D01*
X0508467Y0185600D01*
X0511500Y0185600D01*
X0511500Y0179000D01*
X0511500Y0179961D02*
X0511500Y0179961D01*
X0508604Y0185960D02*
X0514728Y0185960D01*
X0513042Y0191958D02*
X0518082Y0191958D01*
X0518146Y0197957D02*
X0521416Y0197957D01*
X0520850Y0203955D02*
X0528172Y0203955D01*
X0535171Y0209954D02*
X0520850Y0209954D01*
X0520850Y0215952D02*
X0525519Y0215952D01*
X0525479Y0221951D02*
X0520850Y0221951D01*
X0520850Y0227949D02*
X0524881Y0227949D01*
X0527014Y0233948D02*
X0520850Y0233948D01*
X0520850Y0239946D02*
X0524800Y0239946D01*
X0525522Y0245945D02*
X0520850Y0245945D01*
X0520850Y0251943D02*
X0525475Y0251943D01*
X0524800Y0257942D02*
X0520850Y0257942D01*
X0520850Y0263940D02*
X0527007Y0263940D01*
X0524800Y0269939D02*
X0520850Y0269939D01*
X0520850Y0275937D02*
X0525525Y0275937D01*
X0525472Y0281936D02*
X0520850Y0281936D01*
X0520850Y0287934D02*
X0524800Y0287934D01*
X0526999Y0293933D02*
X0520850Y0293933D01*
X0520850Y0299932D02*
X0524800Y0299932D01*
X0525528Y0305930D02*
X0520850Y0305930D01*
X0520850Y0311929D02*
X0525469Y0311929D01*
X0524800Y0317927D02*
X0520850Y0317927D01*
X0520850Y0323926D02*
X0526992Y0323926D01*
X0524800Y0329924D02*
X0520850Y0329924D01*
X0520850Y0335923D02*
X0525531Y0335923D01*
X0525466Y0341921D02*
X0520850Y0341921D01*
X0567950Y0341921D02*
X0571900Y0341921D01*
X0571900Y0347377D02*
X0571900Y0232638D01*
X0562681Y0223419D01*
X0562297Y0222493D01*
X0562195Y0222739D01*
X0560930Y0224004D01*
X0560961Y0224027D01*
X0561573Y0224639D01*
X0562099Y0225325D01*
X0562532Y0226075D01*
X0562863Y0226874D01*
X0563087Y0227710D01*
X0563200Y0228567D01*
X0563200Y0229000D01*
X0563200Y0229433D01*
X0563087Y0230290D01*
X0562863Y0231126D01*
X0562532Y0231925D01*
X0562099Y0232675D01*
X0561573Y0233361D01*
X0560961Y0233973D01*
X0560930Y0233996D01*
X0562195Y0235261D01*
X0563200Y0237687D01*
X0563200Y0240313D01*
X0562195Y0242739D01*
X0560934Y0244000D01*
X0562195Y0245261D01*
X0563200Y0247687D01*
X0563200Y0250313D01*
X0562195Y0252739D01*
X0560934Y0254000D01*
X0562195Y0255261D01*
X0563200Y0257687D01*
X0563200Y0260313D01*
X0562195Y0262739D01*
X0560934Y0264000D01*
X0562195Y0265261D01*
X0563200Y0267687D01*
X0563200Y0268012D01*
X0567219Y0272031D01*
X0567950Y0273795D01*
X0567950Y0351488D01*
X0568041Y0352843D01*
X0571900Y0347377D01*
X0571517Y0347920D02*
X0567950Y0347920D01*
X0567950Y0335923D02*
X0571900Y0335923D01*
X0571900Y0329924D02*
X0567950Y0329924D01*
X0567950Y0323926D02*
X0571900Y0323926D01*
X0571900Y0317927D02*
X0567950Y0317927D01*
X0567950Y0311929D02*
X0571900Y0311929D01*
X0571900Y0305930D02*
X0567950Y0305930D01*
X0567950Y0299932D02*
X0571900Y0299932D01*
X0571900Y0293933D02*
X0567950Y0293933D01*
X0567950Y0287934D02*
X0571900Y0287934D01*
X0571900Y0281936D02*
X0567950Y0281936D01*
X0567950Y0275937D02*
X0571900Y0275937D01*
X0571900Y0269939D02*
X0565127Y0269939D01*
X0560993Y0263940D02*
X0571900Y0263940D01*
X0571900Y0257942D02*
X0563200Y0257942D01*
X0562525Y0251943D02*
X0571900Y0251943D01*
X0571900Y0245945D02*
X0562478Y0245945D01*
X0563200Y0239946D02*
X0571900Y0239946D01*
X0571900Y0233948D02*
X0560986Y0233948D01*
X0563200Y0229000D02*
X0554000Y0229000D01*
X0554000Y0229000D01*
X0563200Y0229000D01*
X0563119Y0227949D02*
X0567211Y0227949D01*
X0583900Y0214212D02*
X0594169Y0224481D01*
X0594900Y0226245D01*
X0594900Y0280341D01*
X0595171Y0280612D01*
X0596081Y0282810D01*
X0596081Y0285190D01*
X0595171Y0287388D01*
X0593559Y0289000D01*
X0595171Y0290612D01*
X0596081Y0292810D01*
X0596081Y0295190D01*
X0595171Y0297388D01*
X0593488Y0299071D01*
X0591290Y0299981D01*
X0588910Y0299981D01*
X0588200Y0299687D01*
X0588200Y0354472D01*
X0588228Y0355349D01*
X0588200Y0355424D01*
X0588200Y0355505D01*
X0587864Y0356315D01*
X0585523Y0362528D01*
X0585790Y0362563D01*
X0586626Y0362787D01*
X0587425Y0363118D01*
X0588175Y0363551D01*
X0588861Y0364077D01*
X0589473Y0364689D01*
X0589999Y0365375D01*
X0590432Y0366125D01*
X0590763Y0366924D01*
X0590987Y0367760D01*
X0591100Y0368617D01*
X0591100Y0371650D01*
X0591100Y0374683D01*
X0590987Y0375540D01*
X0590763Y0376376D01*
X0590672Y0376596D01*
X0590903Y0376500D01*
X0622000Y0376500D01*
X0622000Y0352804D01*
X0621573Y0353361D01*
X0620961Y0353973D01*
X0620275Y0354499D01*
X0619525Y0354932D01*
X0618726Y0355263D01*
X0617890Y0355487D01*
X0617033Y0355600D01*
X0614000Y0355600D01*
X0614000Y0349000D01*
X0598300Y0349000D01*
X0584500Y0371650D01*
X0591100Y0371650D01*
X0584500Y0371650D01*
X0584500Y0371650D01*
X0584500Y0371650D01*
X0584500Y0380850D01*
X0584933Y0380850D01*
X0585790Y0380737D01*
X0586626Y0380513D01*
X0587425Y0380182D01*
X0588175Y0379749D01*
X0588500Y0379500D01*
X0588500Y0393716D01*
X0588239Y0393455D01*
X0585813Y0392450D01*
X0583187Y0392450D01*
X0580761Y0393455D01*
X0579500Y0394716D01*
X0578239Y0393455D01*
X0575813Y0392450D01*
X0573187Y0392450D01*
X0570761Y0393455D01*
X0569500Y0394716D01*
X0568239Y0393455D01*
X0566741Y0392835D01*
X0581408Y0386205D01*
X0582219Y0385869D01*
X0582275Y0385813D01*
X0582347Y0385781D01*
X0582948Y0385140D01*
X0583569Y0384519D01*
X0583600Y0384446D01*
X0583654Y0384388D01*
X0583964Y0383566D01*
X0584300Y0382755D01*
X0584300Y0382676D01*
X0584328Y0382602D01*
X0584300Y0381724D01*
X0584300Y0380850D01*
X0584500Y0380850D01*
X0584500Y0371650D01*
X0584500Y0371914D02*
X0584500Y0371914D01*
X0584500Y0377912D02*
X0584500Y0377912D01*
X0583834Y0383911D02*
X0588500Y0383911D01*
X0588500Y0389909D02*
X0573213Y0389909D01*
X0591100Y0371914D02*
X0622000Y0371914D01*
X0622000Y0365915D02*
X0590311Y0365915D01*
X0586507Y0359917D02*
X0622000Y0359917D01*
X0622000Y0353918D02*
X0621016Y0353918D01*
X0614000Y0353918D02*
X0614000Y0353918D01*
X0614000Y0355600D02*
X0610967Y0355600D01*
X0610110Y0355487D01*
X0609274Y0355263D01*
X0608475Y0354932D01*
X0607725Y0354499D01*
X0607039Y0353973D01*
X0606427Y0353361D01*
X0605901Y0352675D01*
X0605468Y0351925D01*
X0605137Y0351126D01*
X0604913Y0350290D01*
X0604800Y0349433D01*
X0604800Y0349000D01*
X0614000Y0349000D01*
X0614000Y0349000D01*
X0614000Y0349000D01*
X0614000Y0355600D01*
X0614000Y0349000D02*
X0604800Y0349000D01*
X0604800Y0348567D01*
X0604913Y0347710D01*
X0605137Y0346874D01*
X0605468Y0346075D01*
X0605901Y0345325D01*
X0606427Y0344639D01*
X0607039Y0344027D01*
X0607070Y0344004D01*
X0605805Y0342739D01*
X0604800Y0340313D01*
X0604800Y0337687D01*
X0605805Y0335261D01*
X0607066Y0334000D01*
X0605805Y0332739D01*
X0604800Y0330313D01*
X0604800Y0327687D01*
X0605805Y0325261D01*
X0607066Y0324000D01*
X0605805Y0322739D01*
X0604800Y0320313D01*
X0604800Y0317687D01*
X0605805Y0315261D01*
X0607066Y0314000D01*
X0605805Y0312739D01*
X0604800Y0310313D01*
X0604800Y0307687D01*
X0605805Y0305261D01*
X0607066Y0304000D01*
X0605805Y0302739D01*
X0604800Y0300313D01*
X0604800Y0297687D01*
X0605805Y0295261D01*
X0607066Y0294000D01*
X0605805Y0292739D01*
X0604800Y0290313D01*
X0604800Y0287687D01*
X0605805Y0285261D01*
X0607066Y0284000D01*
X0605805Y0282739D01*
X0604800Y0280313D01*
X0604800Y0279981D01*
X0603860Y0279981D01*
X0601662Y0279071D01*
X0599979Y0277388D01*
X0599069Y0275190D01*
X0599069Y0272810D01*
X0599979Y0270612D01*
X0600250Y0270341D01*
X0600250Y0224734D01*
X0577486Y0152036D01*
X0577195Y0152739D01*
X0575934Y0154000D01*
X0577195Y0155261D01*
X0578200Y0157687D01*
X0578200Y0160313D01*
X0577195Y0162739D01*
X0575934Y0164000D01*
X0577195Y0165261D01*
X0578200Y0167687D01*
X0578200Y0170313D01*
X0577195Y0172739D01*
X0575930Y0174004D01*
X0575961Y0174027D01*
X0576573Y0174639D01*
X0577099Y0175325D01*
X0577532Y0176075D01*
X0577863Y0176874D01*
X0578087Y0177710D01*
X0578200Y0178567D01*
X0578200Y0179000D01*
X0578200Y0179433D01*
X0578087Y0180290D01*
X0577863Y0181126D01*
X0577532Y0181925D01*
X0577099Y0182675D01*
X0576573Y0183361D01*
X0575961Y0183973D01*
X0575275Y0184499D01*
X0574525Y0184932D01*
X0573726Y0185263D01*
X0572890Y0185487D01*
X0572033Y0185600D01*
X0569000Y0185600D01*
X0569000Y0179000D01*
X0569900Y0185600D01*
X0583900Y0199725D01*
X0598300Y0229000D01*
X0598300Y0349000D01*
X0604885Y0347920D02*
X0588200Y0347920D01*
X0588200Y0353918D02*
X0606984Y0353918D01*
X0605466Y0341921D02*
X0588200Y0341921D01*
X0588200Y0335923D02*
X0605531Y0335923D01*
X0604800Y0329924D02*
X0588200Y0329924D01*
X0588200Y0323926D02*
X0606992Y0323926D01*
X0604800Y0317927D02*
X0588200Y0317927D01*
X0588200Y0311929D02*
X0605469Y0311929D01*
X0605528Y0305930D02*
X0588200Y0305930D01*
X0588200Y0299932D02*
X0588791Y0299932D01*
X0591409Y0299932D02*
X0604800Y0299932D01*
X0606999Y0293933D02*
X0596081Y0293933D01*
X0594624Y0287934D02*
X0604800Y0287934D01*
X0605472Y0281936D02*
X0595719Y0281936D01*
X0594900Y0275937D02*
X0599379Y0275937D01*
X0600250Y0269939D02*
X0594900Y0269939D01*
X0594900Y0263940D02*
X0600250Y0263940D01*
X0600250Y0257942D02*
X0594900Y0257942D01*
X0594900Y0251943D02*
X0600250Y0251943D01*
X0600250Y0245945D02*
X0594900Y0245945D01*
X0594900Y0239946D02*
X0600250Y0239946D01*
X0600250Y0233948D02*
X0594900Y0233948D01*
X0594900Y0227949D02*
X0600250Y0227949D01*
X0599379Y0221951D02*
X0591639Y0221951D01*
X0597500Y0215952D02*
X0585641Y0215952D01*
X0583900Y0214212D02*
X0583900Y0202703D01*
X0583900Y0202654D01*
X0583900Y0206525D01*
X0586717Y0206525D01*
X0590700Y0202542D01*
X0590700Y0199725D01*
X0583900Y0199725D01*
X0583900Y0199725D01*
X0590700Y0199725D01*
X0590700Y0196908D01*
X0586717Y0192925D01*
X0583900Y0192925D01*
X0583900Y0199725D01*
X0583900Y0199725D01*
X0583900Y0192925D01*
X0581083Y0192925D01*
X0578604Y0195405D01*
X0568827Y0185600D01*
X0569000Y0185600D01*
X0569000Y0179000D01*
X0569000Y0179000D01*
X0578200Y0179000D01*
X0569000Y0179000D01*
X0569000Y0179000D01*
X0569000Y0179961D02*
X0569000Y0179961D01*
X0569185Y0185960D02*
X0588109Y0185960D01*
X0589987Y0191958D02*
X0575167Y0191958D01*
X0583900Y0197957D02*
X0583900Y0197957D01*
X0583900Y0203955D02*
X0583900Y0203955D01*
X0589286Y0203955D02*
X0593744Y0203955D01*
X0591865Y0197957D02*
X0590700Y0197957D01*
X0595622Y0209954D02*
X0583900Y0209954D01*
X0586231Y0179961D02*
X0578130Y0179961D01*
X0575971Y0173963D02*
X0584352Y0173963D01*
X0582474Y0167964D02*
X0578200Y0167964D01*
X0577515Y0161966D02*
X0580596Y0161966D01*
X0578717Y0155967D02*
X0577488Y0155967D01*
X0498700Y0129200D02*
X0497700Y0116700D01*
X0481500Y0109000D02*
X0472200Y0114000D01*
X0454000Y0179000D02*
X0454000Y0179000D01*
X0454000Y0185600D01*
X0457033Y0185600D01*
X0457890Y0185487D01*
X0458726Y0185263D01*
X0459525Y0184932D01*
X0460122Y0184587D01*
X0460470Y0185427D01*
X0460886Y0186582D01*
X0461000Y0186708D01*
X0461066Y0186865D01*
X0461934Y0187733D01*
X0462752Y0188632D01*
X0460200Y0191183D01*
X0460200Y0194000D01*
X0467000Y0194000D01*
X0467000Y0194000D01*
X0467000Y0200800D01*
X0469817Y0200800D01*
X0471183Y0199434D01*
X0477065Y0212030D01*
X0472676Y0211987D01*
X0471650Y0212400D01*
X0470087Y0212400D01*
X0469734Y0212546D01*
X0468669Y0211481D01*
X0468669Y0211481D01*
X0450450Y0193262D01*
X0450450Y0185532D01*
X0450967Y0185600D01*
X0454000Y0185600D01*
X0454000Y0179000D01*
X0454000Y0179961D02*
X0454000Y0179961D01*
X0450450Y0185960D02*
X0460662Y0185960D01*
X0460200Y0191958D02*
X0450450Y0191958D01*
X0455145Y0197957D02*
X0461340Y0197957D01*
X0460200Y0196817D02*
X0464183Y0200800D01*
X0467000Y0200800D01*
X0467000Y0194000D01*
X0467000Y0194000D01*
X0460200Y0194000D01*
X0460200Y0196817D01*
X0467000Y0197957D02*
X0467000Y0197957D01*
X0461144Y0203955D02*
X0473294Y0203955D01*
X0476096Y0209954D02*
X0467142Y0209954D01*
X0474000Y0219000D02*
X0488350Y0219140D01*
X0374000Y0349000D02*
X0374000Y0349000D01*
X0374000Y0355600D01*
X0377033Y0355600D01*
X0377890Y0355487D01*
X0378726Y0355263D01*
X0379200Y0355067D01*
X0379200Y0358580D01*
X0379158Y0359414D01*
X0379200Y0359531D01*
X0379200Y0359655D01*
X0379519Y0360426D01*
X0385514Y0377225D01*
X0385321Y0377033D01*
X0372620Y0355600D01*
X0374000Y0355600D01*
X0374000Y0349000D01*
X0374000Y0353918D02*
X0374000Y0353918D01*
X0375178Y0359917D02*
X0379308Y0359917D01*
X0378733Y0365915D02*
X0381478Y0365915D01*
X0382288Y0371914D02*
X0383618Y0371914D01*
X0431500Y0436000D02*
X0431500Y0442000D01*
X0388600Y0473888D02*
X0280848Y0473888D01*
X0274299Y0467890D02*
X0382602Y0467890D01*
X0375810Y0461891D02*
X0267751Y0461891D01*
X0270463Y0455893D02*
X0261203Y0455893D01*
X0263040Y0449894D02*
X0254655Y0449894D01*
X0248107Y0443896D02*
X0261300Y0443896D01*
X0244900Y0383911D02*
X0234400Y0383911D01*
X0234400Y0377912D02*
X0247348Y0377912D01*
X0247200Y0371914D02*
X0233674Y0371914D01*
X0226648Y0365915D02*
X0247200Y0365915D01*
X0242983Y0359917D02*
X0241017Y0359917D01*
X0232983Y0359917D02*
X0231017Y0359917D01*
X0222983Y0359917D02*
X0221017Y0359917D01*
X0211705Y0319747D02*
X0210388Y0318429D01*
X0208190Y0317519D01*
X0206800Y0317519D01*
X0206800Y0301659D01*
X0207071Y0301388D01*
X0207981Y0299190D01*
X0207981Y0296810D01*
X0207071Y0294612D01*
X0205388Y0292929D01*
X0203190Y0292019D01*
X0200810Y0292019D01*
X0198612Y0292929D01*
X0196929Y0294612D01*
X0196019Y0296810D01*
X0196019Y0299190D01*
X0196929Y0301388D01*
X0197200Y0301659D01*
X0197200Y0303925D01*
X0197071Y0303612D01*
X0195388Y0301929D01*
X0193190Y0301019D01*
X0192840Y0301019D01*
X0192071Y0299162D01*
X0191800Y0298891D01*
X0191800Y0284134D01*
X0192000Y0283934D01*
X0193261Y0285195D01*
X0195687Y0286200D01*
X0198313Y0286200D01*
X0200739Y0285195D01*
X0202000Y0283934D01*
X0203261Y0285195D01*
X0205687Y0286200D01*
X0208313Y0286200D01*
X0210739Y0285195D01*
X0212000Y0283934D01*
X0213261Y0285195D01*
X0215687Y0286200D01*
X0217200Y0286200D01*
X0217200Y0310919D01*
X0215810Y0310919D01*
X0213612Y0311829D01*
X0211929Y0313512D01*
X0211019Y0315710D01*
X0211019Y0318090D01*
X0211705Y0319747D01*
X0211019Y0317927D02*
X0209175Y0317927D01*
X0206800Y0311929D02*
X0213513Y0311929D01*
X0217200Y0305930D02*
X0206800Y0305930D01*
X0207674Y0299932D02*
X0217200Y0299932D01*
X0217200Y0293933D02*
X0206392Y0293933D01*
X0197608Y0293933D02*
X0191800Y0293933D01*
X0191800Y0287934D02*
X0217200Y0287934D01*
X0196326Y0299932D02*
X0192389Y0299932D01*
X0197000Y0247000D02*
X0197000Y0247000D01*
X0197000Y0237800D01*
X0197433Y0237800D01*
X0198290Y0237913D01*
X0199126Y0238137D01*
X0199925Y0238468D01*
X0200675Y0238901D01*
X0201361Y0239427D01*
X0201973Y0240039D01*
X0201996Y0240070D01*
X0203261Y0238805D01*
X0205687Y0237800D01*
X0208313Y0237800D01*
X0208842Y0238019D01*
X0210031Y0236831D01*
X0211381Y0235481D01*
X0213145Y0234750D01*
X0222262Y0234750D01*
X0223146Y0233866D01*
X0190925Y0234883D01*
X0190538Y0235271D01*
X0188340Y0236181D01*
X0186800Y0236181D01*
X0186800Y0237800D01*
X0188313Y0237800D01*
X0190739Y0238805D01*
X0192004Y0240070D01*
X0192027Y0240039D01*
X0192639Y0239427D01*
X0193325Y0238901D01*
X0194075Y0238468D01*
X0194874Y0238137D01*
X0195710Y0237913D01*
X0196567Y0237800D01*
X0197000Y0237800D01*
X0197000Y0247000D01*
X0197000Y0245945D02*
X0197000Y0245945D01*
X0197000Y0239946D02*
X0197000Y0239946D01*
X0201880Y0239946D02*
X0202120Y0239946D01*
X0192120Y0239946D02*
X0191880Y0239946D01*
X0220542Y0233948D02*
X0223064Y0233948D01*
X0222000Y0210066D02*
X0223261Y0208805D01*
X0225687Y0207800D01*
X0227250Y0207800D01*
X0227250Y0197859D01*
X0227217Y0197768D01*
X0227250Y0196907D01*
X0227250Y0196045D01*
X0227287Y0195956D01*
X0227291Y0195860D01*
X0227651Y0195077D01*
X0227981Y0194281D01*
X0228049Y0194213D01*
X0228089Y0194126D01*
X0228722Y0193540D01*
X0229331Y0192931D01*
X0229420Y0192894D01*
X0242498Y0180791D01*
X0242300Y0180313D01*
X0242300Y0177687D01*
X0243305Y0175261D01*
X0244566Y0174000D01*
X0243305Y0172739D01*
X0242300Y0170313D01*
X0242300Y0167687D01*
X0243305Y0165261D01*
X0244566Y0164000D01*
X0243305Y0162739D01*
X0242300Y0160313D01*
X0242300Y0157687D01*
X0243305Y0155261D01*
X0244566Y0154000D01*
X0243305Y0152739D01*
X0242300Y0150313D01*
X0242300Y0147687D01*
X0243305Y0145261D01*
X0244566Y0144000D01*
X0243305Y0142739D01*
X0242300Y0140313D01*
X0242300Y0137687D01*
X0243305Y0135261D01*
X0244566Y0134000D01*
X0243305Y0132739D01*
X0242300Y0130313D01*
X0242300Y0127687D01*
X0243305Y0125261D01*
X0244566Y0124000D01*
X0243305Y0122739D01*
X0242300Y0120313D01*
X0242300Y0117687D01*
X0243305Y0115261D01*
X0245161Y0113405D01*
X0245702Y0113181D01*
X0243985Y0102509D01*
X0240500Y0099024D01*
X0240500Y0094416D01*
X0238085Y0091300D01*
X0235476Y0091300D01*
X0231200Y0087024D01*
X0231200Y0080976D01*
X0235476Y0076700D01*
X0241524Y0076700D01*
X0245800Y0080976D01*
X0245800Y0082679D01*
X0245819Y0082654D01*
X0245819Y0082310D01*
X0246729Y0080112D01*
X0248412Y0078429D01*
X0250610Y0077519D01*
X0252990Y0077519D01*
X0255188Y0078429D01*
X0256871Y0080112D01*
X0257781Y0082310D01*
X0257781Y0083215D01*
X0258861Y0083080D01*
X0259184Y0082757D01*
X0259126Y0082211D01*
X0259200Y0081958D01*
X0259200Y0061000D01*
X0255854Y0061000D01*
X0255250Y0060750D01*
X0252750Y0060750D01*
X0252146Y0061000D01*
X0248740Y0061000D01*
X0248069Y0062619D01*
X0246669Y0064019D01*
X0245319Y0065369D01*
X0243555Y0066100D01*
X0235338Y0066100D01*
X0216269Y0085169D01*
X0214919Y0086519D01*
X0213155Y0087250D01*
X0204335Y0087250D01*
X0204935Y0088700D01*
X0210824Y0088700D01*
X0213324Y0091200D01*
X0216905Y0091200D01*
X0218669Y0091931D01*
X0220019Y0093281D01*
X0228069Y0101331D01*
X0228800Y0103095D01*
X0228800Y0112767D01*
X0230339Y0113405D01*
X0232195Y0115261D01*
X0233200Y0117687D01*
X0233200Y0120313D01*
X0232195Y0122739D01*
X0230934Y0124000D01*
X0232195Y0125261D01*
X0233200Y0127687D01*
X0233200Y0130313D01*
X0232195Y0132739D01*
X0230934Y0134000D01*
X0232195Y0135261D01*
X0233200Y0137687D01*
X0233200Y0140313D01*
X0232195Y0142739D01*
X0230934Y0144000D01*
X0232195Y0145261D01*
X0233200Y0147687D01*
X0233200Y0150313D01*
X0232195Y0152739D01*
X0231452Y0153481D01*
X0232810Y0152919D01*
X0235190Y0152919D01*
X0237388Y0153829D01*
X0239071Y0155512D01*
X0239981Y0157710D01*
X0239981Y0160090D01*
X0239071Y0162288D01*
X0237556Y0163803D01*
X0236050Y0168895D01*
X0236050Y0169155D01*
X0235781Y0169803D01*
X0235582Y0170477D01*
X0235419Y0170679D01*
X0235319Y0170919D01*
X0234823Y0171415D01*
X0234381Y0171961D01*
X0234153Y0172085D01*
X0233169Y0173069D01*
X0231405Y0173800D01*
X0231134Y0173800D01*
X0230930Y0174004D01*
X0230961Y0174027D01*
X0231573Y0174639D01*
X0232099Y0175325D01*
X0232532Y0176075D01*
X0232863Y0176874D01*
X0233087Y0177710D01*
X0233200Y0178567D01*
X0233200Y0179000D01*
X0233200Y0179433D01*
X0233087Y0180290D01*
X0232863Y0181126D01*
X0232532Y0181925D01*
X0232099Y0182675D01*
X0231573Y0183361D01*
X0230961Y0183973D01*
X0230275Y0184499D01*
X0229525Y0184932D01*
X0228726Y0185263D01*
X0227890Y0185487D01*
X0227033Y0185600D01*
X0224000Y0185600D01*
X0224000Y0179000D01*
X0215800Y0179000D01*
X0209500Y0172100D01*
X0209500Y0159400D01*
X0204000Y0154500D01*
X0204000Y0115800D01*
X0199850Y0111000D01*
X0189100Y0111000D01*
X0190087Y0112400D02*
X0197913Y0112400D01*
X0200339Y0113405D01*
X0202195Y0115261D01*
X0203200Y0117687D01*
X0203200Y0120313D01*
X0202195Y0122739D01*
X0200934Y0124000D01*
X0202195Y0125261D01*
X0203200Y0127687D01*
X0203200Y0130313D01*
X0202195Y0132739D01*
X0200934Y0134000D01*
X0202195Y0135261D01*
X0203200Y0137687D01*
X0203200Y0140313D01*
X0202195Y0142739D01*
X0200934Y0144000D01*
X0202195Y0145261D01*
X0203200Y0147687D01*
X0203200Y0150313D01*
X0202195Y0152739D01*
X0200934Y0154000D01*
X0202195Y0155261D01*
X0203200Y0157687D01*
X0203200Y0158019D01*
X0204090Y0158019D01*
X0206288Y0158929D01*
X0207971Y0160612D01*
X0208881Y0162810D01*
X0208881Y0165190D01*
X0207971Y0167388D01*
X0207700Y0167659D01*
X0207700Y0184300D01*
X0208354Y0185108D01*
X0210338Y0185929D01*
X0212021Y0187612D01*
X0212931Y0189810D01*
X0212931Y0192190D01*
X0212021Y0194388D01*
X0211757Y0194652D01*
X0211786Y0209852D01*
X0212000Y0210066D01*
X0213261Y0208805D01*
X0215687Y0207800D01*
X0218313Y0207800D01*
X0220739Y0208805D01*
X0222000Y0210066D01*
X0221888Y0209954D02*
X0222112Y0209954D01*
X0227250Y0203955D02*
X0211775Y0203955D01*
X0211763Y0197957D02*
X0227250Y0197957D01*
X0230431Y0191958D02*
X0212931Y0191958D01*
X0210368Y0185960D02*
X0236913Y0185960D01*
X0233130Y0179961D02*
X0242300Y0179961D01*
X0244529Y0173963D02*
X0230971Y0173963D01*
X0233200Y0179000D02*
X0224000Y0179000D01*
X0224000Y0179000D01*
X0233200Y0179000D01*
X0224000Y0179000D02*
X0224000Y0179000D01*
X0224000Y0179000D01*
X0214800Y0179000D01*
X0214800Y0179433D01*
X0214913Y0180290D01*
X0215137Y0181126D01*
X0215468Y0181925D01*
X0215901Y0182675D01*
X0216427Y0183361D01*
X0217039Y0183973D01*
X0217725Y0184499D01*
X0218475Y0184932D01*
X0219274Y0185263D01*
X0220110Y0185487D01*
X0220967Y0185600D01*
X0224000Y0185600D01*
X0224000Y0179000D01*
X0214800Y0179000D01*
X0214800Y0178567D01*
X0214913Y0177710D01*
X0215137Y0176874D01*
X0215468Y0176075D01*
X0215901Y0175325D01*
X0216427Y0174639D01*
X0217039Y0174027D01*
X0217070Y0174004D01*
X0215805Y0172739D01*
X0214800Y0170313D01*
X0214800Y0167687D01*
X0215805Y0165261D01*
X0217066Y0164000D01*
X0215805Y0162739D01*
X0214800Y0160313D01*
X0214800Y0157687D01*
X0215805Y0155261D01*
X0217066Y0154000D01*
X0215805Y0152739D01*
X0214800Y0150313D01*
X0214800Y0147687D01*
X0215122Y0146910D01*
X0210931Y0142719D01*
X0210200Y0140955D01*
X0210200Y0124781D01*
X0209010Y0124781D01*
X0206812Y0123871D01*
X0205129Y0122188D01*
X0204219Y0119990D01*
X0204219Y0117610D01*
X0205129Y0115412D01*
X0205400Y0115141D01*
X0205400Y0111146D01*
X0196328Y0102439D01*
X0196281Y0102419D01*
X0195641Y0101779D01*
X0194987Y0101152D01*
X0194967Y0101105D01*
X0194931Y0101069D01*
X0194584Y0100232D01*
X0194221Y0099403D01*
X0194220Y0099352D01*
X0194200Y0099305D01*
X0194200Y0098399D01*
X0194181Y0097494D01*
X0194200Y0097446D01*
X0194200Y0093659D01*
X0193929Y0093388D01*
X0193019Y0091190D01*
X0193019Y0088810D01*
X0193665Y0087250D01*
X0190940Y0087250D01*
X0186300Y0092238D01*
X0186300Y0095019D01*
X0187840Y0095019D01*
X0190038Y0095929D01*
X0191721Y0097612D01*
X0192631Y0099810D01*
X0192631Y0102190D01*
X0191721Y0104388D01*
X0190038Y0106071D01*
X0188450Y0106728D01*
X0188450Y0106874D01*
X0188527Y0107142D01*
X0188450Y0107821D01*
X0188450Y0113078D01*
X0190087Y0112400D01*
X0188450Y0107979D02*
X0202100Y0107979D01*
X0200911Y0113978D02*
X0205400Y0113978D01*
X0204219Y0119976D02*
X0203200Y0119976D01*
X0202491Y0125975D02*
X0210200Y0125975D01*
X0210200Y0131973D02*
X0202512Y0131973D01*
X0203200Y0137972D02*
X0210200Y0137972D01*
X0212182Y0143970D02*
X0200964Y0143970D01*
X0203200Y0149969D02*
X0214800Y0149969D01*
X0215512Y0155967D02*
X0202488Y0155967D01*
X0208531Y0161966D02*
X0215485Y0161966D01*
X0214800Y0167964D02*
X0207700Y0167964D01*
X0207700Y0173963D02*
X0217029Y0173963D01*
X0214870Y0179961D02*
X0207700Y0179961D01*
X0224000Y0179961D02*
X0224000Y0179961D01*
X0236325Y0167964D02*
X0242300Y0167964D01*
X0242985Y0161966D02*
X0239204Y0161966D01*
X0239259Y0155967D02*
X0243012Y0155967D01*
X0242300Y0149969D02*
X0233200Y0149969D01*
X0230964Y0143970D02*
X0244536Y0143970D01*
X0242300Y0137972D02*
X0233200Y0137972D01*
X0232512Y0131973D02*
X0242988Y0131973D01*
X0243009Y0125975D02*
X0232491Y0125975D01*
X0233200Y0119976D02*
X0242300Y0119976D01*
X0244589Y0113978D02*
X0230911Y0113978D01*
X0228800Y0107979D02*
X0244865Y0107979D01*
X0243457Y0101981D02*
X0228338Y0101981D01*
X0222720Y0095982D02*
X0240500Y0095982D01*
X0234160Y0089984D02*
X0212107Y0089984D01*
X0217453Y0083985D02*
X0231200Y0083985D01*
X0234190Y0077987D02*
X0223452Y0077987D01*
X0229450Y0071988D02*
X0259200Y0071988D01*
X0259200Y0065990D02*
X0243821Y0065990D01*
X0242810Y0077987D02*
X0249481Y0077987D01*
X0254119Y0077987D02*
X0259200Y0077987D01*
X0193019Y0089984D02*
X0188397Y0089984D01*
X0190091Y0095982D02*
X0194200Y0095982D01*
X0192631Y0101981D02*
X0195842Y0101981D01*
X0147200Y0107979D02*
X0119500Y0107979D01*
X0119500Y0101981D02*
X0139519Y0101981D01*
X0140700Y0095982D02*
X0119500Y0095982D01*
X0119500Y0089984D02*
X0143721Y0089984D01*
X0147200Y0149969D02*
X0133981Y0149969D01*
X0131491Y0155967D02*
X0147200Y0155967D01*
X0147200Y0161966D02*
X0129800Y0161966D01*
X0129800Y0167964D02*
X0146695Y0167964D01*
X0140843Y0173963D02*
X0129800Y0173963D01*
X0129800Y0179961D02*
X0134990Y0179961D01*
X0114650Y0179961D02*
X0106220Y0179961D01*
X0107674Y0185960D02*
X0114650Y0185960D01*
X0110038Y0191958D02*
X0100321Y0191958D01*
X0104074Y0197957D02*
X0093473Y0197957D01*
X0093881Y0203955D02*
X0098106Y0203955D01*
X0097200Y0209954D02*
X0095381Y0209954D01*
X0095631Y0215952D02*
X0097200Y0215952D01*
X0097200Y0221951D02*
X0091878Y0221951D01*
X0092874Y0227949D02*
X0097200Y0227949D01*
X0097200Y0233948D02*
X0091600Y0233948D01*
X0091600Y0239946D02*
X0097200Y0239946D01*
X0097200Y0245945D02*
X0091600Y0245945D01*
X0091600Y0251943D02*
X0097200Y0251943D01*
X0097200Y0257942D02*
X0091600Y0257942D01*
X0091600Y0263940D02*
X0097200Y0263940D01*
X0097200Y0269939D02*
X0091600Y0269939D01*
X0091600Y0275937D02*
X0097200Y0275937D01*
X0073000Y0251943D02*
X0061000Y0251943D01*
X0060750Y0245945D02*
X0073000Y0245945D01*
X0070975Y0209954D02*
X0076058Y0209954D01*
X0077854Y0203955D02*
X0071000Y0203955D01*
X0069943Y0197957D02*
X0076498Y0197957D01*
X0103230Y0173963D02*
X0114650Y0173963D01*
X0114650Y0167964D02*
X0093531Y0167964D01*
X0091174Y0161966D02*
X0114650Y0161966D01*
X0211888Y0209954D02*
X0212112Y0209954D01*
X0293281Y0198036D02*
X0295438Y0198929D01*
X0297121Y0200612D01*
X0298031Y0202810D01*
X0298031Y0205190D01*
X0297121Y0207388D01*
X0296850Y0207659D01*
X0296850Y0207800D01*
X0297000Y0207800D01*
X0297433Y0207800D01*
X0298290Y0207913D01*
X0299126Y0208137D01*
X0299199Y0208167D01*
X0300029Y0206162D01*
X0301712Y0204479D01*
X0303910Y0203569D01*
X0306290Y0203569D01*
X0306914Y0203828D01*
X0307997Y0199343D01*
X0307519Y0198190D01*
X0307519Y0195810D01*
X0308429Y0193612D01*
X0310112Y0191929D01*
X0312310Y0191019D01*
X0313100Y0191019D01*
X0313100Y0185522D01*
X0312913Y0185600D01*
X0305087Y0185600D01*
X0302661Y0184595D01*
X0300805Y0182739D01*
X0299800Y0180313D01*
X0299800Y0179988D01*
X0297300Y0177488D01*
X0297300Y0190829D01*
X0297356Y0191610D01*
X0297300Y0191778D01*
X0297300Y0191955D01*
X0297000Y0192679D01*
X0296753Y0193422D01*
X0296637Y0193556D01*
X0296569Y0193719D01*
X0296015Y0194273D01*
X0293281Y0197428D01*
X0293281Y0198036D01*
X0293281Y0197957D02*
X0307519Y0197957D01*
X0310083Y0191958D02*
X0297299Y0191958D01*
X0297300Y0185960D02*
X0313100Y0185960D01*
X0302500Y0185550D02*
X0297000Y0217000D01*
X0297000Y0207800D01*
X0297000Y0217000D01*
X0297000Y0217000D01*
X0297000Y0215952D02*
X0297000Y0215952D01*
X0297000Y0209954D02*
X0297000Y0209954D01*
X0298031Y0203955D02*
X0302977Y0203955D01*
X0317350Y0219000D02*
X0324000Y0223850D01*
X0324000Y0234500D01*
X0314000Y0239000D01*
X0330807Y0212519D02*
X0328350Y0210062D01*
X0328350Y0202290D01*
X0328810Y0202481D01*
X0331190Y0202481D01*
X0333388Y0201571D01*
X0335071Y0199888D01*
X0335981Y0197690D01*
X0335981Y0195310D01*
X0335071Y0193112D01*
X0334800Y0192841D01*
X0334800Y0185404D01*
X0335110Y0185487D01*
X0335967Y0185600D01*
X0339000Y0185600D01*
X0339000Y0179000D01*
X0339000Y0179000D01*
X0339000Y0185600D01*
X0342000Y0185600D01*
X0342000Y0202036D01*
X0331692Y0212520D01*
X0331546Y0212666D01*
X0331190Y0212519D01*
X0330807Y0212519D01*
X0328350Y0209954D02*
X0334215Y0209954D01*
X0328350Y0203955D02*
X0340112Y0203955D01*
X0342000Y0197957D02*
X0335870Y0197957D01*
X0334800Y0191958D02*
X0342000Y0191958D01*
X0342000Y0185960D02*
X0334800Y0185960D01*
X0339000Y0179961D02*
X0339000Y0179961D01*
X0299773Y0179961D02*
X0297300Y0179961D01*
X0100400Y0335923D02*
X0095800Y0335923D01*
X0140972Y0377912D02*
X0143028Y0377912D01*
X0142725Y0383911D02*
X0138955Y0383911D01*
D16*
X0251500Y0549500D03*
X0261500Y0549500D03*
X0271500Y0549500D03*
X0281500Y0549500D03*
X0291500Y0549500D03*
X0301500Y0549500D03*
X0311500Y0549500D03*
X0321500Y0549500D03*
X0331500Y0549500D03*
X0341500Y0549500D03*
X0351500Y0549500D03*
X0361500Y0549500D03*
X0371500Y0549500D03*
X0381500Y0549500D03*
X0391500Y0549500D03*
X0401500Y0549500D03*
X0411500Y0549500D03*
X0421500Y0549500D03*
X0431500Y0549500D03*
X0441500Y0549500D03*
X0451500Y0549500D03*
X0461500Y0549500D03*
X0284000Y0041500D03*
X0274000Y0041500D03*
X0264000Y0041500D03*
X0254000Y0041500D03*
X0244000Y0041500D03*
X0234000Y0041500D03*
X0224000Y0041500D03*
X0214000Y0041500D03*
X0204000Y0041500D03*
X0194000Y0041500D03*
X0184000Y0041500D03*
X0174000Y0041500D03*
X0164000Y0041500D03*
D17*
X0041500Y0166200D03*
X0041500Y0181800D03*
X0041500Y0197400D03*
X0041500Y0213000D03*
X0041500Y0228600D03*
X0041500Y0244200D03*
X0041500Y0259800D03*
X0041500Y0275400D03*
X0041500Y0291000D03*
X0041500Y0306600D03*
X0041500Y0322200D03*
X0041500Y0337800D03*
D18*
X0327800Y0096900D02*
X0327800Y0091300D01*
X0337800Y0091300D02*
X0337800Y0096900D01*
X0347800Y0096900D02*
X0347800Y0091300D01*
X0357800Y0091300D02*
X0357800Y0096900D01*
X0367800Y0096900D02*
X0367800Y0091300D01*
X0377800Y0091300D02*
X0377800Y0096900D01*
X0387800Y0096900D02*
X0387800Y0091300D01*
X0397800Y0091300D02*
X0397800Y0096900D01*
X0407800Y0096900D02*
X0407800Y0091300D01*
X0417800Y0091300D02*
X0417800Y0096900D01*
X0427800Y0096900D02*
X0427800Y0091300D01*
X0437800Y0091300D02*
X0437800Y0096900D01*
D19*
X0455900Y0094000D03*
X0478900Y0089350D03*
X0497400Y0084950D03*
X0508600Y0084000D03*
X0524150Y0094600D03*
X0533200Y0103400D03*
X0547850Y0102600D03*
X0555500Y0111000D03*
X0555500Y0128150D03*
X0531300Y0134000D03*
X0519450Y0124000D03*
X0498700Y0129200D03*
X0497700Y0116700D03*
X0493250Y0109000D03*
X0466000Y0144450D03*
X0434350Y0128850D03*
X0409350Y0124000D03*
X0408350Y0110050D03*
X0381400Y0124000D03*
X0350500Y0124000D03*
X0348850Y0109600D03*
X0331200Y0105000D03*
X0323000Y0106000D03*
X0293600Y0092000D03*
X0285250Y0090500D03*
X0290400Y0107000D03*
X0274050Y0112900D03*
X0257150Y0096100D03*
X0254600Y0088450D03*
X0251800Y0083500D03*
X0263000Y0087400D03*
X0238850Y0068700D03*
X0204000Y0068700D03*
X0194000Y0068700D03*
X0184000Y0068700D03*
X0164000Y0071700D03*
X0160500Y0086000D03*
X0156300Y0093000D03*
X0152000Y0097000D03*
X0145500Y0101000D03*
X0186650Y0101000D03*
X0189100Y0111000D03*
X0210200Y0118800D03*
X0215000Y0104300D03*
X0199000Y0090000D03*
X0234000Y0158900D03*
X0202900Y0164000D03*
X0206950Y0191000D03*
X0192000Y0225850D03*
X0187150Y0230200D03*
X0209300Y0255650D03*
X0237550Y0264350D03*
X0243250Y0266500D03*
X0249350Y0268000D03*
X0252000Y0255550D03*
X0247000Y0286000D03*
X0232000Y0295000D03*
X0237000Y0301300D03*
X0227000Y0309100D03*
X0217000Y0316900D03*
X0207000Y0323500D03*
X0192000Y0307000D03*
X0187000Y0302550D03*
X0192000Y0290500D03*
X0202000Y0298000D03*
X0182000Y0316000D03*
X0172000Y0323600D03*
X0137000Y0298000D03*
X0127000Y0307000D03*
X0117000Y0316000D03*
X0107000Y0323600D03*
X0102000Y0329500D03*
X0107000Y0347000D03*
X0117000Y0353000D03*
X0127000Y0359000D03*
X0112050Y0285000D03*
X0147000Y0229000D03*
X0157000Y0229000D03*
X0101950Y0184150D03*
X0097600Y0176000D03*
X0091550Y0176000D03*
X0079500Y0181000D03*
X0079500Y0187500D03*
X0081000Y0194000D03*
X0083000Y0200750D03*
X0087900Y0204900D03*
X0089400Y0210550D03*
X0089650Y0216400D03*
X0087000Y0226500D03*
X0087550Y0166800D03*
X0070450Y0166200D03*
X0125000Y0156700D03*
X0128000Y0151000D03*
X0245400Y0191100D03*
X0282000Y0209350D03*
X0292050Y0204000D03*
X0287300Y0197000D03*
X0286200Y0191500D03*
X0302500Y0185550D03*
X0313500Y0197000D03*
X0305100Y0209550D03*
X0330000Y0218500D03*
X0348500Y0219150D03*
X0348500Y0239000D03*
X0339650Y0249000D03*
X0348000Y0254000D03*
X0357950Y0264000D03*
X0365500Y0264000D03*
X0358000Y0284000D03*
X0361000Y0294000D03*
X0332350Y0279000D03*
X0307000Y0284000D03*
X0292000Y0289350D03*
X0287000Y0297400D03*
X0277000Y0289350D03*
X0282000Y0285250D03*
X0301500Y0268800D03*
X0327000Y0243200D03*
X0374300Y0206600D03*
X0364000Y0196500D03*
X0386850Y0191500D03*
X0392150Y0195500D03*
X0397400Y0191500D03*
X0432250Y0164000D03*
X0412300Y0144050D03*
X0435800Y0199700D03*
X0489800Y0191500D03*
X0506350Y0191500D03*
X0527950Y0191800D03*
X0533350Y0191800D03*
X0538700Y0191800D03*
X0531300Y0174100D03*
X0569900Y0185600D03*
X0580000Y0144000D03*
X0566000Y0087500D03*
X0598300Y0229000D03*
X0605050Y0274000D03*
X0590100Y0284000D03*
X0590100Y0294000D03*
X0509100Y0274450D03*
X0481900Y0334000D03*
X0482050Y0344000D03*
X0507850Y0368350D03*
X0517550Y0365300D03*
X0524550Y0381850D03*
X0539750Y0380450D03*
X0515900Y0401700D03*
X0511050Y0405900D03*
X0508750Y0397700D03*
X0500550Y0399250D03*
X0497550Y0388150D03*
X0497200Y0379400D03*
X0484000Y0385700D03*
X0461500Y0421500D03*
X0446500Y0430000D03*
X0428850Y0459550D03*
X0441500Y0478000D03*
X0441500Y0501000D03*
X0451500Y0501000D03*
X0461500Y0519700D03*
X0431500Y0526250D03*
X0421500Y0526300D03*
X0411500Y0526250D03*
X0401500Y0526250D03*
X0391500Y0526200D03*
X0381500Y0526200D03*
X0371500Y0526200D03*
X0361500Y0526250D03*
X0351500Y0526200D03*
X0341500Y0526250D03*
X0331500Y0526200D03*
X0321500Y0526200D03*
X0311500Y0526200D03*
X0301500Y0526200D03*
X0291500Y0526150D03*
X0281500Y0526200D03*
X0271500Y0526200D03*
X0261500Y0526250D03*
X0251500Y0519000D03*
X0381500Y0460000D03*
X0391500Y0460000D03*
X0401500Y0460000D03*
X0431500Y0376000D03*
X0443700Y0344000D03*
X0432150Y0334000D03*
X0414500Y0329000D03*
X0435800Y0274300D03*
X0430750Y0269000D03*
X0428000Y0259000D03*
X0409950Y0254000D03*
X0332350Y0309000D03*
X0271750Y0313000D03*
X0262000Y0305200D03*
X0211950Y0360650D03*
X0330000Y0196500D03*
X0355000Y0174000D03*
X0323550Y0168900D03*
X0317900Y0164050D03*
X0299200Y0169050D03*
X0299000Y0154000D03*
X0299000Y0139400D03*
X0321000Y0139000D03*
X0273750Y0154050D03*
D20*
X0273050Y0181100D01*
X0286200Y0191500D01*
X0282000Y0192400D02*
X0282000Y0203500D01*
X0278150Y0206500D01*
X0272000Y0210000D01*
X0272000Y0284250D01*
X0277000Y0289350D01*
X0282000Y0285250D02*
X0282000Y0360000D01*
X0271500Y0370500D01*
X0271500Y0386200D01*
X0266500Y0391700D02*
X0261500Y0396950D01*
X0261500Y0406200D01*
X0266500Y0391700D02*
X0266500Y0368200D01*
X0271750Y0363150D01*
X0271750Y0313000D01*
X0262000Y0305200D02*
X0252000Y0322000D01*
X0252000Y0376600D01*
X0261500Y0386200D01*
X0281500Y0386200D02*
X0281500Y0367300D01*
X0292000Y0356850D01*
X0292000Y0289350D01*
X0287000Y0297400D02*
X0287000Y0337000D01*
X0267000Y0337000D02*
X0267000Y0287900D01*
X0262000Y0283000D01*
X0262000Y0202900D01*
X0266750Y0198250D01*
X0276750Y0198250D02*
X0276750Y0192050D01*
X0265150Y0184000D01*
X0265150Y0130850D01*
X0266350Y0129650D01*
X0266350Y0115800D01*
X0264800Y0113850D01*
X0261100Y0100300D01*
X0263750Y0099950D02*
X0263400Y0092700D01*
X0268400Y0089600D01*
X0268400Y0086200D01*
X0264000Y0082650D01*
X0264000Y0041500D01*
X0244000Y0041500D02*
X0244000Y0059900D01*
X0242600Y0061300D01*
X0233350Y0061300D01*
X0212200Y0082450D01*
X0188850Y0082450D01*
X0181500Y0090350D01*
X0181500Y0104850D01*
X0183650Y0107550D01*
X0183650Y0130050D01*
X0180500Y0134000D01*
X0180500Y0206000D01*
X0182000Y0210400D01*
X0182000Y0241750D01*
X0187000Y0247000D01*
X0192000Y0252000D02*
X0197000Y0247000D01*
X0209300Y0255650D02*
X0211950Y0252550D01*
X0211950Y0241700D01*
X0214100Y0239550D01*
X0224250Y0239550D01*
X0242050Y0221750D01*
X0242050Y0194350D01*
X0245400Y0191100D01*
X0249850Y0185550D02*
X0249850Y0204250D01*
X0251950Y0206350D01*
X0251950Y0229500D01*
X0244500Y0229500D01*
X0227000Y0247000D01*
X0233650Y0255000D02*
X0217700Y0255000D01*
X0214450Y0257150D01*
X0200750Y0269550D01*
X0197300Y0269550D01*
X0197000Y0269850D01*
X0197000Y0277000D01*
X0187000Y0277000D02*
X0187000Y0302550D01*
X0192000Y0307000D02*
X0192000Y0368075D01*
X0197000Y0369950D01*
X0202000Y0367925D02*
X0207000Y0369950D01*
X0202000Y0367925D02*
X0202000Y0298000D01*
X0207000Y0277000D02*
X0207000Y0270850D01*
X0207600Y0267550D01*
X0218300Y0258400D01*
X0234150Y0258400D01*
X0240550Y0253400D01*
X0247000Y0247000D01*
X0243700Y0255550D02*
X0252000Y0255550D01*
X0253700Y0258400D01*
X0253700Y0270300D01*
X0247000Y0277000D01*
X0242000Y0271450D02*
X0249350Y0268000D01*
X0243250Y0266500D02*
X0232000Y0270500D01*
X0232000Y0287200D01*
X0226100Y0293150D01*
X0226100Y0296050D01*
X0232000Y0301950D01*
X0232000Y0347000D01*
X0227000Y0352000D01*
X0222000Y0347100D02*
X0222000Y0270600D01*
X0226400Y0269250D01*
X0237550Y0264350D01*
X0234500Y0261400D02*
X0243700Y0255550D01*
X0237000Y0250050D02*
X0237000Y0247000D01*
X0237000Y0250050D02*
X0233650Y0255000D01*
X0234500Y0261400D02*
X0221600Y0261400D01*
X0217000Y0266000D01*
X0217000Y0277000D01*
X0232000Y0295000D02*
X0237000Y0290000D01*
X0237000Y0277000D01*
X0242000Y0271450D02*
X0242000Y0347000D01*
X0237000Y0352000D01*
X0237000Y0337000D02*
X0237000Y0301300D01*
X0227000Y0309100D02*
X0227000Y0337000D01*
X0217000Y0337000D02*
X0217000Y0316900D01*
X0207000Y0323500D02*
X0207000Y0337000D01*
X0217000Y0352000D02*
X0222000Y0347100D01*
X0187000Y0369950D02*
X0182000Y0367925D01*
X0182000Y0316000D01*
X0172000Y0323600D02*
X0172000Y0367925D01*
X0177000Y0369950D01*
X0137000Y0369950D02*
X0137000Y0337000D01*
X0137000Y0319200D01*
X0172000Y0283750D01*
X0172000Y0266550D01*
X0177000Y0262000D01*
X0167000Y0262000D02*
X0167000Y0267000D01*
X0162000Y0272000D01*
X0162000Y0289200D01*
X0127000Y0324300D01*
X0127000Y0337000D01*
X0127000Y0359000D01*
X0117000Y0353000D02*
X0117000Y0337000D01*
X0117000Y0329500D01*
X0152000Y0294450D01*
X0152000Y0272000D01*
X0157000Y0267000D01*
X0157000Y0262000D01*
X0162000Y0266850D02*
X0162000Y0239750D01*
X0156950Y0234750D01*
X0157000Y0229000D01*
X0161500Y0234000D02*
X0167000Y0239500D01*
X0167000Y0247000D01*
X0172000Y0241700D02*
X0177000Y0247000D01*
X0172000Y0241700D02*
X0172000Y0210400D01*
X0177000Y0204450D01*
X0177000Y0132900D01*
X0180500Y0129400D01*
X0180500Y0108650D01*
X0178050Y0106000D01*
X0178050Y0088900D01*
X0187550Y0079400D01*
X0209550Y0079400D01*
X0234000Y0054950D01*
X0234000Y0041500D01*
X0224000Y0041500D02*
X0224000Y0060000D01*
X0207800Y0076200D01*
X0184600Y0076200D01*
X0174500Y0088150D01*
X0174500Y0106400D01*
X0177500Y0111700D01*
X0177500Y0126400D01*
X0173500Y0131050D01*
X0173500Y0197350D01*
X0161500Y0210400D01*
X0161500Y0234000D01*
X0157000Y0239000D02*
X0157000Y0247000D01*
X0152000Y0240650D02*
X0146950Y0235600D01*
X0147000Y0229000D01*
X0152000Y0234000D02*
X0157000Y0239000D01*
X0152000Y0240650D02*
X0152000Y0267000D01*
X0147000Y0272000D01*
X0147000Y0277000D01*
X0157000Y0277000D02*
X0157000Y0271800D01*
X0162000Y0266850D01*
X0147000Y0262000D02*
X0142000Y0267000D01*
X0142000Y0299700D01*
X0107000Y0334700D01*
X0107000Y0337000D01*
X0107000Y0347000D01*
X0102000Y0329500D02*
X0102000Y0206850D01*
X0119450Y0189300D01*
X0119450Y0154600D01*
X0123050Y0151000D01*
X0128000Y0151000D01*
X0125000Y0156700D02*
X0125000Y0187600D01*
X0107000Y0208550D01*
X0107000Y0217000D01*
X0112000Y0210400D02*
X0112000Y0241500D01*
X0117000Y0247000D01*
X0112000Y0252050D02*
X0107000Y0247000D01*
X0112000Y0252050D02*
X0112050Y0285000D01*
X0117000Y0277000D02*
X0117000Y0316000D01*
X0107000Y0323600D02*
X0107000Y0277000D01*
X0127000Y0277000D02*
X0127000Y0307000D01*
X0137000Y0298000D02*
X0137000Y0277000D01*
X0137000Y0247000D02*
X0132000Y0241500D01*
X0132000Y0210400D01*
X0160500Y0181650D01*
X0160500Y0086000D01*
X0165600Y0084750D02*
X0165600Y0110150D01*
X0171300Y0115850D01*
X0171300Y0122350D01*
X0165200Y0128450D01*
X0165200Y0186300D01*
X0142000Y0210400D01*
X0142000Y0241500D01*
X0147000Y0247000D01*
X0152000Y0234000D02*
X0152000Y0210400D01*
X0169500Y0192650D01*
X0169500Y0129600D01*
X0174500Y0124550D01*
X0174500Y0112900D01*
X0170000Y0108400D01*
X0170000Y0085950D01*
X0180700Y0074350D01*
X0180700Y0074300D01*
X0182350Y0072650D01*
X0206600Y0072650D01*
X0214000Y0065250D01*
X0214000Y0041500D01*
X0204000Y0041500D02*
X0204000Y0068700D01*
X0194000Y0068700D02*
X0194000Y0041500D01*
X0184000Y0041500D02*
X0184000Y0068700D01*
X0174000Y0076350D02*
X0165600Y0084750D01*
X0164000Y0076950D02*
X0164000Y0071700D01*
X0164000Y0076950D02*
X0145500Y0094950D01*
X0145500Y0101000D01*
X0152000Y0097000D02*
X0152000Y0169400D01*
X0112000Y0210400D01*
X0122000Y0210400D02*
X0122000Y0241500D01*
X0127000Y0247000D01*
X0122000Y0210400D02*
X0156300Y0176500D01*
X0156300Y0093000D01*
X0174000Y0076350D02*
X0174000Y0041500D01*
X0199000Y0090000D02*
X0199000Y0098350D01*
X0210200Y0109100D01*
X0210200Y0118800D01*
X0215000Y0104300D02*
X0215000Y0140000D01*
X0224000Y0149000D01*
X0234000Y0158900D02*
X0231250Y0168200D01*
X0230450Y0169000D01*
X0224000Y0169000D01*
X0202900Y0186000D02*
X0206950Y0191000D01*
X0207000Y0217000D01*
X0192000Y0210100D02*
X0194000Y0206000D01*
X0194000Y0179000D01*
X0194000Y0169000D02*
X0189900Y0169000D01*
X0185500Y0164450D01*
X0185500Y0133000D01*
X0188100Y0128850D01*
X0193850Y0128850D01*
X0194000Y0129000D01*
X0224000Y0119000D02*
X0224000Y0104050D01*
X0215950Y0096000D01*
X0207800Y0096000D01*
X0238500Y0084000D02*
X0247800Y0096000D01*
X0251500Y0119000D01*
X0259400Y0116200D02*
X0253750Y0110250D01*
X0253100Y0093150D01*
X0248500Y0088950D01*
X0249300Y0086000D01*
X0251800Y0083500D01*
X0254600Y0088450D02*
X0263000Y0087400D01*
X0260800Y0090550D01*
X0257150Y0096100D02*
X0257250Y0109150D01*
X0263000Y0116000D01*
X0263000Y0128550D01*
X0259650Y0133650D01*
X0259650Y0182200D01*
X0256300Y0185550D01*
X0249850Y0185550D01*
X0251500Y0179000D02*
X0232050Y0197000D01*
X0232050Y0222100D01*
X0225150Y0229000D01*
X0187150Y0230200D01*
X0192000Y0225850D02*
X0192000Y0210100D01*
X0202900Y0186000D02*
X0202900Y0164000D01*
X0251500Y0129000D02*
X0257350Y0129000D01*
X0259400Y0126950D01*
X0259400Y0116200D01*
X0269250Y0115150D02*
X0267450Y0107650D01*
X0263750Y0099950D01*
X0269000Y0096400D02*
X0274050Y0112900D01*
X0269250Y0115150D02*
X0269250Y0182000D01*
X0282000Y0192400D01*
X0287300Y0197000D02*
X0292500Y0191000D01*
X0292500Y0165700D01*
X0299000Y0154000D01*
X0299000Y0139400D01*
X0293000Y0132750D02*
X0297350Y0127050D01*
X0297350Y0098000D01*
X0293600Y0092000D01*
X0285250Y0090500D02*
X0294500Y0105000D01*
X0294500Y0108450D01*
X0290300Y0116000D01*
X0290300Y0150200D01*
X0281500Y0159000D01*
X0281500Y0169000D02*
X0293000Y0157500D01*
X0293000Y0132750D01*
X0300000Y0120000D02*
X0309000Y0129000D01*
X0300000Y0120000D02*
X0300000Y0114000D01*
X0315350Y0098300D01*
X0315350Y0085300D01*
X0319600Y0080500D01*
X0323250Y0084800D02*
X0320800Y0088950D01*
X0320800Y0101300D01*
X0317000Y0104450D01*
X0317000Y0108500D01*
X0320000Y0110500D01*
X0320000Y0134000D01*
X0321000Y0139000D01*
X0317100Y0140900D02*
X0309000Y0149000D01*
X0309000Y0159000D02*
X0324500Y0159000D01*
X0330000Y0165900D01*
X0330000Y0196500D01*
X0317900Y0206500D02*
X0317900Y0164050D01*
X0323550Y0168900D02*
X0323550Y0212050D01*
X0330000Y0218500D01*
X0335100Y0215900D02*
X0335100Y0224550D01*
X0332350Y0227150D01*
X0332350Y0279000D01*
X0347500Y0262400D02*
X0347500Y0375700D01*
X0351500Y0386200D01*
X0356500Y0381000D02*
X0356500Y0393000D01*
X0358700Y0395200D01*
X0382000Y0395200D01*
X0391500Y0406200D01*
X0396450Y0401150D02*
X0396450Y0376000D01*
X0401400Y0360600D01*
X0401400Y0205800D01*
X0398000Y0202200D01*
X0390350Y0202200D01*
X0386850Y0198600D01*
X0386850Y0191500D01*
X0392150Y0195500D02*
X0392150Y0184950D01*
X0388300Y0181100D01*
X0388300Y0167200D01*
X0396500Y0159000D01*
X0411850Y0150900D02*
X0411850Y0248000D01*
X0414400Y0250550D01*
X0414400Y0260200D01*
X0410200Y0268000D01*
X0410200Y0376950D01*
X0411500Y0386200D01*
X0416500Y0382000D02*
X0416500Y0412000D01*
X0410000Y0416200D01*
X0314800Y0416200D01*
X0311500Y0414300D01*
X0311500Y0406200D01*
X0321500Y0406200D02*
X0321500Y0395700D01*
X0326500Y0390800D01*
X0326500Y0376950D01*
X0320700Y0373200D01*
X0320700Y0362350D01*
X0322700Y0360350D01*
X0322700Y0327700D01*
X0314000Y0319000D01*
X0323000Y0320250D02*
X0325950Y0323200D01*
X0325950Y0361950D01*
X0324100Y0363800D01*
X0324100Y0371400D01*
X0331500Y0376400D01*
X0331500Y0386200D01*
X0336500Y0390700D02*
X0336500Y0313200D01*
X0332350Y0309000D01*
X0323000Y0320250D02*
X0323000Y0247200D01*
X0327000Y0243200D01*
X0339650Y0249000D02*
X0339650Y0376400D01*
X0341500Y0386200D01*
X0336500Y0390700D02*
X0331500Y0395750D01*
X0331500Y0406200D01*
X0318600Y0413500D02*
X0316566Y0412697D01*
X0316566Y0391134D01*
X0321500Y0386200D01*
X0311500Y0386200D02*
X0306500Y0391400D01*
X0306500Y0415550D01*
X0311500Y0418900D01*
X0418000Y0418900D01*
X0426500Y0412000D01*
X0426500Y0382000D01*
X0422450Y0373000D01*
X0422450Y0262800D01*
X0428000Y0259000D01*
X0432500Y0260700D02*
X0426200Y0266100D01*
X0426200Y0370700D01*
X0431500Y0376000D01*
X0436500Y0373800D02*
X0432150Y0369450D01*
X0432150Y0334000D01*
X0439000Y0332250D02*
X0439000Y0368500D01*
X0446500Y0380000D01*
X0446500Y0412000D01*
X0430000Y0424300D01*
X0302700Y0424300D01*
X0296500Y0420250D01*
X0296500Y0391200D01*
X0301500Y0386200D01*
X0291500Y0386200D02*
X0291500Y0394500D01*
X0286500Y0399500D01*
X0286500Y0424200D01*
X0292000Y0429700D01*
X0437250Y0429700D01*
X0466500Y0412000D01*
X0466500Y0380000D01*
X0462100Y0364400D01*
X0462100Y0284150D01*
X0454000Y0279000D01*
X0435800Y0274300D02*
X0435800Y0199700D01*
X0445650Y0195250D02*
X0465950Y0215550D01*
X0465950Y0364000D01*
X0469200Y0380000D01*
X0469200Y0422000D01*
X0454850Y0431100D01*
X0451500Y0439000D01*
X0446500Y0430000D02*
X0461500Y0421500D01*
X0456500Y0412000D02*
X0436000Y0427000D01*
X0298850Y0427000D01*
X0291512Y0419751D01*
X0291500Y0406200D01*
X0301500Y0406200D02*
X0301500Y0415600D01*
X0309650Y0421600D01*
X0424000Y0421600D01*
X0436500Y0412000D01*
X0436500Y0373800D01*
X0443700Y0362350D02*
X0456500Y0380000D01*
X0456500Y0412000D01*
X0471900Y0397700D02*
X0471900Y0445400D01*
X0470500Y0447700D01*
X0474600Y0448500D02*
X0473000Y0451400D01*
X0474600Y0448500D02*
X0474600Y0398000D01*
X0487500Y0353300D01*
X0487500Y0342400D01*
X0481900Y0334000D01*
X0482050Y0344000D02*
X0482050Y0352200D01*
X0471900Y0397700D01*
X0477300Y0399500D02*
X0497200Y0379400D01*
X0497550Y0388150D02*
X0492150Y0389100D01*
X0480000Y0403100D01*
X0480000Y0462900D01*
X0470000Y0468000D01*
X0409100Y0468000D01*
X0401500Y0460000D01*
X0391500Y0460000D02*
X0401600Y0471000D01*
X0472000Y0471000D01*
X0482700Y0464550D01*
X0482700Y0407200D01*
X0488000Y0399250D01*
X0500550Y0399250D01*
X0505000Y0404000D02*
X0508750Y0397700D01*
X0505000Y0404000D02*
X0488900Y0404000D01*
X0485400Y0411300D01*
X0485400Y0468450D01*
X0476000Y0474000D01*
X0395500Y0474000D01*
X0381500Y0460000D01*
X0402700Y0413500D02*
X0318600Y0413500D01*
X0346500Y0393550D02*
X0346500Y0380850D01*
X0343400Y0376300D01*
X0343400Y0254350D01*
X0344000Y0252550D01*
X0344000Y0214250D01*
X0349700Y0207250D01*
X0349700Y0174850D01*
X0352000Y0170650D01*
X0352000Y0145750D01*
X0350500Y0139350D01*
X0350500Y0124000D01*
X0353750Y0120400D02*
X0353750Y0107100D01*
X0351300Y0105000D01*
X0339400Y0105000D01*
X0337800Y0103050D01*
X0337800Y0094100D01*
X0347800Y0094100D02*
X0347800Y0101300D01*
X0348750Y0102250D01*
X0353350Y0102250D01*
X0356700Y0105350D01*
X0348850Y0109600D02*
X0346500Y0111750D01*
X0346500Y0137450D01*
X0346070Y0138784D01*
X0349200Y0145750D01*
X0349200Y0170150D01*
X0346800Y0173900D01*
X0346800Y0204000D01*
X0335100Y0215900D01*
X0348500Y0219150D02*
X0348500Y0239000D01*
X0348000Y0254000D02*
X0347500Y0262400D01*
X0355950Y0262000D02*
X0357950Y0264000D01*
X0355950Y0262000D02*
X0355950Y0180050D01*
X0359500Y0176900D01*
X0359500Y0172450D01*
X0355000Y0174000D02*
X0353000Y0177600D01*
X0352400Y0212800D01*
X0352800Y0215600D01*
X0353100Y0374500D01*
X0356500Y0381000D01*
X0361500Y0380000D02*
X0361500Y0386200D01*
X0361500Y0380000D02*
X0356400Y0358500D01*
X0356400Y0288000D01*
X0358000Y0284000D01*
X0361000Y0294000D02*
X0361000Y0357150D01*
X0371500Y0380000D01*
X0371500Y0386200D01*
X0381500Y0386200D02*
X0381500Y0380000D01*
X0365500Y0353000D01*
X0365500Y0264000D01*
X0365000Y0261950D01*
X0360150Y0257100D01*
X0360150Y0192900D01*
X0375050Y0180800D01*
X0375050Y0166750D01*
X0370800Y0164000D01*
X0360500Y0164000D01*
X0346500Y0167400D02*
X0345300Y0169100D01*
X0339100Y0169100D01*
X0339000Y0169000D01*
X0346500Y0167400D02*
X0346500Y0147050D01*
X0344000Y0144050D01*
X0333800Y0144050D01*
X0331200Y0138200D01*
X0331200Y0105000D01*
X0325350Y0109350D02*
X0325350Y0140350D01*
X0331600Y0146600D01*
X0331600Y0153950D01*
X0336650Y0159000D01*
X0339000Y0159000D01*
X0339000Y0139000D02*
X0346000Y0139000D01*
X0346070Y0138784D01*
X0359200Y0135300D02*
X0362450Y0138900D01*
X0366400Y0138900D01*
X0366500Y0139000D01*
X0359200Y0135300D02*
X0359200Y0115800D01*
X0368000Y0106650D01*
X0367800Y0094100D01*
X0397800Y0094100D02*
X0366500Y0129000D01*
X0381400Y0124000D02*
X0381400Y0213650D01*
X0384000Y0216350D01*
X0384000Y0358700D01*
X0391600Y0380000D01*
X0391500Y0386200D01*
X0401500Y0386200D02*
X0404400Y0377300D01*
X0404400Y0251750D01*
X0407550Y0247750D01*
X0407550Y0125800D01*
X0409350Y0124000D01*
X0413700Y0120200D02*
X0413700Y0141900D01*
X0412300Y0143300D01*
X0412300Y0144050D01*
X0411850Y0150900D02*
X0424000Y0139000D01*
X0434350Y0128850D02*
X0432250Y0164000D01*
X0429350Y0169000D02*
X0424000Y0169000D01*
X0429350Y0169000D02*
X0433500Y0173150D01*
X0433500Y0184300D01*
X0429850Y0187950D01*
X0429850Y0253850D01*
X0432500Y0255600D01*
X0432500Y0260700D01*
X0430750Y0269000D02*
X0430750Y0321350D01*
X0439000Y0332250D01*
X0443700Y0344000D02*
X0443700Y0362350D01*
X0419400Y0375500D02*
X0421500Y0380500D01*
X0421500Y0386200D01*
X0416500Y0382000D02*
X0414500Y0375500D01*
X0414500Y0329000D01*
X0419400Y0327150D02*
X0419400Y0375500D01*
X0407200Y0377000D02*
X0406500Y0381500D01*
X0406500Y0412000D01*
X0402700Y0413500D01*
X0401500Y0406200D02*
X0396450Y0401150D01*
X0381500Y0403250D02*
X0376600Y0398350D01*
X0351250Y0398350D01*
X0346500Y0393550D01*
X0381500Y0403250D02*
X0381500Y0406200D01*
X0407200Y0377000D02*
X0407200Y0256750D01*
X0409950Y0254000D01*
X0417900Y0249850D02*
X0417900Y0262200D01*
X0413750Y0268700D01*
X0413750Y0321500D01*
X0419400Y0327150D01*
X0494500Y0318250D02*
X0500300Y0325750D01*
X0500300Y0359750D01*
X0507850Y0368350D01*
X0517550Y0365300D02*
X0503800Y0350000D01*
X0503800Y0322550D01*
X0498600Y0315550D01*
X0498600Y0206900D01*
X0489800Y0191500D01*
X0493550Y0189550D02*
X0487450Y0179100D01*
X0481500Y0179000D01*
X0476000Y0173750D02*
X0473650Y0176100D01*
X0473650Y0181900D01*
X0483550Y0190700D01*
X0494500Y0214600D01*
X0494500Y0318250D01*
X0503400Y0312900D02*
X0503400Y0207850D01*
X0493550Y0189550D01*
X0497850Y0183900D02*
X0497850Y0152750D01*
X0501650Y0148950D01*
X0511450Y0148950D01*
X0511500Y0149000D01*
X0516800Y0144000D02*
X0505350Y0143900D01*
X0503900Y0141500D01*
X0503900Y0120950D01*
X0505350Y0114000D01*
X0518850Y0114000D01*
X0521100Y0111450D01*
X0523150Y0100850D01*
X0528200Y0096450D01*
X0528200Y0092250D01*
X0523000Y0088600D01*
X0502600Y0088600D01*
X0497400Y0084950D01*
X0506000Y0094600D02*
X0493250Y0109000D01*
X0497000Y0111500D02*
X0492850Y0114000D01*
X0492850Y0171350D01*
X0490450Y0173750D01*
X0476000Y0173750D01*
X0461900Y0161000D02*
X0454000Y0169000D01*
X0461900Y0161000D02*
X0461900Y0108000D01*
X0466000Y0094600D02*
X0472850Y0095850D01*
X0483750Y0095850D01*
X0486100Y0088600D01*
X0506000Y0094600D02*
X0515200Y0094600D01*
X0516350Y0101500D02*
X0505600Y0101500D01*
X0497000Y0111500D01*
X0489350Y0124000D02*
X0481500Y0129000D01*
X0466000Y0144450D02*
X0466000Y0094600D01*
X0454000Y0129000D02*
X0428000Y0103000D01*
X0427800Y0094100D01*
X0417800Y0094100D02*
X0424000Y0119000D01*
X0413700Y0120200D02*
X0412500Y0119000D01*
X0412300Y0098600D01*
X0407800Y0094100D01*
X0408350Y0110050D02*
X0404100Y0114500D01*
X0404100Y0184800D01*
X0397400Y0191500D01*
X0416000Y0165000D02*
X0416000Y0242000D01*
X0417900Y0249850D01*
X0374000Y0249000D02*
X0370350Y0249000D01*
X0364000Y0242750D01*
X0364000Y0196500D01*
X0360150Y0192900D02*
X0360150Y0192600D01*
X0313500Y0197000D02*
X0310350Y0210050D01*
X0292050Y0204000D02*
X0292050Y0271950D01*
X0287000Y0277000D01*
X0282000Y0272000D02*
X0282000Y0209350D01*
X0305600Y0179000D02*
X0299200Y0172600D01*
X0299200Y0169050D01*
X0305600Y0179000D02*
X0309000Y0179000D01*
X0317100Y0140900D02*
X0317100Y0112000D01*
X0314000Y0110000D01*
X0313900Y0103600D01*
X0318000Y0100150D01*
X0318100Y0087200D01*
X0323000Y0106000D02*
X0325350Y0109350D01*
X0290400Y0107000D02*
X0281500Y0119000D01*
X0416000Y0165000D02*
X0424000Y0159000D01*
X0445650Y0152300D02*
X0445650Y0195250D01*
X0445650Y0152300D02*
X0454000Y0149000D01*
X0497850Y0183900D02*
X0509100Y0207500D01*
X0509100Y0274450D01*
X0503400Y0312900D02*
X0510250Y0321600D01*
X0510150Y0351900D01*
X0524350Y0362200D01*
X0524500Y0371650D01*
X0524550Y0381850D02*
X0533950Y0389800D01*
X0550150Y0389800D01*
X0569500Y0380850D01*
X0569500Y0359100D01*
X0576700Y0348900D01*
X0576700Y0231000D01*
X0577100Y0230600D01*
X0576650Y0230600D01*
X0566750Y0220700D01*
X0566750Y0208550D01*
X0547850Y0189650D01*
X0547850Y0102600D01*
X0555500Y0111000D02*
X0566000Y0087500D01*
X0555200Y0094600D02*
X0526250Y0081550D01*
X0522500Y0084000D02*
X0531800Y0091400D01*
X0531800Y0096550D01*
X0529750Y0099450D01*
X0527200Y0101700D01*
X0533200Y0103400D02*
X0530450Y0120450D01*
X0539000Y0129000D01*
X0531300Y0134000D02*
X0531300Y0174100D01*
X0529400Y0185100D02*
X0533350Y0191800D01*
X0538700Y0191800D02*
X0534750Y0185500D01*
X0527950Y0191800D02*
X0524000Y0184000D01*
X0518600Y0183050D02*
X0525450Y0195300D01*
X0544000Y0211200D01*
X0544000Y0352850D01*
X0539750Y0357100D01*
X0539750Y0380450D01*
X0534500Y0371650D02*
X0534500Y0361350D01*
X0516050Y0352250D01*
X0516050Y0202900D01*
X0506350Y0191500D01*
X0504000Y0174000D02*
X0502950Y0156600D01*
X0506150Y0154000D01*
X0518650Y0154000D01*
X0520200Y0151500D01*
X0519800Y0145900D01*
X0516800Y0144000D01*
X0519450Y0129100D02*
X0511500Y0129000D01*
X0511500Y0119000D02*
X0521500Y0118900D01*
X0516350Y0101500D02*
X0524150Y0094600D01*
X0522500Y0084000D02*
X0508600Y0084000D01*
X0551300Y0124550D02*
X0569000Y0119000D01*
X0569000Y0129000D02*
X0558400Y0135450D01*
X0558400Y0186200D01*
X0576050Y0203800D01*
X0576050Y0216900D01*
X0586450Y0227650D01*
X0586000Y0289900D01*
X0590100Y0294000D01*
X0590100Y0284000D02*
X0590100Y0227200D01*
X0579100Y0216200D01*
X0579100Y0202700D01*
X0561300Y0184850D01*
X0561300Y0153850D01*
X0566150Y0149000D01*
X0569000Y0149000D01*
X0580000Y0144000D02*
X0605050Y0224000D01*
X0605050Y0274000D01*
X0563150Y0274750D02*
X0557400Y0269000D01*
X0554000Y0269000D01*
X0563150Y0274750D02*
X0563150Y0351650D01*
X0564500Y0371650D01*
X0574500Y0371650D02*
X0574500Y0359700D01*
X0580150Y0351050D01*
X0580150Y0229250D01*
X0569900Y0219000D01*
X0569900Y0206100D01*
X0551350Y0187300D01*
X0551300Y0124550D01*
X0555500Y0128150D02*
X0554950Y0132450D01*
X0554950Y0186600D01*
X0573000Y0205000D01*
X0573100Y0218050D01*
X0583400Y0228350D01*
X0583400Y0354550D01*
X0579500Y0364900D01*
X0579500Y0381800D01*
X0554500Y0393100D01*
X0542700Y0393100D01*
X0534500Y0401650D01*
X0515900Y0401700D02*
X0516550Y0406600D01*
X0514000Y0411400D01*
X0492500Y0411400D01*
X0490800Y0415000D01*
X0490800Y0473200D01*
X0480000Y0482500D01*
X0479000Y0478000D02*
X0488100Y0471300D01*
X0488100Y0413200D01*
X0490450Y0408000D01*
X0508250Y0408000D01*
X0511050Y0405900D01*
X0477300Y0399500D02*
X0477300Y0453200D01*
X0471450Y0460000D01*
X0451500Y0460000D01*
X0441500Y0478000D02*
X0479000Y0478000D01*
X0451500Y0534600D02*
X0451150Y0549150D01*
X0451500Y0549500D01*
X0297000Y0277000D02*
X0297000Y0259200D01*
X0282000Y0272000D02*
X0277000Y0277000D01*
X0267000Y0277000D02*
X0267000Y0247000D01*
X0257000Y0247000D02*
X0257000Y0277000D01*
X0101950Y0184150D02*
X0083000Y0200750D01*
X0087900Y0204900D02*
X0076850Y0215950D01*
X0076850Y0229600D01*
X0077800Y0230550D01*
X0077800Y0281450D01*
X0068250Y0291000D01*
X0041500Y0291000D01*
X0041500Y0306600D02*
X0072000Y0306600D01*
X0081100Y0296900D01*
X0081100Y0230500D01*
X0080000Y0229050D01*
X0080000Y0220300D01*
X0089400Y0210550D01*
X0089650Y0216400D02*
X0083000Y0222900D01*
X0083000Y0227950D01*
X0084050Y0229500D01*
X0084050Y0297950D01*
X0079000Y0303000D01*
X0079000Y0316500D01*
X0071250Y0322200D01*
X0041500Y0322200D01*
X0041500Y0337800D02*
X0076200Y0337800D01*
X0082000Y0333350D01*
X0082000Y0304300D01*
X0086800Y0299500D01*
X0086800Y0226700D01*
X0087000Y0226500D01*
X0081000Y0194000D02*
X0097600Y0176000D01*
X0091550Y0176000D02*
X0079500Y0187500D01*
X0079500Y0181000D02*
X0087550Y0166800D01*
D21*
X0041750Y0182000D02*
X0041500Y0181800D01*
X0041650Y0196850D02*
X0041500Y0197400D01*
X0107000Y0262000D02*
X0107000Y0277000D01*
X0117000Y0277000D02*
X0117000Y0262000D01*
X0127000Y0262000D02*
X0127000Y0277000D01*
X0137000Y0277000D02*
X0137000Y0262000D01*
X0224000Y0179000D02*
X0240500Y0179000D01*
X0240500Y0106900D01*
X0227800Y0095850D01*
X0227800Y0079050D01*
X0238850Y0068700D01*
X0164000Y0071700D02*
X0164000Y0041500D01*
X0297000Y0217000D02*
X0297000Y0247000D01*
X0314000Y0219000D02*
X0317350Y0219000D01*
X0247000Y0286000D02*
X0247000Y0337000D01*
X0205840Y0389950D02*
X0207000Y0399950D01*
X0197000Y0399950D02*
X0195840Y0389950D01*
X0185840Y0389950D02*
X0187000Y0399950D01*
X0177000Y0399950D02*
X0175840Y0389950D01*
X0165840Y0389950D02*
X0167000Y0399950D01*
X0157000Y0399950D02*
X0155840Y0389950D01*
X0145840Y0389950D02*
X0147000Y0399950D01*
X0137000Y0399950D02*
X0135840Y0389950D01*
X0251500Y0519000D02*
X0252050Y0519500D01*
X0251500Y0519000D02*
X0251500Y0549500D01*
X0261500Y0549500D02*
X0261500Y0526250D01*
X0271500Y0526200D02*
X0271500Y0549500D01*
X0281500Y0549500D02*
X0281500Y0526200D01*
X0291500Y0526150D02*
X0291500Y0549500D01*
X0301500Y0549500D02*
X0301500Y0526200D01*
X0311500Y0526200D02*
X0311500Y0549500D01*
X0321500Y0549500D02*
X0321500Y0526200D01*
X0331500Y0526200D02*
X0331500Y0549500D01*
X0341500Y0549500D02*
X0341500Y0526250D01*
X0351500Y0526200D02*
X0351500Y0549500D01*
X0361500Y0549500D02*
X0361500Y0526250D01*
X0371500Y0526200D02*
X0371500Y0549500D01*
X0381500Y0549500D02*
X0381500Y0526200D01*
X0391500Y0526200D02*
X0391500Y0549500D01*
X0401500Y0549500D02*
X0401500Y0526250D01*
X0411500Y0526250D02*
X0411500Y0549500D01*
X0421500Y0549500D02*
X0421500Y0526300D01*
X0431500Y0526250D02*
X0431500Y0549500D01*
X0441500Y0549500D02*
X0441500Y0501000D01*
X0451500Y0501000D02*
X0451500Y0534600D01*
X0461500Y0519700D02*
X0461500Y0549500D01*
X0488350Y0219650D02*
X0488350Y0219140D01*
D22*
X0504000Y0174000D02*
X0518250Y0174000D01*
X0455900Y0094000D02*
X0462350Y0089000D01*
X0356700Y0105350D02*
X0356700Y0159000D01*
X0360500Y0164000D01*
X0354500Y0164000D02*
X0359500Y0172450D01*
X0354500Y0164000D02*
X0354500Y0122250D01*
X0353750Y0120400D01*
X0261100Y0100300D02*
X0260800Y0090550D01*
X0303100Y0256000D02*
X0301500Y0268800D01*
D23*
X0307000Y0284000D02*
X0304500Y0287700D01*
X0304500Y0357500D01*
X0298300Y0362500D01*
X0298300Y0372400D01*
X0295550Y0375150D01*
X0290600Y0375150D01*
X0286500Y0379350D01*
X0286500Y0392900D01*
X0282050Y0397250D01*
X0268500Y0397250D01*
X0266500Y0399250D01*
X0266500Y0446000D01*
X0278000Y0455300D01*
X0425000Y0455300D01*
X0428850Y0459550D01*
X0470500Y0447700D02*
X0290150Y0447700D01*
X0281500Y0439050D01*
X0281500Y0406200D01*
X0271500Y0406200D02*
X0271500Y0439500D01*
X0283000Y0451400D01*
X0473000Y0451400D01*
X0480000Y0482500D02*
X0282550Y0482500D01*
X0226550Y0431200D01*
X0226550Y0392000D01*
X0229200Y0384900D01*
X0229200Y0374700D01*
X0211950Y0360650D01*
X0192000Y0290500D02*
X0192000Y0252000D01*
D24*
X0297000Y0259200D02*
X0301100Y0254000D01*
X0301100Y0225000D01*
X0302000Y0222000D01*
X0302000Y0219150D01*
X0305100Y0209550D01*
X0306450Y0214000D02*
X0304500Y0219250D01*
X0304500Y0224500D01*
X0303100Y0226000D01*
X0303100Y0256000D01*
X0307300Y0245700D02*
X0307300Y0278000D01*
X0301300Y0284200D01*
X0301300Y0347700D01*
X0297000Y0352000D01*
X0297000Y0337000D02*
X0299050Y0334950D01*
X0299050Y0283500D01*
X0305200Y0276900D01*
X0305200Y0227000D01*
X0306700Y0225050D01*
X0306700Y0219550D01*
X0307950Y0215800D01*
X0311700Y0213550D01*
X0317900Y0206500D01*
X0310350Y0210050D02*
X0309000Y0212700D01*
X0306450Y0214000D01*
X0314000Y0239000D02*
X0307300Y0245700D01*
X0461900Y0108000D02*
X0446000Y0087000D01*
X0388000Y0087000D01*
X0387800Y0094100D01*
X0323250Y0084800D02*
X0484250Y0084800D01*
X0486100Y0088600D01*
X0489350Y0084850D02*
X0487000Y0082500D01*
X0321450Y0082500D01*
X0318100Y0087200D01*
X0319600Y0080500D02*
X0524000Y0080500D01*
X0526250Y0081550D01*
X0527200Y0101700D02*
X0527200Y0175600D01*
X0530600Y0179000D01*
X0539000Y0179000D01*
X0529400Y0185100D02*
X0522800Y0177800D01*
X0522800Y0131750D01*
X0519450Y0129100D01*
X0525000Y0123850D02*
X0521500Y0118900D01*
X0525000Y0123850D02*
X0525000Y0177200D01*
X0534750Y0185500D01*
X0524000Y0184000D02*
X0520500Y0179050D01*
X0520500Y0166550D01*
X0511500Y0159000D01*
X0518250Y0174000D02*
X0518600Y0183050D01*
X0489350Y0124000D02*
X0489350Y0084850D01*
X0478900Y0089350D02*
X0471650Y0089000D01*
X0462350Y0089000D01*
M02*
