G75*
%MOIN*%
%OFA0B0*%
%FSLAX25Y25*%
%IPPOS*%
%LPD*%
%AMOC8*
5,1,8,0,0,1.08239X$1,22.5*
%
%ADD10C,0.00000*%
D10*
X0079000Y0079000D02*
X0079000Y0152000D01*
X0027000Y0152000D01*
X0026893Y0152002D01*
X0026786Y0152008D01*
X0026679Y0152017D01*
X0026573Y0152031D01*
X0026467Y0152048D01*
X0026362Y0152069D01*
X0026258Y0152093D01*
X0026155Y0152122D01*
X0026053Y0152154D01*
X0025952Y0152189D01*
X0025852Y0152228D01*
X0025754Y0152271D01*
X0025657Y0152317D01*
X0025562Y0152367D01*
X0025469Y0152420D01*
X0025378Y0152476D01*
X0025289Y0152536D01*
X0025202Y0152598D01*
X0025118Y0152664D01*
X0025035Y0152733D01*
X0024956Y0152804D01*
X0024879Y0152879D01*
X0024804Y0152956D01*
X0024733Y0153035D01*
X0024664Y0153118D01*
X0024598Y0153202D01*
X0024536Y0153289D01*
X0024476Y0153378D01*
X0024420Y0153469D01*
X0024367Y0153562D01*
X0024317Y0153657D01*
X0024271Y0153754D01*
X0024228Y0153852D01*
X0024189Y0153952D01*
X0024154Y0154053D01*
X0024122Y0154155D01*
X0024093Y0154258D01*
X0024069Y0154362D01*
X0024048Y0154467D01*
X0024031Y0154573D01*
X0024017Y0154679D01*
X0024008Y0154786D01*
X0024002Y0154893D01*
X0024000Y0155000D01*
X0024000Y0154950D02*
X0024000Y0201900D01*
X0064000Y0201900D01*
X0064000Y0208500D01*
X0024000Y0208500D01*
X0024000Y0311100D01*
X0064000Y0311100D01*
X0064000Y0317700D01*
X0024000Y0317700D01*
X0024000Y0349000D01*
X0024002Y0349107D01*
X0024008Y0349214D01*
X0024017Y0349321D01*
X0024031Y0349427D01*
X0024048Y0349533D01*
X0024069Y0349638D01*
X0024093Y0349742D01*
X0024122Y0349845D01*
X0024154Y0349947D01*
X0024189Y0350048D01*
X0024228Y0350148D01*
X0024271Y0350246D01*
X0024317Y0350343D01*
X0024367Y0350438D01*
X0024420Y0350531D01*
X0024476Y0350622D01*
X0024536Y0350711D01*
X0024598Y0350798D01*
X0024664Y0350882D01*
X0024733Y0350965D01*
X0024804Y0351044D01*
X0024879Y0351121D01*
X0024956Y0351196D01*
X0025035Y0351267D01*
X0025118Y0351336D01*
X0025202Y0351402D01*
X0025289Y0351464D01*
X0025378Y0351524D01*
X0025469Y0351580D01*
X0025562Y0351633D01*
X0025657Y0351683D01*
X0025754Y0351729D01*
X0025852Y0351772D01*
X0025952Y0351811D01*
X0026053Y0351846D01*
X0026155Y0351878D01*
X0026258Y0351907D01*
X0026362Y0351931D01*
X0026467Y0351952D01*
X0026573Y0351969D01*
X0026679Y0351983D01*
X0026786Y0351992D01*
X0026893Y0351998D01*
X0027000Y0352000D01*
X0079000Y0352000D01*
X0079000Y0417000D01*
X0219000Y0417000D01*
X0219000Y0512000D01*
X0241500Y0512000D01*
X0241500Y0564000D01*
X0241502Y0564107D01*
X0241508Y0564214D01*
X0241517Y0564321D01*
X0241531Y0564427D01*
X0241548Y0564533D01*
X0241569Y0564638D01*
X0241593Y0564742D01*
X0241622Y0564845D01*
X0241654Y0564947D01*
X0241689Y0565048D01*
X0241728Y0565148D01*
X0241771Y0565246D01*
X0241817Y0565343D01*
X0241867Y0565438D01*
X0241920Y0565531D01*
X0241976Y0565622D01*
X0242036Y0565711D01*
X0242098Y0565798D01*
X0242164Y0565882D01*
X0242233Y0565965D01*
X0242304Y0566044D01*
X0242379Y0566121D01*
X0242456Y0566196D01*
X0242535Y0566267D01*
X0242618Y0566336D01*
X0242702Y0566402D01*
X0242789Y0566464D01*
X0242878Y0566524D01*
X0242969Y0566580D01*
X0243062Y0566633D01*
X0243157Y0566683D01*
X0243254Y0566729D01*
X0243352Y0566772D01*
X0243452Y0566811D01*
X0243553Y0566846D01*
X0243655Y0566878D01*
X0243758Y0566907D01*
X0243862Y0566931D01*
X0243967Y0566952D01*
X0244073Y0566969D01*
X0244179Y0566983D01*
X0244286Y0566992D01*
X0244393Y0566998D01*
X0244500Y0567000D01*
X0468500Y0567000D01*
X0468607Y0566998D01*
X0468714Y0566992D01*
X0468821Y0566983D01*
X0468927Y0566969D01*
X0469033Y0566952D01*
X0469138Y0566931D01*
X0469242Y0566907D01*
X0469345Y0566878D01*
X0469447Y0566846D01*
X0469548Y0566811D01*
X0469648Y0566772D01*
X0469746Y0566729D01*
X0469843Y0566683D01*
X0469938Y0566633D01*
X0470031Y0566580D01*
X0470122Y0566524D01*
X0470211Y0566464D01*
X0470298Y0566402D01*
X0470382Y0566336D01*
X0470465Y0566267D01*
X0470544Y0566196D01*
X0470621Y0566121D01*
X0470696Y0566044D01*
X0470767Y0565965D01*
X0470836Y0565882D01*
X0470902Y0565798D01*
X0470964Y0565711D01*
X0471024Y0565622D01*
X0471080Y0565531D01*
X0471133Y0565438D01*
X0471183Y0565343D01*
X0471229Y0565246D01*
X0471272Y0565148D01*
X0471311Y0565048D01*
X0471346Y0564947D01*
X0471378Y0564845D01*
X0471407Y0564742D01*
X0471431Y0564638D01*
X0471452Y0564533D01*
X0471469Y0564427D01*
X0471483Y0564321D01*
X0471492Y0564214D01*
X0471498Y0564107D01*
X0471500Y0564000D01*
X0471500Y0512000D01*
X0494000Y0512000D01*
X0494000Y0417000D01*
X0629000Y0417000D01*
X0629000Y0079000D01*
X0294000Y0079000D01*
X0294000Y0027000D01*
X0293998Y0026893D01*
X0293992Y0026786D01*
X0293983Y0026679D01*
X0293969Y0026573D01*
X0293952Y0026467D01*
X0293931Y0026362D01*
X0293907Y0026258D01*
X0293878Y0026155D01*
X0293846Y0026053D01*
X0293811Y0025952D01*
X0293772Y0025852D01*
X0293729Y0025754D01*
X0293683Y0025657D01*
X0293633Y0025562D01*
X0293580Y0025469D01*
X0293524Y0025378D01*
X0293464Y0025289D01*
X0293402Y0025202D01*
X0293336Y0025118D01*
X0293267Y0025035D01*
X0293196Y0024956D01*
X0293121Y0024879D01*
X0293044Y0024804D01*
X0292965Y0024733D01*
X0292882Y0024664D01*
X0292798Y0024598D01*
X0292711Y0024536D01*
X0292622Y0024476D01*
X0292531Y0024420D01*
X0292438Y0024367D01*
X0292343Y0024317D01*
X0292246Y0024271D01*
X0292148Y0024228D01*
X0292048Y0024189D01*
X0291947Y0024154D01*
X0291845Y0024122D01*
X0291742Y0024093D01*
X0291638Y0024069D01*
X0291533Y0024048D01*
X0291427Y0024031D01*
X0291321Y0024017D01*
X0291214Y0024008D01*
X0291107Y0024002D01*
X0291000Y0024000D01*
X0271500Y0024000D01*
X0271500Y0069000D01*
X0266500Y0069000D01*
X0266500Y0024000D01*
X0157000Y0024000D01*
X0156893Y0024002D01*
X0156786Y0024008D01*
X0156679Y0024017D01*
X0156573Y0024031D01*
X0156467Y0024048D01*
X0156362Y0024069D01*
X0156258Y0024093D01*
X0156155Y0024122D01*
X0156053Y0024154D01*
X0155952Y0024189D01*
X0155852Y0024228D01*
X0155754Y0024271D01*
X0155657Y0024317D01*
X0155562Y0024367D01*
X0155469Y0024420D01*
X0155378Y0024476D01*
X0155289Y0024536D01*
X0155202Y0024598D01*
X0155118Y0024664D01*
X0155035Y0024733D01*
X0154956Y0024804D01*
X0154879Y0024879D01*
X0154804Y0024956D01*
X0154733Y0025035D01*
X0154664Y0025118D01*
X0154598Y0025202D01*
X0154536Y0025289D01*
X0154476Y0025378D01*
X0154420Y0025469D01*
X0154367Y0025562D01*
X0154317Y0025657D01*
X0154271Y0025754D01*
X0154228Y0025852D01*
X0154189Y0025952D01*
X0154154Y0026053D01*
X0154122Y0026155D01*
X0154093Y0026258D01*
X0154069Y0026362D01*
X0154048Y0026467D01*
X0154031Y0026573D01*
X0154017Y0026679D01*
X0154008Y0026786D01*
X0154002Y0026893D01*
X0154000Y0027000D01*
X0154000Y0079000D01*
X0079000Y0079000D01*
M02*
