G75*
%MOIN*%
%OFA0B0*%
%FSLAX25Y25*%
%IPPOS*%
%LPD*%
%AMOC8*
5,1,8,0,0,1.08239X$1,22.5*
%
%ADD10C,0.00200*%
%ADD11C,0.00400*%
D10*
X0097750Y0095250D02*
X0097750Y0100250D01*
X0095250Y0097750D02*
X0100250Y0097750D01*
X0116500Y0116500D02*
X0079000Y0116500D01*
X0116500Y0116500D02*
X0116500Y0079000D01*
X0116500Y0379500D02*
X0079000Y0379500D01*
X0097750Y0395750D02*
X0097750Y0400750D01*
X0095250Y0398250D02*
X0100250Y0398250D01*
X0116500Y0379500D02*
X0116500Y0417000D01*
X0591500Y0417000D02*
X0591500Y0379500D01*
X0629000Y0379500D01*
X0612750Y0398250D02*
X0607750Y0398250D01*
X0610250Y0395750D02*
X0610250Y0400750D01*
X0591500Y0116500D02*
X0629000Y0116500D01*
X0612750Y0097750D02*
X0607750Y0097750D01*
X0610250Y0095250D02*
X0610250Y0100250D01*
X0591500Y0116500D02*
X0591500Y0079000D01*
D11*
X0288800Y0065537D02*
X0288033Y0066304D01*
X0286498Y0066304D01*
X0285731Y0065537D01*
X0285731Y0064769D01*
X0288800Y0061700D01*
X0285731Y0061700D01*
X0284196Y0062467D02*
X0283429Y0061700D01*
X0281894Y0061700D01*
X0281127Y0062467D01*
X0281127Y0064002D01*
X0281894Y0064769D01*
X0282661Y0064769D01*
X0284196Y0064002D01*
X0284196Y0066304D01*
X0281127Y0066304D01*
X0263800Y0071700D02*
X0263800Y0076304D01*
X0261498Y0076304D01*
X0260731Y0075537D01*
X0260731Y0074002D01*
X0261498Y0073235D01*
X0263800Y0073235D01*
X0259196Y0072467D02*
X0258429Y0071700D01*
X0256127Y0071700D01*
X0256127Y0074002D01*
X0256894Y0074769D01*
X0258429Y0074769D01*
X0258429Y0073235D02*
X0256127Y0073235D01*
X0254592Y0073235D02*
X0253058Y0074769D01*
X0252290Y0074769D01*
X0249988Y0074769D02*
X0248454Y0074769D01*
X0247686Y0074002D01*
X0247686Y0071700D01*
X0249988Y0071700D01*
X0250756Y0072467D01*
X0249988Y0073235D01*
X0247686Y0073235D01*
X0246152Y0071700D02*
X0244617Y0071700D01*
X0245384Y0071700D02*
X0245384Y0076304D01*
X0246152Y0076304D01*
X0243082Y0076304D02*
X0242315Y0076304D01*
X0242315Y0071700D01*
X0243082Y0071700D02*
X0241548Y0071700D01*
X0240013Y0072467D02*
X0239246Y0071700D01*
X0237711Y0071700D01*
X0236944Y0073235D02*
X0240013Y0073235D01*
X0240013Y0074002D02*
X0239246Y0074769D01*
X0237711Y0074769D01*
X0236944Y0074002D01*
X0236944Y0073235D01*
X0235409Y0071700D02*
X0233875Y0071700D01*
X0234642Y0071700D02*
X0234642Y0076304D01*
X0235409Y0076304D01*
X0240013Y0074002D02*
X0240013Y0072467D01*
X0227736Y0071700D02*
X0227736Y0076304D01*
X0225434Y0076304D01*
X0224667Y0075537D01*
X0224667Y0074002D01*
X0225434Y0073235D01*
X0227736Y0073235D01*
X0223132Y0073235D02*
X0221597Y0074769D01*
X0220830Y0074769D01*
X0219295Y0074769D02*
X0218528Y0074769D01*
X0218528Y0071700D01*
X0219295Y0071700D02*
X0217761Y0071700D01*
X0216226Y0071700D02*
X0216226Y0074769D01*
X0213924Y0074769D01*
X0213157Y0074002D01*
X0213157Y0071700D01*
X0210855Y0072467D02*
X0210088Y0071700D01*
X0210855Y0072467D02*
X0210855Y0075537D01*
X0211622Y0074769D02*
X0210088Y0074769D01*
X0208553Y0074002D02*
X0207786Y0074769D01*
X0206251Y0074769D01*
X0205484Y0074002D01*
X0205484Y0073235D01*
X0208553Y0073235D01*
X0208553Y0074002D02*
X0208553Y0072467D01*
X0207786Y0071700D01*
X0206251Y0071700D01*
X0203949Y0071700D02*
X0203949Y0074769D01*
X0203949Y0073235D02*
X0202414Y0074769D01*
X0201647Y0074769D01*
X0195508Y0073235D02*
X0193207Y0073235D01*
X0192439Y0074002D01*
X0192439Y0075537D01*
X0193207Y0076304D01*
X0195508Y0076304D01*
X0195508Y0071700D01*
X0190905Y0072467D02*
X0190137Y0071700D01*
X0188603Y0071700D01*
X0187835Y0072467D01*
X0187835Y0074002D01*
X0188603Y0074769D01*
X0190137Y0074769D01*
X0190905Y0074002D01*
X0190905Y0072467D01*
X0186301Y0071700D02*
X0186301Y0074769D01*
X0186301Y0073235D02*
X0184766Y0074769D01*
X0183999Y0074769D01*
X0182464Y0074769D02*
X0180929Y0074769D01*
X0181697Y0075537D02*
X0181697Y0072467D01*
X0180929Y0071700D01*
X0163800Y0064769D02*
X0162265Y0066304D01*
X0162265Y0061700D01*
X0160731Y0061700D02*
X0163800Y0061700D01*
X0218528Y0076304D02*
X0218528Y0077071D01*
X0223132Y0074769D02*
X0223132Y0071700D01*
X0254592Y0071700D02*
X0254592Y0074769D01*
X0258429Y0073235D02*
X0259196Y0072467D01*
X0076304Y0215767D02*
X0075537Y0215000D01*
X0072467Y0215000D01*
X0071700Y0215767D01*
X0071700Y0217302D01*
X0072467Y0218069D01*
X0072467Y0219604D02*
X0071700Y0220371D01*
X0071700Y0221906D01*
X0072467Y0222673D01*
X0074002Y0222673D01*
X0074769Y0221906D01*
X0074769Y0220371D01*
X0074002Y0219604D01*
X0072467Y0219604D01*
X0075537Y0218069D02*
X0076304Y0217302D01*
X0076304Y0215767D01*
X0074769Y0224208D02*
X0071700Y0224208D01*
X0071700Y0225742D02*
X0074002Y0225742D01*
X0074769Y0226510D01*
X0074002Y0227277D01*
X0071700Y0227277D01*
X0071700Y0228812D02*
X0074769Y0228812D01*
X0074769Y0229579D01*
X0074002Y0230346D01*
X0074769Y0231114D01*
X0074002Y0231881D01*
X0071700Y0231881D01*
X0071700Y0230346D02*
X0074002Y0230346D01*
X0074002Y0233416D02*
X0072467Y0233416D01*
X0071700Y0234183D01*
X0071700Y0235718D01*
X0072467Y0236485D01*
X0074002Y0236485D01*
X0074769Y0235718D01*
X0074769Y0234183D01*
X0074002Y0233416D01*
X0074002Y0238020D02*
X0074769Y0238787D01*
X0074769Y0241089D01*
X0076304Y0241089D02*
X0071700Y0241089D01*
X0071700Y0238787D01*
X0072467Y0238020D01*
X0074002Y0238020D01*
X0074002Y0242624D02*
X0072467Y0242624D01*
X0071700Y0243391D01*
X0071700Y0244926D01*
X0072467Y0245693D01*
X0074002Y0245693D01*
X0074769Y0244926D01*
X0074769Y0243391D01*
X0074002Y0242624D01*
X0074769Y0247227D02*
X0071700Y0247227D01*
X0073235Y0247227D02*
X0074769Y0248762D01*
X0074769Y0249529D01*
X0074002Y0251064D02*
X0074769Y0251831D01*
X0074769Y0253366D01*
X0074002Y0254133D01*
X0073235Y0254133D01*
X0073235Y0251064D01*
X0074002Y0251064D02*
X0072467Y0251064D01*
X0071700Y0251831D01*
X0071700Y0253366D01*
X0071700Y0260272D02*
X0071700Y0261807D01*
X0071700Y0261039D02*
X0076304Y0261039D01*
X0076304Y0260272D02*
X0076304Y0261807D01*
X0076304Y0263341D02*
X0071700Y0263341D01*
X0071700Y0266410D01*
X0071700Y0267945D02*
X0071700Y0271014D01*
X0071700Y0272549D02*
X0071700Y0275618D01*
X0074002Y0274084D02*
X0074002Y0272549D01*
X0076304Y0272549D02*
X0071700Y0272549D01*
X0074002Y0269480D02*
X0074002Y0267945D01*
X0076304Y0267945D02*
X0071700Y0267945D01*
X0074002Y0264876D02*
X0074002Y0263341D01*
X0076304Y0263341D02*
X0076304Y0266410D01*
X0076304Y0267945D02*
X0076304Y0271014D01*
X0076304Y0272549D02*
X0076304Y0275618D01*
X0074002Y0277153D02*
X0074002Y0280222D01*
X0074002Y0281757D02*
X0074002Y0284826D01*
X0074769Y0286361D02*
X0075537Y0286361D01*
X0076304Y0287128D01*
X0076304Y0288663D01*
X0075537Y0289430D01*
X0074769Y0289430D01*
X0074002Y0288663D01*
X0074002Y0287128D01*
X0074769Y0286361D01*
X0074002Y0287128D02*
X0073235Y0286361D01*
X0072467Y0286361D01*
X0071700Y0287128D01*
X0071700Y0288663D01*
X0072467Y0289430D01*
X0073235Y0289430D01*
X0074002Y0288663D01*
X0074769Y0290965D02*
X0075537Y0290965D01*
X0076304Y0291732D01*
X0076304Y0293267D01*
X0075537Y0294034D01*
X0074769Y0294034D01*
X0074002Y0293267D01*
X0074002Y0291732D01*
X0074769Y0290965D01*
X0074002Y0291732D02*
X0073235Y0290965D01*
X0072467Y0290965D01*
X0071700Y0291732D01*
X0071700Y0293267D01*
X0072467Y0294034D01*
X0073235Y0294034D01*
X0074002Y0293267D01*
X0071700Y0284059D02*
X0076304Y0284059D01*
X0074002Y0281757D01*
X0064769Y0335000D02*
X0066304Y0336535D01*
X0064769Y0338069D01*
X0061700Y0338069D01*
X0064002Y0338069D02*
X0064002Y0335000D01*
X0064769Y0335000D02*
X0061700Y0335000D01*
X0074002Y0225742D02*
X0074769Y0224975D01*
X0074769Y0224208D01*
X0066304Y0168069D02*
X0061700Y0168069D01*
X0066304Y0165000D01*
X0061700Y0165000D01*
X0242835Y0381400D02*
X0245904Y0381400D01*
X0245904Y0382167D01*
X0242835Y0385237D01*
X0242835Y0386004D01*
X0245904Y0386004D01*
X0245508Y0406400D02*
X0242439Y0406400D01*
X0240904Y0406400D02*
X0237835Y0409469D01*
X0237835Y0410237D01*
X0238602Y0411004D01*
X0240137Y0411004D01*
X0240904Y0410237D01*
X0242439Y0410237D02*
X0243206Y0411004D01*
X0244741Y0411004D01*
X0245508Y0410237D01*
X0242439Y0410237D02*
X0242439Y0409469D01*
X0245508Y0406400D01*
X0240904Y0406400D02*
X0237835Y0406400D01*
X0297835Y0421400D02*
X0298602Y0422167D01*
X0298602Y0425237D01*
X0297835Y0424469D02*
X0299370Y0424469D01*
X0300904Y0424469D02*
X0301672Y0424469D01*
X0303206Y0422935D01*
X0303206Y0424469D02*
X0303206Y0421400D01*
X0304741Y0422167D02*
X0304741Y0423702D01*
X0305508Y0424469D01*
X0307043Y0424469D01*
X0307810Y0423702D01*
X0307810Y0422167D01*
X0307043Y0421400D01*
X0305508Y0421400D01*
X0304741Y0422167D01*
X0309345Y0423702D02*
X0309345Y0425237D01*
X0310112Y0426004D01*
X0312414Y0426004D01*
X0312414Y0421400D01*
X0312414Y0422935D02*
X0310112Y0422935D01*
X0309345Y0423702D01*
X0318553Y0423702D02*
X0318553Y0421400D01*
X0318553Y0423702D02*
X0319320Y0424469D01*
X0321622Y0424469D01*
X0321622Y0421400D01*
X0323156Y0422167D02*
X0323156Y0423702D01*
X0323924Y0424469D01*
X0325458Y0424469D01*
X0326226Y0423702D01*
X0326226Y0422167D01*
X0325458Y0421400D01*
X0323924Y0421400D01*
X0323156Y0422167D01*
X0327760Y0421400D02*
X0329295Y0421400D01*
X0328528Y0421400D02*
X0328528Y0424469D01*
X0329295Y0424469D01*
X0330830Y0424469D02*
X0333132Y0424469D01*
X0333899Y0423702D01*
X0333132Y0422935D01*
X0331597Y0422935D01*
X0330830Y0422167D01*
X0331597Y0421400D01*
X0333899Y0421400D01*
X0335434Y0421400D02*
X0335434Y0423702D01*
X0336201Y0424469D01*
X0338503Y0424469D01*
X0338503Y0421400D01*
X0340038Y0421400D02*
X0342340Y0421400D01*
X0343107Y0422167D01*
X0342340Y0422935D01*
X0340038Y0422935D01*
X0340038Y0423702D02*
X0340038Y0421400D01*
X0340038Y0423702D02*
X0340805Y0424469D01*
X0342340Y0424469D01*
X0344641Y0423702D02*
X0344641Y0422167D01*
X0345409Y0421400D01*
X0347711Y0421400D01*
X0349245Y0421400D02*
X0352315Y0424469D01*
X0353849Y0426004D02*
X0356919Y0426004D01*
X0356919Y0421400D01*
X0353849Y0421400D01*
X0352315Y0421400D02*
X0349245Y0424469D01*
X0347711Y0424469D02*
X0345409Y0424469D01*
X0344641Y0423702D01*
X0347711Y0424469D02*
X0347711Y0419865D01*
X0355384Y0423702D02*
X0356919Y0423702D01*
X0363057Y0423702D02*
X0366126Y0423702D01*
X0363824Y0426004D01*
X0363824Y0421400D01*
X0367661Y0422167D02*
X0367661Y0422935D01*
X0368428Y0423702D01*
X0370730Y0423702D01*
X0370730Y0422167D01*
X0369963Y0421400D01*
X0368428Y0421400D01*
X0367661Y0422167D01*
X0370730Y0423702D02*
X0369196Y0425237D01*
X0367661Y0426004D01*
X0376869Y0423702D02*
X0376869Y0422935D01*
X0379938Y0422935D01*
X0379938Y0423702D02*
X0379171Y0424469D01*
X0377636Y0424469D01*
X0376869Y0423702D01*
X0377636Y0421400D02*
X0379171Y0421400D01*
X0379938Y0422167D01*
X0379938Y0423702D01*
X0381473Y0424469D02*
X0382240Y0424469D01*
X0383775Y0422935D01*
X0383775Y0424469D02*
X0383775Y0421400D01*
X0385309Y0422167D02*
X0385309Y0423702D01*
X0386077Y0424469D01*
X0387611Y0424469D01*
X0388379Y0423702D01*
X0388379Y0422167D01*
X0387611Y0421400D01*
X0386077Y0421400D01*
X0385309Y0422167D01*
X0389913Y0421400D02*
X0389913Y0426004D01*
X0389913Y0424469D02*
X0392215Y0424469D01*
X0392983Y0423702D01*
X0392983Y0422167D01*
X0392215Y0421400D01*
X0389913Y0421400D01*
X0394517Y0422167D02*
X0394517Y0423702D01*
X0395285Y0424469D01*
X0396819Y0424469D01*
X0397587Y0423702D01*
X0397587Y0422167D01*
X0396819Y0421400D01*
X0395285Y0421400D01*
X0394517Y0422167D01*
X0399121Y0421400D02*
X0399121Y0423702D01*
X0399889Y0424469D01*
X0400656Y0423702D01*
X0400656Y0421400D01*
X0402191Y0421400D02*
X0402191Y0424469D01*
X0401423Y0424469D01*
X0400656Y0423702D01*
X0403725Y0423702D02*
X0403725Y0421400D01*
X0405260Y0421400D02*
X0405260Y0423702D01*
X0404492Y0424469D01*
X0403725Y0423702D01*
X0405260Y0423702D02*
X0406027Y0424469D01*
X0406794Y0424469D01*
X0406794Y0421400D01*
X0408329Y0422167D02*
X0408329Y0423702D01*
X0409096Y0424469D01*
X0410631Y0424469D01*
X0411398Y0423702D01*
X0411398Y0422167D01*
X0410631Y0421400D01*
X0409096Y0421400D01*
X0408329Y0422167D01*
X0412933Y0422167D02*
X0413700Y0421400D01*
X0415235Y0421400D01*
X0416002Y0422167D01*
X0416002Y0425237D01*
X0415235Y0426004D01*
X0413700Y0426004D01*
X0412933Y0425237D01*
X0467835Y0406400D02*
X0470904Y0406400D01*
X0469369Y0406400D02*
X0469369Y0411004D01*
X0470904Y0409469D01*
X0469369Y0386004D02*
X0467835Y0384469D01*
X0467835Y0381400D01*
X0467835Y0383702D02*
X0470904Y0383702D01*
X0470904Y0384469D02*
X0469369Y0386004D01*
X0470904Y0384469D02*
X0470904Y0381400D01*
X0328528Y0426004D02*
X0328528Y0426771D01*
X0342711Y0513165D02*
X0342711Y0517769D01*
X0340409Y0517769D01*
X0339641Y0517002D01*
X0339641Y0515467D01*
X0340409Y0514700D01*
X0342711Y0514700D01*
X0344245Y0514700D02*
X0347315Y0517769D01*
X0348849Y0519304D02*
X0351919Y0519304D01*
X0351919Y0514700D01*
X0348849Y0514700D01*
X0347315Y0514700D02*
X0344245Y0517769D01*
X0350384Y0517002D02*
X0351919Y0517002D01*
X0358057Y0517002D02*
X0361126Y0517002D01*
X0358824Y0519304D01*
X0358824Y0514700D01*
X0362661Y0515467D02*
X0362661Y0516235D01*
X0363428Y0517002D01*
X0365730Y0517002D01*
X0365730Y0515467D01*
X0364963Y0514700D01*
X0363428Y0514700D01*
X0362661Y0515467D01*
X0365730Y0517002D02*
X0364196Y0518537D01*
X0362661Y0519304D01*
X0371869Y0517002D02*
X0371869Y0516235D01*
X0374938Y0516235D01*
X0374938Y0517002D02*
X0374171Y0517769D01*
X0372636Y0517769D01*
X0371869Y0517002D01*
X0372636Y0514700D02*
X0374171Y0514700D01*
X0374938Y0515467D01*
X0374938Y0517002D01*
X0376473Y0517769D02*
X0377240Y0517769D01*
X0378775Y0516235D01*
X0378775Y0517769D02*
X0378775Y0514700D01*
X0380309Y0515467D02*
X0380309Y0517002D01*
X0381077Y0517769D01*
X0382611Y0517769D01*
X0383379Y0517002D01*
X0383379Y0515467D01*
X0382611Y0514700D01*
X0381077Y0514700D01*
X0380309Y0515467D01*
X0384913Y0514700D02*
X0387215Y0514700D01*
X0387983Y0515467D01*
X0387983Y0517002D01*
X0387215Y0517769D01*
X0384913Y0517769D01*
X0384913Y0519304D02*
X0384913Y0514700D01*
X0389517Y0515467D02*
X0389517Y0517002D01*
X0390285Y0517769D01*
X0391819Y0517769D01*
X0392587Y0517002D01*
X0392587Y0515467D01*
X0391819Y0514700D01*
X0390285Y0514700D01*
X0389517Y0515467D01*
X0394121Y0514700D02*
X0394121Y0517002D01*
X0394889Y0517769D01*
X0395656Y0517002D01*
X0395656Y0514700D01*
X0397191Y0514700D02*
X0397191Y0517769D01*
X0396423Y0517769D01*
X0395656Y0517002D01*
X0398725Y0517002D02*
X0398725Y0514700D01*
X0400260Y0514700D02*
X0400260Y0517002D01*
X0399492Y0517769D01*
X0398725Y0517002D01*
X0400260Y0517002D02*
X0401027Y0517769D01*
X0401794Y0517769D01*
X0401794Y0514700D01*
X0403329Y0515467D02*
X0403329Y0517002D01*
X0404096Y0517769D01*
X0405631Y0517769D01*
X0406398Y0517002D01*
X0406398Y0515467D01*
X0405631Y0514700D01*
X0404096Y0514700D01*
X0403329Y0515467D01*
X0407933Y0515467D02*
X0408700Y0514700D01*
X0410235Y0514700D01*
X0411002Y0515467D01*
X0411002Y0518537D01*
X0410235Y0519304D01*
X0408700Y0519304D01*
X0407933Y0518537D01*
X0460335Y0524700D02*
X0460335Y0527769D01*
X0461869Y0529304D01*
X0463404Y0527769D01*
X0463404Y0524700D01*
X0463404Y0527002D02*
X0460335Y0527002D01*
X0338107Y0515467D02*
X0337340Y0516235D01*
X0335038Y0516235D01*
X0335038Y0517002D02*
X0335038Y0514700D01*
X0337340Y0514700D01*
X0338107Y0515467D01*
X0337340Y0517769D02*
X0335805Y0517769D01*
X0335038Y0517002D01*
X0333503Y0517769D02*
X0331201Y0517769D01*
X0330434Y0517002D01*
X0330434Y0514700D01*
X0328899Y0514700D02*
X0326597Y0514700D01*
X0325830Y0515467D01*
X0326597Y0516235D01*
X0328132Y0516235D01*
X0328899Y0517002D01*
X0328132Y0517769D01*
X0325830Y0517769D01*
X0324295Y0517769D02*
X0323528Y0517769D01*
X0323528Y0514700D01*
X0324295Y0514700D02*
X0322760Y0514700D01*
X0321226Y0515467D02*
X0320458Y0514700D01*
X0318924Y0514700D01*
X0318156Y0515467D01*
X0318156Y0517002D01*
X0318924Y0517769D01*
X0320458Y0517769D01*
X0321226Y0517002D01*
X0321226Y0515467D01*
X0323528Y0519304D02*
X0323528Y0520071D01*
X0316622Y0517769D02*
X0314320Y0517769D01*
X0313553Y0517002D01*
X0313553Y0514700D01*
X0316622Y0514700D02*
X0316622Y0517769D01*
X0307414Y0516235D02*
X0305112Y0516235D01*
X0304345Y0517002D01*
X0304345Y0518537D01*
X0305112Y0519304D01*
X0307414Y0519304D01*
X0307414Y0514700D01*
X0302810Y0515467D02*
X0302043Y0514700D01*
X0300508Y0514700D01*
X0299741Y0515467D01*
X0299741Y0517002D01*
X0300508Y0517769D01*
X0302043Y0517769D01*
X0302810Y0517002D01*
X0302810Y0515467D01*
X0298206Y0514700D02*
X0298206Y0517769D01*
X0298206Y0516235D02*
X0296672Y0517769D01*
X0295904Y0517769D01*
X0294370Y0517769D02*
X0292835Y0517769D01*
X0293602Y0518537D02*
X0293602Y0515467D01*
X0292835Y0514700D01*
X0333503Y0514700D02*
X0333503Y0517769D01*
X0253404Y0524700D02*
X0250335Y0524700D01*
X0253404Y0524700D02*
X0253404Y0525467D01*
X0250335Y0528537D01*
X0250335Y0529304D01*
X0253404Y0529304D01*
M02*
