%
M48
M72
T01C0.02362
T02C0.03200
T03C0.03543
T04C0.03600
T05C0.04000
%
T01
X145500Y101000
X152000Y97000
X156300Y93000
X160500Y86000
X164000Y71700
X184000Y68700
X194000Y68700
X204000Y68700
X199000Y90000
X186650Y101000
X189100Y111000
X210200Y118800
X215000Y104300
X251800Y83500
X254600Y88450
X263000Y87400
X257150Y96100
X274050Y112900
X290400Y107000
X293600Y92000
X285250Y90500
X323000Y106000
X331200Y105000
X348850Y109600
X350500Y124000
X381400Y124000
X409350Y124000
X408350Y110050
X434350Y128850
X412300Y144050
X432250Y164000
X466000Y144450
X498700Y129200
X497700Y116700
X493250Y109000
X478900Y89350
X497400Y84950
X508600Y84000
X524150Y94600
X533200Y103400
X547850Y102600
X555500Y111000
X555500Y128150
X531300Y134000
X519450Y124000
X566000Y87500
X580000Y144000
X569900Y185600
X538700Y191800
X533350Y191800
X527950Y191800
X531300Y174100
X506350Y191500
X489800Y191500
X435800Y199700
X397400Y191500
X392150Y195500
X386850Y191500
X374300Y206600
X364000Y196500
X355000Y174000
X330000Y196500
X313500Y197000
X302500Y185550
X286200Y191500
X287300Y197000
X292050Y204000
X282000Y209350
X305100Y209550
X330000Y218500
X348500Y219150
X348500Y239000
X339650Y249000
X348000Y254000
X357950Y264000
X365500Y264000
X358000Y284000
X361000Y294000
X332350Y279000
X307000Y284000
X292000Y289350
X287000Y297400
X277000Y289350
X282000Y285250
X301500Y268800
X327000Y243200
X332350Y309000
X271750Y313000
X262000Y305200
X237000Y301300
X232000Y295000
X227000Y309100
X217000Y316900
X207000Y323500
X192000Y307000
X187000Y302550
X192000Y290500
X202000Y298000
X182000Y316000
X172000Y323600
X137000Y298000
X127000Y307000
X117000Y316000
X107000Y323600
X102000Y329500
X107000Y347000
X117000Y353000
X127000Y359000
X112050Y285000
X147000Y229000
X157000Y229000
X187150Y230200
X192000Y225850
X209300Y255650
X237550Y264350
X243250Y266500
X249350Y268000
X252000Y255550
X247000Y286000
X211950Y360650
X87000Y226500
X89650Y216400
X89400Y210550
X87900Y204900
X83000Y200750
X81000Y194000
X79500Y187500
X79500Y181000
X91550Y176000
X97600Y176000
X101950Y184150
X87550Y166800
X70450Y166200
X125000Y156700
X128000Y151000
X202900Y164000
X206950Y191000
X234000Y158900
X245400Y191100
X273750Y154050
X299000Y154000
X299000Y139400
X321000Y139000
X317900Y164050
X323550Y168900
X299200Y169050
X238850Y68700
X409950Y254000
X428000Y259000
X430750Y269000
X435800Y274300
X414500Y329000
X432150Y334000
X443700Y344000
X431500Y376000
X484000Y385700
X497550Y388150
X497200Y379400
X507850Y368350
X517550Y365300
X524550Y381850
X539750Y380450
X515900Y401700
X511050Y405900
X508750Y397700
X500550Y399250
X461500Y421500
X446500Y430000
X428850Y459550
X441500Y478000
X441500Y501000
X451500Y501000
X461500Y519700
X431500Y526250
X421500Y526300
X411500Y526250
X401500Y526250
X391500Y526200
X381500Y526200
X371500Y526200
X361500Y526250
X351500Y526200
X341500Y526250
X331500Y526200
X321500Y526200
X311500Y526200
X301500Y526200
X291500Y526150
X281500Y526200
X271500Y526200
X261500Y526250
X251500Y519000
X381500Y460000
X391500Y460000
X401500Y460000
X482050Y344000
X481900Y334000
X509100Y274450
X590100Y284000
X590100Y294000
X605050Y274000
X598300Y229000
X455900Y94000
T02
X466000Y94600
X481500Y109000
X481500Y119000
X481500Y129000
X481500Y139000
X481500Y149000
X481500Y159000
X481500Y169000
X481500Y179000
X511500Y179000
X511500Y169000
X511500Y159000
X511500Y149000
X511500Y139000
X511500Y129000
X511500Y119000
X511500Y109000
X515200Y94600
X506000Y94600
X539000Y119000
X539000Y129000
X539000Y139000
X539000Y149000
X539000Y159000
X539000Y169000
X539000Y179000
X569000Y179000
X569000Y169000
X569000Y159000
X569000Y149000
X569000Y139000
X569000Y129000
X569000Y119000
X555200Y94600
X454000Y119000
X454000Y129000
X454000Y139000
X454000Y149000
X454000Y159000
X454000Y169000
X454000Y179000
X424000Y179000
X424000Y169000
X424000Y159000
X424000Y149000
X424000Y139000
X424000Y129000
X424000Y119000
X396500Y119000
X396500Y129000
X396500Y139000
X396500Y149000
X396500Y159000
X396500Y169000
X396500Y179000
X366500Y179000
X366500Y169000
X366500Y159000
X366500Y149000
X366500Y139000
X366500Y129000
X366500Y119000
X339000Y119000
X339000Y129000
X339000Y139000
X339000Y149000
X339000Y159000
X339000Y169000
X339000Y179000
X309000Y179000
X309000Y169000
X309000Y159000
X309000Y149000
X309000Y139000
X309000Y129000
X309000Y119000
X309000Y96400
X278500Y84000
X269000Y96400
X247800Y96000
X238500Y84000
X207800Y96000
X194000Y119000
X194000Y129000
X194000Y139000
X194000Y149000
X194000Y159000
X194000Y169000
X194000Y179000
X224000Y179000
X224000Y169000
X224000Y159000
X224000Y149000
X224000Y139000
X224000Y129000
X224000Y119000
X251500Y119000
X251500Y129000
X251500Y139000
X251500Y149000
X251500Y159000
X251500Y169000
X251500Y179000
X256750Y198250
X266750Y198250
X276750Y198250
X277000Y217000
X287000Y217000
X297000Y217000
X314000Y219000
X314000Y229000
X314000Y239000
X314000Y249000
X314000Y259000
X314000Y269000
X314000Y279000
X314000Y289000
X314000Y299000
X314000Y309000
X314000Y319000
X314000Y329000
X314000Y339000
X314000Y349000
X297000Y352000
X287000Y352000
X277000Y352000
X267000Y352000
X257000Y352000
X247000Y352000
X237000Y352000
X227000Y352000
X217000Y352000
X207000Y352000
X207000Y337000
X217000Y337000
X227000Y337000
X237000Y337000
X247000Y337000
X257000Y337000
X267000Y337000
X277000Y337000
X287000Y337000
X297000Y337000
X290550Y367200
X291500Y386200
X301500Y386200
X311500Y386200
X321500Y386200
X331500Y386200
X341500Y386200
X351500Y386200
X361500Y386200
X371500Y386200
X381500Y386200
X391500Y386200
X401500Y386200
X411500Y386200
X421500Y386200
X431500Y386200
X441500Y386200
X451500Y386200
X461500Y386200
X461500Y406200
X451500Y406200
X441500Y406200
X431500Y406200
X421500Y406200
X411500Y406200
X401500Y406200
X391500Y406200
X381500Y406200
X371500Y406200
X361500Y406200
X351500Y406200
X341500Y406200
X331500Y406200
X321500Y406200
X311500Y406200
X301500Y406200
X291500Y406200
X281500Y406200
X271500Y406200
X261500Y406200
X251500Y406200
X239000Y421800
X234000Y429300
X244000Y429300
X207000Y399950
X197000Y399950
X187000Y399950
X177000Y399950
X167000Y399950
X157000Y399950
X147000Y399950
X137000Y399950
X137000Y369950
X147000Y369950
X157000Y369950
X167000Y369950
X177000Y369950
X187000Y369950
X197000Y369950
X207000Y369950
X197000Y337000
X187000Y337000
X177000Y337000
X167000Y337000
X157000Y337000
X147000Y337000
X137000Y337000
X127000Y337000
X117000Y337000
X107000Y337000
X107000Y277000
X117000Y277000
X127000Y277000
X137000Y277000
X147000Y277000
X157000Y277000
X167000Y277000
X177000Y277000
X187000Y277000
X197000Y277000
X207000Y277000
X217000Y277000
X227000Y277000
X237000Y277000
X247000Y277000
X257000Y277000
X267000Y277000
X277000Y277000
X287000Y277000
X297000Y277000
X297000Y247000
X287000Y247000
X277000Y247000
X267000Y247000
X257000Y247000
X247000Y247000
X237000Y247000
X227000Y247000
X217000Y247000
X207000Y247000
X197000Y247000
X187000Y247000
X177000Y247000
X167000Y247000
X157000Y247000
X147000Y247000
X137000Y247000
X127000Y247000
X117000Y247000
X107000Y247000
X107000Y262000
X117000Y262000
X127000Y262000
X137000Y262000
X147000Y262000
X157000Y262000
X167000Y262000
X177000Y262000
X187000Y262000
X197000Y262000
X197000Y217000
X187000Y217000
X177000Y217000
X167000Y217000
X157000Y217000
X147000Y217000
X137000Y217000
X127000Y217000
X117000Y217000
X107000Y217000
X207000Y217000
X217000Y217000
X227000Y217000
X237000Y217000
X247000Y217000
X257000Y217000
X267000Y217000
X281500Y179000
X281500Y169000
X281500Y159000
X281500Y149000
X281500Y139000
X281500Y129000
X281500Y119000
X374000Y219000
X374000Y229000
X374000Y239000
X374000Y249000
X374000Y259000
X374000Y269000
X374000Y279000
X374000Y289000
X374000Y299000
X374000Y309000
X374000Y319000
X374000Y329000
X374000Y339000
X374000Y349000
X394000Y349000
X394000Y339000
X394000Y329000
X394000Y319000
X394000Y309000
X394000Y299000
X394000Y289000
X394000Y279000
X394000Y269000
X394000Y259000
X394000Y249000
X394000Y239000
X394000Y229000
X394000Y219000
X454000Y219000
X454000Y229000
X454000Y239000
X454000Y249000
X454000Y259000
X454000Y269000
X454000Y279000
X454000Y289000
X454000Y299000
X454000Y309000
X454000Y319000
X454000Y329000
X454000Y339000
X454000Y349000
X474000Y349000
X474000Y339000
X474000Y329000
X474000Y319000
X474000Y309000
X474000Y299000
X474000Y289000
X474000Y279000
X474000Y269000
X474000Y259000
X474000Y249000
X474000Y239000
X474000Y229000
X474000Y219000
X534000Y219000
X534000Y229000
X534000Y239000
X534000Y249000
X534000Y259000
X534000Y269000
X534000Y279000
X534000Y289000
X534000Y299000
X534000Y309000
X534000Y319000
X534000Y329000
X534000Y339000
X534000Y349000
X554000Y349000
X554000Y339000
X554000Y329000
X554000Y319000
X554000Y309000
X554000Y299000
X554000Y289000
X554000Y279000
X554000Y269000
X554000Y259000
X554000Y249000
X554000Y239000
X554000Y229000
X554000Y219000
X614000Y219000
X614000Y229000
X614000Y239000
X614000Y249000
X614000Y259000
X614000Y269000
X614000Y279000
X614000Y289000
X614000Y299000
X614000Y309000
X614000Y319000
X614000Y329000
X614000Y339000
X614000Y349000
X584500Y371650
X574500Y371650
X564500Y371650
X554500Y371650
X544500Y371650
X534500Y371650
X524500Y371650
X524500Y401650
X534500Y401650
X544500Y401650
X554500Y401650
X564500Y401650
X574500Y401650
X584500Y401650
X330550Y367200
X281500Y386200
X271500Y386200
X261500Y386200
X251500Y386200
T03
X223160Y379950
X213160Y379950
X203160Y379950
X193160Y379950
X183160Y379950
X173160Y379950
X163160Y379950
X153160Y379950
X155840Y389950
X145840Y389950
X135840Y389950
X165840Y389950
X175840Y389950
X185840Y389950
X195840Y389950
X205840Y389950
T04
X135150Y119000
X165150Y119000
X327800Y94100
X337800Y94100
X347800Y94100
X357800Y94100
X367800Y94100
X377800Y94100
X387800Y94100
X397800Y94100
X407800Y94100
X417800Y94100
X427800Y94100
X437800Y94100
X467000Y164000
X467000Y194000
X583900Y199725
X613900Y199725
X89000Y307000
X89000Y337000
T05
X431500Y439000
X441500Y439000
X451500Y439000
X461500Y439000
X451500Y460000
X441500Y460000
M30
